<mxfile host="app.diagrams.net" modified="2021-01-17T08:45:39.525Z" agent="5.0 (Macintosh; Intel Mac OS X 11_0_1) AppleWebKit/537.36 (KHTML, like Gecko) Chrome/87.0.4280.141 Safari/537.36" etag="HGElN5RSp7bpWV0h551V" version="14.2.4" type="github">
  <diagram id="6Vs6VtMK_UbZKI0QtUXt" name="Page-1">
    <mxGraphModel dx="946" dy="447" grid="1" gridSize="10" guides="1" tooltips="1" connect="1" arrows="1" fold="1" page="1" pageScale="1" pageWidth="291" pageHeight="413" math="0" shadow="0">
      <root>
        <mxCell id="0" />
        <mxCell id="1" parent="0" />
        <mxCell id="pbOQcnThbagH4nvjm6GH-17" value="" style="rounded=1;whiteSpace=wrap;html=1;strokeColor=#4D4D4D;" parent="1" vertex="1">
          <mxGeometry x="150" y="20" width="900" height="280" as="geometry" />
        </mxCell>
        <mxCell id="HoR1vHi7_22a5zjNR-c4-5" value="" style="rounded=0;whiteSpace=wrap;html=1;strokeColor=#4D4D4D;" parent="1" vertex="1">
          <mxGeometry x="810" y="70" width="200" height="190" as="geometry" />
        </mxCell>
        <mxCell id="pbOQcnThbagH4nvjm6GH-1" value="" style="rounded=0;whiteSpace=wrap;html=1;strokeColor=none;" parent="1" vertex="1">
          <mxGeometry x="776" y="40" width="60" height="60" as="geometry" />
        </mxCell>
        <mxCell id="HoR1vHi7_22a5zjNR-c4-3" value="" style="shape=image;verticalLabelPosition=bottom;labelBackgroundColor=#ffffff;verticalAlign=top;aspect=fixed;imageAspect=0;image=data:image/png,iVBORw0KGgoAAAANSUhEUgAAAMgAAADICAYAAACtWK6eAAAgAElEQVR4Xu2dC5hcVbXnf+tUdycNmBBe4akJgjwMCkZAERUUmPFeHooDPkEgSVUnCAoq6vU6mBlGULjK5ZWu6vAY0IGBqygf6Ahe4QICKi8lwICAqAko5AUGCemus+63zjkdiqaq65xT76q9vpzvVFetvfba/73/OY+991qCk65FQGGGwJqubWATGiZNqMNV0SIEFPICuRZV3xXVOoJ0RTeWb4TC54B1Apd2cTMb2jRHkIbC21rjCocB/xv4oMAjrfWmM2t3BOnMfovltcJOwJ+AHwl8JFYhp/QaBBxBunxAKGjUxLkC93d5c+vePEeQukPaXgYVfg3sC3xT4Gvt5V37e+MI0v59VJOHCrcCBwGPAW8VKNZksMcKO4J0eYeXEMRa+jGBa7u8yXVtniNIXeFsP2MTCFJw8yLJ+sgRJBleHac9gSD3Cbyz4xrRQocdQVoIfjOqnkAQBPvnJC4CDqy4SHWonsJDwJwS97cWWNmhzWm6244gTYe8uRUqjAGZklp3l/CNlpMYCDiCxACpU1UUdgUen+D/gQK/7NQ2NdtvR5BmI97E+hSOAG6YUKWbUU/QB44gCcDqNFWFLwHfnuD3bIGnO60trfLXEaRVyDeh3olvsKIqpwu82ITqu6IKR5Cu6MbXN0JhZ+DJCb+8KDC9S5vckGY5gjQE1tYbVTgd+JcJnvxc4NDWe9c5HjiCdE5fJfJU4Q7gwAmFzhH4aiJDPa7sCNKFA0Dhw8D1ZZr2aYHvd2GTG9YkR5CGQds6wwq3AIdM8MCWue8mr38uaZ2jHVCzI0gHdFISFxU+DVxVpozbdpsEyEjXESQFaO1cROFu4F1lfJzvopsk7zlHkOSYtW0JhS8A55VxcG10e/Vc2zrfpo45grRpxyR1S+FgwmeP0oWJ42aGBRYmten03d6ArhgDCpsDN0fBGSa26WVgP4FlXdHYJjfCXUGaDHgjqlMYpnKI0fMkXJPlJAUCjiApQGunIgrfAM6s4NPzwP4Cf2gnnzvJF0eQTuqtCb5WIYdpL5aQQE5SIuAIkhK4VhdTOInJg1I/YEtNBP7eal87uX5HkA7sPQ0DwVlAuMnkEwLXdGDz2splR5C26o7qzsQkxzUCn6huzWlUQ8ARpBpCbfR7THLYLZXdWtktlpMaEXAEqRHAZhWPSQ73YF7nDnEEqTOgjTCn8DHiPU98X8LFik7qhIAjSJ2AbJQZDVMWnBXD/q+k/CLFGEWdSiUEHEHaeGwoXA6cEMPF1cD2Aq/E0HUqCRBwBEkAVrNUFXYA/i/wnph1vlngqZi6dVNTmCqwvm4G29CQI0ibdUr0MG7zFzNjuvZegTtj6taspnBktCjydwLX1WywzQ04grRRBynMB0YSuHSwwG0J9BOr2lUCOBr4aHQ+O0rnti6xsQ4s4AjSJp2mcA7w5QTuNIwcClsC/wgcHh2DwE+BsyWMltIz4gjS4q5W2A64APhvCVxpCDkU9iecgbdjm8ifv0RXjAsT+Nc1qo4gLexKDeNW2cDbO4EbdSeHhoT4OOHzRanYWzTLjvtEAv+6StURpEXdqfCZiBxvSOBC3cihMLvkalGaYMfcsWUqdjvV9Q/h1bB3BKmGUAN+V/gfwNcTmn6LwO8TlnmdusIHo6uFXTU2LWOvpx7Cq+HpCFINoTr+Hj382i1VkpW2K+wWrNa0adHzhcXrPbZCk3ryIbxa9zqCVEOoTr8rzAUusQAKCUxalJIjapkh13A+xcIBGTnKRTwxd74k5cMFJXC1O1UdQZrQrxq+Mi3YcpAE1Y0IZBPol7udOjkihqVCKCcW6eSLAj+rpZ5uLusI0uDejSb/8oCXoKrvSPi/firRMMWBRTKZLNXB1RE5nklVSY8UcgRpYEcr/DPwPxNWkTrQgsJOwBnAZ6vU+U8C9jDupAoCjiANGiIK3wU+n9D85wX+NWGZQF1DUhg5jCSVxNI/2y3VjWnq6MUyjiAN6HWFK4HjEpj2gePT5O7QMKWakfHEKvX9W0SOPybwq+dVHUHqPAQ0/N/ZHsrjyirg3WnmODTcIGXkKBfNvbT+MyWce3GSEAFHkISATaau4bZY2x4bV5YJ7BVXuVRPwyuGkWOypJwWl9euTHb1cJICAUeQFKCVK6JwSrToMK7F2ySMyJ5YYkRUNJuW6sBiY/0icQWuwEYEHEHqMBg03BZrC/viSqPJYbsLdxcYjeuQ0yuPgCNIjSNDw81EP0hgxjY4HSJgOQMTScwrhwvekAjVyZUdQWoAU2FP4P9VebVaWsOvgKME/pq02pjk+INApVnzpFU6fVwCndSDQMN1TbbAb7LZ6lL7RorDBH6XtNKYW3FfAg5IYz+pP72k764gKXtbw41O1WasS63b26Ry2Wcn9UDB9mr8e8kOv0r6J0my56CULe+tYo4gKfpb4TCSLfBLneVJ4cdldvpN9NoFq07Rj3GKOILEQWmCjsL3gE/FLHqzwH+JqfsaNYV/Av5XlbIWNO79LgdhGoSrl3EEqY7RxEG7D3B/gmL7CtybQD9QjV4APByj3LkSrsFy0gAEHEESgppwEeJVAscnrGKcIJZ3ME76NMtg+5s0dbgy1RFwBKmO0UaNaDn5g8AWMYt9QKpngiprSuHPwI5V6kl9+xbT/55XcwRJMAQUjgJ+FLPIjwU+HFN34m3cMcC1McqmfviPYdupuHmQZGNAw1zklpM8jqR6rRs9f9xlK3xjVPIRiU/YGOacykQE3BUkwZiIOZttFi0N2nYCLyYwP/7ssRnwt5jljnWxq2IilVLNESQBcApLgKEYRWq5vdqF+PGvTpdwybuTBiHgCJIAWIUfAh+JUeTjEub3SCwK7wVuj1nwUgkjwjtpEAKOIAmAVbieeA/ecyXZXMlGLxTiPqBbmd9IsjhbCVrrVA0BR5AE40DDIAxxbmlmCzydwHQpQZJsvLIFim8UsNl0Jw1AwBEkAahR+M57YhSZnuYB3exqGA/rvBh1jKt8Ok2whwT2e1rVESRB90dL3FcCm1cpNpB2N18UXPrnCdxyqZ8TgJVU1REkIWIxo5Zsm2ZTVHQFsYQ6SaMduvmQhP0YV90RJC5SkZ5CnDVSewo8mtB06XOIxa56Y4LytvzFcoesTVDGqcZAwBEkBkilKlHiGRuQ0yYpeqDALxOaLiXIDRbVPWH58wVOS1jGqVdBwBEkxRDRMKegvW2qJF8W+HYK00ERDcta8Omk4m61kiLmCFJnxMIB/E6bg5jEcuqwPhFBLFLi3Sk8/y3wQQGL1uikDgi4K0hKEBW+D3xykuK71pL8UsOZ+ErZoCbzelhgYcpmuWITEHAESTkkNNxGayF/Ksl/l+SpDzbaUvgQ8JOU7n1GwgDaTmpEwBGkBgAVLDFOpSxQ9ibKlpykvt1RuDlBWKHSliyPbrUer6F5rqhbalLbGFCYAVgeQcs/WE7OEDg3bS0aBoawABFp5DpJd4uWpq6uLeOuIDV2rcIhEUnKWbKENe+QcH9IKtHwZYC9FEgjiyRcou8kJQKOICmBKy2m8GXgnAqmTpUwyFwqUfivUQTHNOVtsvJdadeFpamw28o4gtSpRzXcQ25L1SeKvXq1q4hlkUolMeNjVbL9z1I9tlYqv3qhkCNInXpZw6DR9lZr1zIma7qKmD0Nk+B8NIW7T0h5n1KY6r0ijiB17PMo/bKlYBuYYPYvwHtrnBexrbj2QmBWCpf/QcJA204SIuAIkhCwauqTRGK/XOCkauUn+13Dt1JptvJeLZNPatbiVleXdQRpQPdqmDDz62VM1xyFRMOXAfZSIIk8JPC2JAWcboiAI0iDRoJCAVgwwfwDwPsE1tVSrYbRGg9KYGOVwFYJ9J1qhIAjSAOHQoXUBWdLGLU9tWhIDiNJXNkgMCWustN7FQFHkAaPBoU7gAMnVGM5Ci0pTmpJEMTO6nhaYHbqynq4oCNIEzpfwxBAljZhXCxXoZGkWbdadwsc0ISmdl0VjiBN6lIFW3bylpLqLhD4XC3VK8wDlsawsVjipVKIYaq3VBxBmtjfCrbKdoeSKj8l8H/SuqAQN0ypvRiwWz0nCRFwBEkIWK3qCmtKwgbZknjbAfhkWrsKy4C3TlLe5U1PC657zVsDcjUUVdgA9EcmrhX4WFpzMfbHf1Lg6rT2e72cu4K0aAQoWN70baLqTxa4JI0rCv8CnF6h7I8kXrDtNFX3RBlHkBZ2s4avej9AeIv1tjT7RjTMjX5CmWY8H01K/v8WNrHjq3YEaXEXltwinSXll6dM6qFCpRhax0n63YgtRqV9qncEaYO+UFgcra96U9KQpQqPAHtMaEbNr5DbAJa2cMERpC26IdjvYakVZkl4jiUV4nPdInBYLANOqSoCjiBVIWqegsJngLskZgo2hbOAr5V4eJFMHvGxeY3pkpocQdqsIxWOlPC5otqzxybAnSVLWNxseTXQUvzuCJICtEYX0XAPu63fqigTFis6cjSoUxxBGgRsI81quPDRrh7rgS8IXNHI+nrZtiNIB/a+ws8Au8WyNNCTBdHuwNa1l8uOIO3VH1W90TBSowVuOEHAkng6aSACjiANBLfepqNYwL+XZEk+6+1GLHvzR3Su5/NeEXZQZXMRNrcz8BTKfX6G+5YukPtiGWuhkiNIC8FPUrXCXsBzSScSk9RRq252iX4Dj3dYiKMYiU7Hq7M3dhZP7M5CTh6q1Yd6l3cEKUF0/ojOzBSZq8p+eEGQg61U2Vrss7KNCn/y4HZ8blfh9kJOXqh3h3SivflL9CDJcKYo71bhbtFg38tyVaaJsKOFPy1ZmDlZEwuZIl9ZskhsS0BbSM8SxMjg+bxdhbeJ8k6BfaPoiKUdY+kHbjIyjGTF8hI6mYBANq8WbnVP4PY1M7j9umOlWA6kBQU9UpR/nCRdRFhMuU89vjKSlSSpsBvWLz1DkKElOsv3OBzYT+HtleJEqXIbHjd5Pj/JD4mtc3JSAYGTLtU3XDZP/pYEIHs2kSILRYLtwpPJsYWcXJfEdiN0u5og85bqFpkiR4hwuGqQNbZs6BsRfqnKT0S5KT8kFmzaSYMRiK4oP253knQdQbJ57VfhcAkJYUf5gGnKiyjf1Qw3jWTFzSU0mBDlzGfzapl8J80GLMr780NyewvcC6rsGoIsKOghHhuvFBZpvaKocqkH33G3UK0adq/WG735OnMST24u5MTyQbZEOpogQ0t0n2KGo6OrxdtjIPhT9fnXkYViM9FOEiCw8BLdbayPOVJkLzzyhZw8m6B4RdVjrtWBGWuwK8T+lZRE+EI+K9+pR31JbXQsQaL/eewSbUsu4sj5hZycFkexl3WGluqcsTH28oQ5EBx7IUyhyEg9iVGKcW5Yj1LhRxVxFx4tZMXelDVdOo4giy7Wbcf6AjAr/o9TAcXTCjk5v+kIt1mFiy7WnXSAWaNFZovHLNFg2YodFpr0dblHVLlEhG8VcvKnRjYlm1fLoTKzUh2ZPnZfMk8s+F5TpeMIks3rV4CzU6J0hl/kZ0sXye9Slm/7YiddqNtnpmwc+OODfhbCLDQgQSZOI1S4zfP5Vn5IJssFH8dULJ1sXi2v+3GVlFWYN5KVy2IZq6NSxxEkV9AlqgzVgoHCMwKWiuB+Ue4a2Iy7Lvy0vFiLzUaUPeFyndo3xvRMkWnA9GKGaTLGdPGCGepp+ExXYcfgKiDM8mG2vD67VSLXFJ4XgiuGhRNqmlR9WPdZXFgo32iaQ1FFHUcQ8zs7rPciFXOTp8JQYa3Ac7beyQ4VnvPsrDynPs9r+H1syUgQGG4TMsEz0ibqs2n0vBT8HXynbIoXfrZDfKZjAx+mQ3CemMotdv2JFO2Vt/BrER70YWQkK48nKl8HZUeQOoBYaiI7rNlg2UKdiVJnN9vTnPCw+twjwj2iPLjtszy4eLGMtdJZR5AGoZ8bVlsgZ4vhDgU+1KBqOtXs06o8IiEhHiHDw+tf4JGrviRtt48km9dKabTHsf9is2/7rOKOvMWabLQG+xCKzA2uLBqdO3V4T+63xfddIRKsmn317LHcV/7YrkSo1KRsQZehlYNw+z4HL10otzW7K7uOIOUAzOZ1OyDOMR5Qutn98Jr6BF7UaPDjswKP5XYWOxdZYcQYXiiJnola2qAqlQ8t0Tm+R+W9IMrYWD9bJF0YWY829wRB4gKVzaut29rO99g6A1N9ZRCY6glT1WdQhakeTFV9/WeJdE1HNNgKu06EdRp9Jtweu85XXsrAOhXW+T4vZYR1xSIvDUTfrfwrL123WOzq0DOSzevE+F4T2353ISctyZDlCNIzw7A9G3rad3TwpU2Dq8ebK3koynH5IfleK1rgCNIK1F2dGxFYMKyniHDBJJDcUMjJUa2CzBGkVci7ejnxEt25L8MdAttXgqNVD+fj/jiCVBmo2bxOd3vPG8PmBcNaEGFBJeuqnDUyJF9vTO3xrDqCVMBp/rD+w9Ih+Uk8GJ1WUgSivew291FJ2mL1tSNISfcMLdH9fI8jVfj1SFaqBpBOOiicfohANXKIckd+SN7XDnj1PEGOv0i3nNrP8SpY1I2DLJxnISffbYfO6UYfcsO6pwoPT9a2Qk7aZly2jSOtGAzzh/V4Eb4iUYYmW+I9kpWDW+FLr9SZzatO0tanCjmp+Lq3FRj1JEFyw7qrD2eJcGwp6LY5aGRITm5FR3R7nYuW6i5jRX4/STt/XsiJradrK+lJgmTzegtwSJmeeLCQE0st0JWy6GLdbLSfuRYoD1hSyMnfm9HQBQX9kCiTvfAoFHKSa4YvSevoOYJk82phZmwve3nxWYzHVYWcWGrmjpVsXt9sRFAJCDFXhb2BLcYbJMItmT7mXXKS/LmRjcwV9BTV8hOBCn8UOLeQk4sb6UMttnuOIAsKemv0MD4ZbraG6nsZj1+NCQ+1cxTyUy7QKRsGeIcP+3iwd0AEZR+EvhgD4wFf+fLSIbEral3lhIt12/5McBtbKYLi+Z7PecMLxRZftq04gsTrmldQlgk8q8JaEdaoslaUtb7H2gys8ZW1ns/asT7WbtbHmvNPlLXxTJfRUpUTL2erTDEMoC0aniceolj8r91T1/NqwYv6+vl2va4m2bx+GOGscsvXRbnR9zhvJCv/UQe/G26i5wiSzaulSG5WXKxRYIPCqICt0A3+js7hb8qoCBtUkBIibNnwnn99BStFuF6KfHN4oTydpn6LakmYefeMMuXvUuHSVgReSNOWjbeitRTu1LLZvFokv1NL78k7tS119nutKveL8IDnc1ESotiDOD5fFQlyg2wUUa73Pa4aycr1dfa1KeZ67goyjqq9dhwd41QRTmkK0u1Zid0G2i69u8XjAfV5oJCTlUlcXVDQvUWDlx6fLCkXPMPZy46RrNyVxF676fYsQcY7IprZPQbhmMm2fLZbx6XyR3gC5V7gV9GkaOqcJ1+8Ujd98WW+BZTOG/0HfpA+ouPfAvb0LValwRWtEbKZdEt3tm+ldAmpBmfzCy0X4Teq3Csev/FGubdemZuyef08YDGqLDzRNSrcMjbGbZcvkqea38zG1tjzV5BK8B5zpg7M2J456jNXPPYRZY6G8WpnNLZLElu3gA2P+T6P21mFx/r7eeCSE8VCedZdovA8O4lyzba7cevig1sbLqjuDZxg0BEkIcLzR3THTJE5eMxRDTb6bCXClr6dfbZCsDdQ9j9rWhlDeQHBng9eEDv7vGCvl+1v+zxOhL4xHr/kZFmXtqKk5Sz4Rb2iuietu1X6jiANQP7MM9V76s0MDr7M4OgYgwMZphYzDHo+g77PIMr6jMfLns/6DQOsF2X94CAv/2WA9dcd21sBGxoAf11NOoLUFU5nrNsQcATpth517akrAo4gdYXTGes2BBxBEvZobkQPzS+o/+K+hG449SYh4AgSA+gg3q/P53yPLy1dIH+NUcSpdAkCjiCTdGQ2r7Y33SbFvlbIyTe7pM9dMxIg4AhSBqxsXm1dka0vsk1GjxdyslsCTJ1qFyHgCFLSmQsKeoAoXwCOHv/aBXLootGeoimOIBFo0XOGLeR7vfgsfnkd57Zj4plKfT5/RGcyxh6tyKmRYhy2bRFHkDCQmeUItE1UB07SU7aJ6DrL573ZOh747unycjv0qu09t12FKuzh2VnZgzCMUbBmTIRLVTm70/fYtwprRxBg/hI9yPO4NUEnBFtwkSBTroWyWa3CKs9n1ZiyOuOxas0MVtVj2cjCS3RGMRNkst3BMtrisyMeuyvsIcLuaIxEn8IGipztwRVJNkElwKNrVR1B0hEk7oCwhYSr7LBFh6q8AuGhwiueH57HvxNBVNkRgmOH6GxXt3qJLXi8AriskJPKGZ3qVVsX2HEEiToxRhLJLujuV5sgwhX4FPJDcndXNazOjXEEefUhfabn05A9FHXus3qb+wFggdturrfhbrDnCFLSi7bXw/OxqO5dG11xwqBdLcJV0ZXkkW4Y0PVugyNIGUSjXXOfAN5Sb8DbwN5qUX4qHtcMZ+XGNvCnrV1wBKnQPVHEwk+qBNE6ysXxbeuOLXVO4QmB21X4xWg/P7jiRFnfMc632FFHkBgdkBvWdwNHqHB4FNAhRqmWq/wUuFmUO/NDUn4CtOUutr8DXUmQeUt1C89nK7/I1v3wdD3jv0aRGQ9R5a3iBXFwKyagbFb3C/xZYRmwTIVbp67nFxeeKvb62EmNCHQsQY65Vgemr2R/L8NBKnxAlK1LYtdmJuKiypUeXJkfkn+vEbPXFB9aorPIMMcvBpHUZ3sw287RHEY9q3pZYQXCcrFJSljmZVjmF1nWaUlGT7xAt778VHm+nuA0ylbHEORTF+i0wQH2F9hfhAOAD5SJW1UEbrV7bYo8Kx7PeBmeyazn2Ys/KzZh1zSxsEFbzWT2aD87iLIJRWzCbxPxGLRzcPi8jsgbHfRYrsIKHWOFDrD80vmyumnON6Gi3Ih+ogjLly6QO5pQXeoq2p4g0S3N0QhHE14lJsqfALvfvr1vjBuaGQYnNequYIBANq+XAX2FnBzfrpC0JUEsRRoeR6vy0SjC4evws2XoFrxsyitcfeGp8mK7Auz8qozAgoJ+VJR/A75ayMk57YhVWxFk/rAeKjBf7GpBxQQwl4vH1W5feDsOp2Q+LSjoIlEsu9RDhZy8LVnp5mi3BUEWXaY7jY0GOSU+W6nZItzhw9kjWbHbKScdjkAQNNzj2ihguCNIpf5csERPEA/L1zFrkj6/s5CT1+Sd6PDx0dPuB9sLMlxUEk3f3WKVGxG5gl6uygnVRouvHNaIPHrV6nW/1x+BaBmP/YcYiAiX5LPtm3q7ZbdYuWE9X4XPxeoCn8WFhWLh9p10IAK5YX2frURAOEKhNADGaYWcnN/OTWoJQaLbqssTASM8LDBiCVryQ/LbRGWdclMRsKxTljbCE/ZRYV9R9pvgQMH3KCTNHmx2R7KSOulPGhBaQpBsXm0PwsbIISkcv1+V21BuHlkozUrImcLN7i9ywuW6ef8o78bnADzeIZaCGrar0PJUxDBbltyokJPrmo1oqwhiqbvKZUJN3n7heTSYE7lhYAM3uDmR5BDGKWGBLYKlND47+7AzHnuhHCBhgIjKotyH8EN/jOuXniyPxqlroo6RI9PHfUvmNT+DVUsIsqCgts8iL8pBaQCbtD8kSEr55PihwpNjfTx5RS15y+vtZJvaW3Sx7jTaH+Ren2052FXZWcJ1ZfbdtgnctkSgP/SEHw5na7vCR2nxDizkJN7zagIn46i2hCDjjkXpmD9uYWviOFujziojy0Ty+B5PXjZPnqnRdnsWV5WhYbZWYSvfCxdzej5b47GVKlvbYZ9FeZORArA856lElF+ocofC3VNHubvWK3k2r1tF0S3PGH2FbVq1uLGlBLGeOPNW7fvLY3xcBSPKuyBIYdZcUcZUWCOwhuhQDT+LhGf7nSJrFNZkJPx7rI81l82Tv9XqrC1sHNiSqQObMWXw5SAb1VTpY4qOMVUlPESZYmeK0d8eUzw//AxsGqSCiwZ8MPDBBpgdjZL7o4Wht0xdXzshSp3MDmsWOB1hNxXOGsnK1xvViGp2W06QUgePuVYzW6xmH98LHvQOFIuNq+wKwQpYJ61DwK6w91j6aFHuWb0F99Qj5tfE5kTEyCLMDX5THpuygbe3cm9LWxGkUv8PLdEdxmBXz2MXCAizC8Iujjx1ZowlClWeUuUpPJ6kyP3icU8hJ7ZiuiEytETtP8TDUY7aSIywpidVOKXVS4s6giCT9UxZ8sAbgZkIM2NFHmxI17et0adVeFqMBOEgDM4DG3iqWXtm7CWN53N4tIXZ8tK/RlQZ3v5ZTlm8uPUppjueINWGoYXuHFW2xWNmRpipRhqYKfbZvjcidReZAgJ48LQW+aPaGZ7uC7ceW3zhlsjQEn2PD4dqhvdXfHspPKrwtZGsXN8SJ8tU2vUESQL0cefqpoPTmGZ5zj2faWPCdPGYZp/VPgvTfD88m45ocLbdgf1qb4AkOsK3QeERxs599e/w8ygWL1cZVRgV2BB8V/L9+N8qbPB81uCxGj98OSBS8lmDuMBrMkVWL1kk9kKhbWRBQY8Uu3UKd39OthjVfL64b4yvtNuGN0eQthlOne1IkD6iyNzgOUKjc4wmqfLrjMc5w2101Sh12xEkRic6lVcROOUCnTbaz+6+sHdSMpTg+LAqN4pwYyEnd7Yzvl1HEAv49rc3MOhmzmsbdvOW6pu8UXYXL1h9axO5u9u8RA1hjv5ghPCL3NRJ6+e6jiDjw8ISy6hyugjvAR4V4WEfHgYeHsnK47UNn84vffJFuuUrU4KIK8ER5R0JyCCwm9Zn7uk54EbPiKHB1cKeszpKupYg470wtES3UduHEEZFPAI2htqx/9GeUA3yd6zEZxUeK1VYqT6r+pSV3hRWjo2yqpCTv3dCrx53pW666UtsXsywuSgzRNnW9yICvJpvxPKO2GEz8PWWB0V5WAULhP3IJgPcdn6Hr4HreoKUjqSfDwwAAAFJSURBVIDgqhLG1Nrbg71Vg6UtcRLUWLq11djyE3uDZJ/BIqOvtiUpoqz27S2TZZoqMhZ31Hkeoj4DZOjP2Jsw+wz9vseAKP2qDHj21ssLP6uyqQibA5vb2feZMf53lHIt9VqquD5HemtVMDI8qMJDRojBl3mk1vVXCX1oinpPEWQiotm89quwt/jsg7B/tBZsz6Yg3/6VrLYojigrsIiOPivweND3+O3SBfKH9ne/Ph72NEHKQWgP+a9MYUffZ6eMsKPlBVRlJ7H8gLCjwk5C2QB29emR5lixQb/cBr4qK0SiKI5FVgz0s3zKi6xolySlzYGjci2OICl6oByJoknETUSChZVBeFFVBu1vO3xlEwm/H7SzWjjSUDetWKxeW4Ec3trZBKJNGtotX3TrZ5OLwXfRb8UMa7othGla8OKWcwSJi5TT60kE/hPEM4xQEbUrzQAAAABJRU5ErkJggg==;rotation=-15;" parent="1" vertex="1">
          <mxGeometry x="792" y="47.860000000000014" width="44.27" height="44.27" as="geometry" />
        </mxCell>
        <mxCell id="pbOQcnThbagH4nvjm6GH-3" value="" style="rounded=0;whiteSpace=wrap;html=1;strokeColor=none;" parent="1" vertex="1">
          <mxGeometry x="916.75" y="30" width="60" height="50" as="geometry" />
        </mxCell>
        <mxCell id="pbOQcnThbagH4nvjm6GH-4" value="" style="rounded=0;whiteSpace=wrap;html=1;strokeColor=none;" parent="1" vertex="1">
          <mxGeometry x="786" y="145" width="44" height="50" as="geometry" />
        </mxCell>
        <mxCell id="pbOQcnThbagH4nvjm6GH-5" value="" style="rounded=0;whiteSpace=wrap;html=1;strokeColor=none;" parent="1" vertex="1">
          <mxGeometry x="1000" y="90" width="40" height="50" as="geometry" />
        </mxCell>
        <mxCell id="pbOQcnThbagH4nvjm6GH-6" value="" style="rounded=0;whiteSpace=wrap;html=1;strokeColor=none;" parent="1" vertex="1">
          <mxGeometry x="995.5" y="201" width="34.5" height="39" as="geometry" />
        </mxCell>
        <mxCell id="pbOQcnThbagH4nvjm6GH-7" value="" style="rounded=0;whiteSpace=wrap;html=1;strokeColor=none;" parent="1" vertex="1">
          <mxGeometry x="795" y="240" width="55" height="40" as="geometry" />
        </mxCell>
        <mxCell id="pbOQcnThbagH4nvjm6GH-2" value="" style="shape=image;verticalLabelPosition=bottom;labelBackgroundColor=#ffffff;verticalAlign=top;aspect=fixed;imageAspect=0;image=data:image/png,iVBORw0KGgoAAAANSUhEUgAAAMgAAADICAYAAACtWK6eAAAgAElEQVR4Xu1dDbQcRZX+br833UFxUVdQfqaHvzA9ISC7soi6iC6KKAuiywoKqyvKLgiL+Lf8KCqr+IeIiyiKgIsiIgKCgIBwQIRVQP6WkMxMwk9eTwIRJBAJJN3zpu+emjeTzJvMvNddVd0986b7nJyTnNS9deve+qarqm99l5A9mQcyD/T1AGW+yTyQeaC/BzKAZLMj88AMHsgAkk2PzAMZQLI5kHlAzgPZG0TOb5nUiHggA8iIBDobppwHMoDI+S2TGhEPZAAZkUBnw5TzQAYQOb9lUiPigQwgIxLobJhyHsgAIue3TGpEPJABZEQCnQ1TzgMZQOT8lkmNiAcygIxIoLNhynkgA4ic3zKpEfFABpARCXQ2TDkPZACR81smNSIeyAAyIoHOhinngQwgcn7LpEbEAxlARiTQ2TDlPJABRM5vmdSIeCADyIgEOhumnAcygMj5TZvUknzuXALtCaLtCfxyACYAERcG4DPoOTAvZ/C9C2r147V1nCkK5YEMIKHcpLeRAIVBdDiAv46qmUGrCLjGcb1jospm7aN7IANIdJ9JS1Tt3M0M+gcAhrSSjYIMwrLcq/y9droPazToy1T08EAGkASmRSVvngmCWB7Ni6G7gIFbSq7/jhh0j7zKDCAxToFqwXonM/4H4K1i7KapmoB1DeDcBa7/n3H3NUr6M4DEFO1K3nwQhNfGpL6vWgL9aZLw4V0nvBuS7nsu9pcBRHNUK7b5CwCHABjXrDqaOsZDTs1PHKDRjBz81hlANMWoXLA+DeYvELC5JpU61EwycE3J9Q/VoWwUdWQAUYz6sp2xYLJu3UDMtqKqOMXXsoEzSsv9r8XZyVzUnQFEIapV27qDwW9qfdhT0JSUKK0YI+/g+RN4IKkeh72fDCASEVxqW+cF4KNaX70lNKQqwsS4u1jz35CqFUPSeQaQCIFaXJh3xBgH5wB4ZQSxgWzKQB2MS0o1XwA9e/p4IANIiKlxObDZ7rZ5PwAnRPOkmrwA4CUalnfPERmfKU6svyApw4epnwwgs0SrYpvXE/AOBsYGJLAMxo0B+DGD6DhdNhHwiGn4++ywHKt06ZwLejKA9Inikrz5JYPwydav9KDE+rFJw3/TwuVYVbHNtQBeqtmwgMC3Fd362zTrHVp1GUC6QlfNj+/DNPZzgLfWEVUGniXgFYq61hPTqcWad7bQ88iW2HlyM3OZos6ZxNcz83mlWl38QIz0kwGkI/wV2/wjgNdpWNdv0MrACyXX33ypbX08AE4G+DURZ9w1juuLL/MbnrJtLiZgQUQ90ZszPY0xPtpZ7l8TXXhuSGQAAVCxzZ8AOAxALqawnul0JBFW89ZxTPxpAIX+YKRVRdfbUSQhdttUzpt1okRTWR52XH+3mHwz0GpHGiDVvPUxEH+FgS1ijRLT007N65nR2w0WAhoG0wnza973etnUumylbXMeYdwNANd1v80iyA9l05EEyCPbID85bv4WwI5JRY2DsSNKK9ZdOlN/AizFmvfdGdvY1ioGvzopu3v084JB+PouE/6XUrQhsa5HDiAVO3crgfZlPbf6ogRqmeP6u0QR6G7b2pwv1blHkreHVo41vEPnr8Rd8joGX3JkAFKxc2cz6FgCrDTCQkCAwLeLK7BStv+KnbsFoP1k5WOQE99k7nVq/l4x6B4IlXMeIJW8+W6AfgjiLdP2OIF+V3S9fWXtqG6HbQMyryDCnqnfN5k+iDqAyxzX/6Ds2AZVbk4DpJw3FxFh4QA533dcX8sbrFKwPgMWHzIjHxvH5g4C1hhMp/Y7YIit4xgVz0mAlPPmVUQ4GIOTHiJCyAz8oeT6Ij1e61O2zesIEF+/tYBP1TgCHgt8f7/SKixX1ZW2/JwCSHl78xQKcCoG61afiPEaYvrsbCdUqpNhacE6MGD+79bpXNqxZTDf7tTqb1UdV5ryaTtRy9gf3x57eIF1LcDbaVGoUQkDv4/jrdFtYtWe90FG8DYwdgdoWxD/VevDZ9ox9gLmC4aVFTJt5ylPxYpt/h7A3oNx9LlxOCLFxGA6SfdbYxoQCOIHoQ0EZV/GqYAZzxCNfcxx110eZz+6dQ8tQJbkrQsM4n8ZyFt9jHucmv96HcEq27lzCCROh0TmbrpMKToGBJQnXX+PhYCvR128WoYOIFV73ocCBGdryJCNw7M+MX1S51sjhbyrOPwyTadIpwmAG0uu/4+xd6bYwdAA5N7XYYvN/2zeA4bS12hFf/UXZyx1an5RNBCXqxbnrQNzxHszsBCMAhNtReCXtU6axOUrIsYvizX/vf2Ulm3zKwScEpvN6St+EYxvOTX/tPRN6W3BUACkkjdvBOHtmkifdceiQaA/B+CXtb7SC2LqsH5lx/X7EllXbNMbyCWkbg+CnhwLGu+fv2Lydu2qFRWGDaRiN3LiVdsUmbYnAthMTsNQSC13XH+HbktbR9ZfSWEEImv3VMf1v1EpmNUE39iiHsoDjuuL+zgD8wwkQKr2+H6MsUvi/krMjMnOSBA1yxLoKE0QKcBjTMd1f32u2Ka4BxIHG3xf2wh8c9Gt79/ZoLINijRu3sNTp2WxPyImBvCLYs3/QOydhehg4ABSsc37APxNhGVKiGEiIOD5AFjJzLdRo35p6QmI4+GejwBog+k9Bhn/DDRzuOL203rH9Te8JZflrY81iGdMew8z6PBtaIXjevmZ2i8tmKcx4wtJkVcQ8BcGfcFxvW+HH4f+lnEHPrTF1bx5aQD8s86bcsLJBFy7i+sfGdqQHg2FbUxNQurYlnoM/KZd46Nim21KHxWzw8iunwzoPQtXeDeGaSzalO3czQRKjtSBaILIO6C4HJWwNupslzpAltrWCQFYXL7R9gpvXlNl/n5RM+lA2Ta/CuAEmuKj0v2wZfjbTPK8/RocXKJbeZc+BtNFTs37qGw/lYI1geT4iJlAdxZd782y9srKpQaQRVthp9w88xYA28sa31OOscip+btr1dmlrGKbzwIQBTc1P/QE0EwRiY0hnhmLSpr8s8w2D20AFydIjeQD9KMk6zOmApBKPvdbEIlfA739M25wav67NM/anurSKpAjOzZBP/TClv4Oe8ZQz7BiWz8k8FEJ3tJcHcA4cYG7XpBtxPronaCzmFrO575DREfHkpY9AzFCXB6s5K0LQPyRuPRr0isuM31OHNtq0tdXTYs2SVzmSuqpjm3t7zX/bvwlrg4TAUjzVcx0HohfFddAAgT7L3Anb45Lfz+9Fdt8Mc7Nu8J4mMC3dB/bKugLJTp1LGzdniCxRADGzU7NPyCUgREbxQ6QJEjOxPKh5PqpMK5XbPPeFtlcRNfH11xcWCq6/k7x9TC75mrBPJUZn49ltdC7e/Hd6BzH9U+e3brwLWIDyBJ7/O0GjGsTclDPr9Hh3SDfMkWeqk2MFsfa9YAOi3JsKz/ycJKVvPlrEMSve2xzbbol9JTjetpokWIxulywPkXM3wznQi2tRh0gkwBd4LjesVq8GYOSim0+AiCpt5rnuL6WLIRYAFKxTZHPk2TKhjYyhKhzo2qbz3IsR77hLGndc39juNbpthJ70QC4MKG0FS0/mtoBUrXNMqdQaCZg/m7S1zpb3wFE2ecUHlq5dktv1ziObeMejDgWBvjDsZNqMF2o8jFU+EE7QFJ4ezTjKZLcSjU/LvLpnnOmaptrEvo1nNa/OJQIKDh014nJW+OezHHpF4WJALwzjjnYYfNqx/X/WmUMcQBEpC2n8giQMMaOXFBb9/O4DajkradSJ6PruKQV93h16Z/i8+L/SiJTWcePZhwASXr/0R07BugHcW1Yp+p88BkxVHeSnYOC/vMmp+aLX+OBfZYUsLXB1r0Ab5OYkYy1Ts0XtzilnxgAkhP5MokudXqPnlaA6fNObf2PpL3TITi1waSzeQCphVpm+gycVXJ9wQs2UE/Vtn7H4H2SNorBL5TculJeWwwAMVNbYvUKgFivg3HPOAdfjXql8/E98PL6avNcBg5KY68hM6HEeM1xf9+dHsMiGXmdMuW8eSYRPh5jYaKZzBWX4Vb0uq0ZZYxxACTtJdZM4xf0ny8YwCoGlgTMtc7GBtFrmLEtCK8iNDmntJylRwmItrYp7k+WbofXB0ZzE660QZb1BTEaTM2qxMpHvXEAJGifTAh6l6RuoMk6c47LiR+EXydJr1OxzQcA7JGiX8XtUTHugQVI5xJLbCADTKE5e9LzgODrOrldJTcOM8p58yIi/GvMx7Yzrg4garAAY6IWSyv1fiDfINMBsvFbi1gTzgVmwDjmVyI6xf6k8TJ/54WLsVpXh0sL5nsbjJ/EdMsynJmCfKOjqOmwAmRqsIxG9kYJF/e4WjGwuOT6ynVTKrb5GIBNKIvisruHXvGj2yTh6/y/4QbI1GjEq1AwECaZr5Vg3IaiK/Gmv9SRILSo2OavAByU4ig79xmbmDHoANmwSZ/CwAzpLF2vxhQdPoxdC9+KX9AXCfgzwBMM+geJgfgg4yhnYv1PZ5MtF6zjEfDZOplnZuuz683AAaMxW/+DDpBOQoOZAdIaPQOTlO1P+s0V8YPjAbSGwE8ysIyJ7uFx76YFj+LhtpB6VnH/exS3AZtvbZuiWlQqx7atMYbZwzbn22ADpGCeBobItWmtokInRI76iZf4frR249sAi5jod6UJ/6owv7IVW9MH2q7SDQNwY1L4RewxwizHpwHEcX3lzxjKCnoFr2Kbj7fofEK9Qbp0tJdosdgWZrLF3KYOpjVEXOv3Nojaf8W2apqra3HA/D2D6GNpHdu23gJi/kT5RCDmjgBSAAOnOsv9r0f1ZXf72CbhUtu8JAAEv6pkH1wfjJwuKReLwIqctNXgYCkID0Z5G0TtUdvbI2rH8bUXTCwy+XwNAog1gUMMT3LyhvNMxc59G6B/U2L9INTBUs4KZ6RaKwGE9SB6ipgXB0S3du8N1NTPLl3Omw8RYbfZWw5+i9ZedJNj29CWM+7J5fyP6sxDixUg7YGV8+aPDMIHFY51mRhBK78mtL80NhTZAC8gwJNEeLAB47okSMvC2D9H3h4NMAhT7PqRHwL96QnX2/mtwNrIwrMIJAKQtg0t5va/lR7E1EfGKAVqpLvqIShO2n5WdH1RL3Agnqqd+w2DRGGhYX2YQxzbzjA4j5g+pbPkXXdfiQJEdN4spfaUtUzpNl6ayy7C8wjoJKfmnZf2rKzYZuc3p7TNidi/0h5TAOvq0gzl6yIa07d54gDZ+DaxTgD4TJUSY6l+PyGasMjbe4flWKUrGFH0DAntaa8h9UwPiTD2quP6ToT2Sk21A0R8VIqyFqzmzSuZ8B6FAwOxURZ/pNavSt4DBC3/HUXX21dRT2Txim2Kk55hSv4UbzvxR8pmAtYYDf+A+StxV2RnKQhoB0jFNh91JGgvq7a5hIGS9FjSTVvxA+YfJkU7VLHN/wSgfMYv7evogrLHtqKnBjPOLtX8z0TtVpzwqZZ6iAMgdTZwWmm5/7WoA6puhR15XrMEm3TtDSbUKaVjYZFObhA+Upzwfxl17FHaDzBh9vRhKO4VW29nqaI54keEGWeoUkFpB0jVNifFbS4y/JJs2ayqbX4xYHx2tqS0WSZVmNydKPMyStvY1skPb2cdMG7wDVGMSaFtlPSQTcxj0BMl19tWxe5yvrkExcABpJM4LgiMjy5Ysf5C2YGW7dxvSO0Ys5lWn9L+RPR9o+P6B8qOv5dcxTafAZAKk32IcYh8OnEUL7XPEB9dCca/F931Pw7RV88my7bFdo0xc0LEfCh4sZjglib8guyAhZzqxRzhKMW3kYr56xn4esn1v6iiRMg2j8ifNp9T1ROHPIPrJE/3JID1M6fmH6FiW7lgThDDbusYVIBMO5tvJZ2JQ6pPOq7337IOqObxd0ymoNqU5zlSXBPL2i7kxNfeeuAdvHAF7pHVUylYy8Gs9GMj23dfOXWfPuy4vlKqTMW2TgT4LLFf6MzWGCaATB3BEp5/9St8+xUPQvpXsJrPnQWijyuwpaSaVk/AA0XXl8omGKS0khZjTdg09B77DDxrGP4bZfepQiEDplhyUutHs+MeSLO/4QPIRjdVHNeXP9KdWnb9LwAV2v82f5f2g4oQv9Ii9+jnUZYUymk6IYwK2UQ1PUQc4pyhuuQs580qEXbptHlYADKNWbHb6K4g/FTmTnSnjoptrVTje1VKeQg5p/o2W0tMJxVr3vdmU5QWa36nXUxcJ5anlW3VTFTKHavmzZ8x4fBe/pqLAGm+BonGPuC466TrbCzLW/sHxFczsNlsE63f/6ectuJa5L2+X9pKq1RAIuWte/lHOQ2daMKZ8LaXjY2Qq+Y3O5ypIco+9z0hm5MA6XDaM0XXzxMgijFKPVXb+gGDRZlp2WVTmvsTkbZyZ9H1NvkwVrFNTyVnTcqZU0IzsoeE0LuOCEeofjgNe7Q91wEy5W/GH52av1cI5/dtokx/OZW2In9xR8V4oB4wn99OW6kWrO8ys7j6mvSjkh7CYLpItbpT2TbvJ+Bvwg58NADSggkzf7tUq38yrHN6tavkradVarOnuuwCniPCUcwQH83kj7YjOlBDqs79juu/LmK305pXCtb3wHxM1JXAKAGk7TCPDBxeXO5fLevwir3Z+4Dm2tWU1dHin5L9OqzQbaKi4kKYoXDr8xnL8BeqpP8/tN34vqZh/EY2VsMCkF4fChVT0Wll0fUK4uxddspUbPMSKJFINFPq00qrlx12GDnVfddkg+iUXSc8pbLfFdt6EuDXhDG4X5tNAAKsLbkDV2HK7CSOa9KMKvwqTfMFg28puXWlY8KybS4mYIF0INLdn0ib3VtQ7YibgetVSytUbOt30FR9qsdcu9dx/b9TcZrsaU//DfJ04jitABGdtnh9v1F0/VNUBl6xmzlNW8jqSHl/Imv2lJx6eshjMnd+Oo1ekje/ZBBEuTjF1cVGrd0AGTP9Xec/giUqztIOEGFM1bbuYPDftye0rjdI10DXGkSH7zLhiUpGUk/Vnnc0IxAf6aT2F61CLWLZJyUvZbSKkDrpxbpxCv5xZ4Xy04+/Btt7pikmrfQ3qzBLLGJcXKz5ol6J0hMLQIRFS/Lmlw3CZ3UusXqNVLATllx/WspBVI9U8+ZVrWu/UUXb7dNMqw9js2oaOjP43JJbPyFMZ/3axJ1s2Z5rxPytYq3+KRVb27KxAUR0UMlbBxPxL2N6g3SP/1rH9Q9WcUrVNpcxsLO0jnSv/fY2W3E5RYy7izV/b2mfTOXNibe8KFMd63wTAGnw2BELausuU7G3UzZWg0VHD++KV46vNf8Anp5YpmsAXXomwfi6U/M/J6u/dedihcq3hwHZn4hj2zFRNF7GFwysdlx/a2pSqMo9i23rP8bAZ0nSiEbqlIFHjHn+G4pLRSkIfY+U82S6fzSPPetk3qKyMY7Q7+oxpvfPr3niTF3qWVywPj3GLIgRZDeR4ki4WTNPygB5IdXlXqPBdPyuNe/78iY03xpKhyCh+yY8P9YIDopa4jus/sQA0jaokjf/i4FTErnhx3jIqfmvDeuMXu3KefNGIrxDVkfr3kQybJCKSzwGriy5/qGyYxVyyuw0ITuf8iuf67j1E0OKSDVLHCBtK8u2eRMB+0tZHVWIcbVT8wX3lvSjvMFUnLyzGK5KUPG44/o7SjsHQIvN//0Kb9zQ3TPwh5Lrq9wFCt1XagDZ8EaxzUcBKAUn5Gh9Br6qclGnRUskqjqpHFGKY2Fdyy6lWioic5rZf7NTw70hfbhJs2W2eWgDEKk882R1hJVj0KrLXK9wusK+KGxf7XapA0QYssgef7sJ4woG/irqAKK3pyfRaBzhrJy8LbrslETZNk8n4DTJU5l2UaH1BFhym2heDyYTxEJcBmxCUBBJKH1sLdvWKgK/WtaPEeQ8Ap1QdL3zI8hoaToQAGmPZIltfsMARAavTNAjOUTlbviGt18+91sQRaUdbQGEG63JLf4t3irccerUjks7/0sUhmkeFky/i79BR/ixd5VYCy+4sWWrLJu4Vx/3/BHjv8Jx/ffJ2FneBm8sPYHfy8jG9gap2pZbdL0N1CsyxlXs3K0AvVVGNqKM+CW9SnVjGvHabzdAxLRvg6WFgbATLxJAxLGtUhHOcj73HYCOSeKAhYBy0fXlc+aa31+sFY7rbRdxTkxrrv0XQJAqM3CTahLb5cBmuxeschI0Nwy8OEb4yi4T/hmyzmzREt0BwJpFR9IAaTTI+NCuIco897O7vC3eYIyZN7BC7loEv67x4e+3uwtBQSv9lAvmqQhw+sAxK7apRwME+y9wJ2+WHmFLsJrf7DCmxgUqH+7C2iAoLxtoHLbQnbwzrEx3O0FLxESfmGH5kRhAiHFVseb/k+xYhJwgI0/oEEWwnXxTdV/UtDmPbUDmClGcZ+AAopN6tDOw5YJ1rsF8jAIfVpR5cp/j+ntGEehuW86bdxHh9T106ATIJEC9EiWXO66/g4r9VTt3C08tc2U/lIbvnvl2p1Z/S3iB/i3bOYDNtSpjcuAAUrXNxjR2Ow3Uo53uqNjWHWhlCutw6Aw6xMb5Ssf1D1Ppp2pbf2LwVh064gTI+vF1/m47P41HZG2u2ubnxYfcJI5tCbSi6Hp5WVs3+VEaZerRTmcs2RqFsZx1J4OVNmBhAsPAWjLwZZWa24KWqEF8besqaRwAETrPdFz/pDBj6tWmuh22ZcO6H9PBLKtuNrl1DTKOVtkXdf1oZtSjvTxeyVvHMvE3CXjJbBFR/X/xa1cPvH9S4dadTkvUeQIlfYo1CaYHUmeBCe9cQSP0U12FUIeVejQMs6Iy9ei0/YltXkzAkcmsl9VoiR7dEbv5DfNaYnH/mlonXpsCZLZ7NEyYMMf8g1RqgrdYCkXuVewXvpixSLXa07SYZ9Sj4X+W2i2refMu7r0xjq5sBokmGyRweRRu3V7qynnzSgLtAwpeAtBLW22aS7BugDT/TXiBA9xcUj2ZylvHgJqZyglkLmB1EPh7L1iBZTqCkFGPKnpxKq3e+hXAWyuqml2c8DyDTi9NeOLOg/LTzGtifhMbRs4IAj8wDJOIayr7n26jVGutRBikD8KXnQn/SxFk+jbNqEcBZerRTu9WtzdPQYDTVPh6wweWapbhHbzDcjwYXibZliI7gUD7JnC7U1zPFewz2jK1M+rRzrmigXq0a616pUE4JJGJwbinpHg9VTdsyvnct4jo2CSObUGYcCZ8JZLqrr1lRj3aZ0KwDurRTt2VvPl/IOyuewL20Cc4bS9zXP+DCfTVt4ulBetAZlzU9Q0mHpPErb6Ajpxf836lo4OMejS8F5WpR6eBZHvrAAS4OKGz/r8YoNN2cb1zwg9XT8ukfgzEYYVB9KOi6/2bDssz6lFpL6pTj07bn9jm1xgQVzVnSyyUtniDINHEWM57lyqBWRhDKrZ5OQBxczLuY1tx0iZIqpXScab9eGXUo2FCPHMbHdSjXfsTcd9cbCa1ZzV3jUSk1d8V1zXRJXnrE4bBp4PxMnUvzxYDWuXnvNe+9lE8paOvOKlHmXG36p5Q+8SoDAn1aDu4DwObj9umuHJa1BHwWXT4DL59C7d+yDbAi6r9LbWtjwdg8SbUtjGewaZ1THSariPtBKhHA8f1lS/eaQeIcHDZNq8j4EDx99m+CCtMEmXq0c6+FxfmHTHGgdgvvFLBpiiia4j5wqgMgFOp3LmfACSoXVVKOoSytcWof0PR9Q8KJTBLo+SoR+n4Ys37rqrNsQBEGNWi8zykxV8bW8q0DurRaWvhqeItH0li8rX6FcuvF4noGQ6C5QZwnwHjxrrhLRpn69BgivlcVAQWHz7FEip2ULT9oeNWX5dvY63z3v4xZuBrOu6VtH7gVTHWX75qj+/HZNwARi6+XjZoVqYe7bSxauduZ5EGEv/+JAHXRO7imXEK3qdCUj0NGAlRjwrWemfC1/oDEtsbZLqDct8m0PEJXHZSph7ttHvRVtgpN88UtyKVLh9Fnp7pCXgMPl+VpLptfoLUowERnVec8I7X7bpEANI2umJbdwL8Jt2D6KFPmXq0U2e5YB1vMH85oTvZCbhnky6YwHcU3XpUhpa+tiZGPao586J7QIkCRHQucvirtvU4wNvEPhM0UI9OX3aZP2Y0i9gnsWSM3T2teIjruUUVkuouHy3hqT1TvA/T02OWJwrkPB1nR4kDZOPbZN6RhOD8RJIJNVCPTlsy5s17QBAfyVLzn4ZJ8RcwneQoklS37UiKepSB+hjRqbso1kQM67/UA1yeuuz0LwlMNmXq0U6nLtkWextj1hUAbxvW2YPQrnmXhfBzx/XFBTPlJ0nqUTBucGr+u5SNjqAgdYBsfKOYDwDYI4Ltkk3VqUenvU0K5ueYcTIB7QtPknbFLibSQwRbi1JRy04rE6QeVWZpkfXuwABEDGDZzljQ8KzbQfwq2QGFldNBPTpt7T1Vxk1UuFL+eht2DOHb0RPE3iHFGv4YXqZ/y6SoR5vfhxgfcGr+NTrsltExUABpD6BcsD5NzILlUOuZdg8HaaEenfZGyZsPgbCbTDB0y4gJZgBnFl3/izp0J0g9GjDj4lLNP0qH3So6BhIgG4Bim9cQIFIcYrVTB/VoZxDEXYyAcVFCafWbxL9VtOfXqjUbN8QhSepRxv85NT+BpXY42MQ68cKZMHurSsGsJlHjUAf16LQ1et48kwji41XstTPa/TKwpOT6u87u1XAtEqQeXV1f7++121MQVKcD8wwFQIS3pm7I8U8T+linTD06bdllmzcBeFustERMfwbxsY7rX6FjdiVFPSpO1QS5Q8n1T9dht24dQwOQ9sBb5NCiXnfcl4K0UI+27X52D7z8T8+ad4MxX/OSUWt6SILUowzwbY5b30/3pNapb+gA0h58UjVEdFCPdgZMfBhdaueuZZBIuZFdeoliO5VJpnNUq9Fu+OFJlHqURN0ObZy8OgHRrWtoASIG0rwbYVh/ALNSwZ4wDtZBPdrdT2IjMewAAARXSURBVHlH7EaT5kUAdsbUd5R+KSyiFqEH0LME/qGuU6mNPzZJfYPCOpBxtKNQqyRMrHS2GWqAbAhw3jqGic9KgqMXMSfHNQsH5ecdDgQ7jQX+dfNX4i6dAe/UlSD1aADGZapMlHH5YSa9cwIgHb+EPwZwRKyb4VbdCR3Uo2kEfOrNmxz1qO5TtaR9NqcA0gEU8cVYG+NG36Boph5NIvgJUo8+Zxn+WweZbTKMv+ckQMTAq/nxfQIa+0UyZYoz6tGOyVYn4FtF1z85zAQc9DZzFiBtx7fYMz6TAAcW82hTjzKB7iy63psHfdJHsW/OA6Rj2XU9gHdq/gbRy9ejRz0KesJxvaFK+w8LkpEBiHDI1DcI834GnLAOUmg396lHm8mQ9Imi652v4KeBFh0pgLQjsaww74hJDr5DwCtij84cpB4VyZAB4xrVQj6x+15DByMJkLbfWjUDP5zAHfM5Qz0qvuAXXT/+O+caJrcOFSMNkLYDy7b5vwS8UYdDZ9ExzNSjq/0geO/uKyZvT8BPA9NFBpBWKERxzfqkdT3ASeUIDQX1KAAB6h/o4soamJkf0pAMIF2OqmxvnoQAnwOweUgfqjYbVOrRWJeFqk5LSj4DSB9PV/PmlSC8OwE2yKRiHaEfWrF2S2/hnvdhTQShOdk0A8gsYa0M0B3zuGcgAy8YTKcVa97Zcfc1LPozgISIVCVvCbaSC0C8ZYjmQ9ekeWwLXF9y/XcPnfExG5wBJIKDK3bubKBZMTb+0m0R7FJpOuzZtipjDyObASSMl7o38nbuVoDekkDaioR1oUWeMYg+tMuEJ1JwsqePBzKASE6NJVujMJYzb2VgR0kVqYgx4BtEFxQnvONSMWDIOs0Aohiwat46DsRnJMS2omLtnMy2VXFIGNkMIGG8FKKNYDdvMA4jip1tJYQ105swkdvwvX0WPgk3svCIC2QA0TwBkuKtDWO2YGQZIzo9qVIBYWwatjYZQGKIWHm78beQMXYpwKLwZhqP4PS62nH9Q9PofC71mQEkxmhWC+YZzPgEgM1i7KZrPYVFTs3fPbH+5nhHGUASCHAlb94Awv6xsq2IkmTAR+fXvF8lMKSR6SIDSEKhvvd12GLzp5ql27RTjwL8fcetn5jQUEaqmwwgCYd7UKlHE3bD0HSXASTFULWpR4mpEBC/FAyTqFmhqjMuAQOTBrAOoOcBvlA39WiKLhj4rjOADHyIMgPT9EAGkDS9n/U98B7IADLwIcoMTNMDGUDS9H7W98B7IAPIwIcoMzBND2QASdP7Wd8D74EMIAMfoszAND2QASRN72d9D7wHMoAMfIgyA9P0QAaQNL2f9T3wHsgAMvAhygxM0wMZQNL0ftb3wHsgA8jAhygzME0PZABJ0/tZ3wPvgQwgAx+izMA0PZABJE3vZ30PvAcygAx8iDID0/RABpA0vZ/1PfAeyAAy8CHKDEzTAxlA0vR+1vfAeyADyMCHKDMwTQ/8P7DIG5u3Xx3uAAAAAElFTkSuQmCC;" parent="1" vertex="1">
          <mxGeometry x="806.25" y="240" width="32.5" height="32.5" as="geometry" />
        </mxCell>
        <mxCell id="pbOQcnThbagH4nvjm6GH-8" value="" style="shape=image;verticalLabelPosition=bottom;labelBackgroundColor=#ffffff;verticalAlign=top;aspect=fixed;imageAspect=0;image=data:image/png,iVBORw0KGgoAAAANSUhEUgAAAMgAAADICAYAAACtWK6eAAAgAElEQVR4Xu1dCXQUxdb+qrqzT9gX2VeVTVBABJSHkACKbA8EBRQExeX9ylPEFZQH4lN5ioobioKoKKLgExWeQFgEF0BBFFRkCwiIyBYzCUmmu+o/NZCQZZLp7ume6Z7pOscD0vfeuvXd+qaquqvqErjFRcBFoFwEiIuNi4CLQPkIuARxe4eLQAUIuARxu4eLgEsQtw+4CBhDwB1BjOHmasUIAi5BYiTQbjONIeASxBhurlaMIOASJEYC7TbTGAIuQYzh5mrFCAIuQWIk0G4zjSHgEsQYbq5WjCDgEiSyga4JyK0liVfnnNYAeA2AnCCEHVBV6QBQcABAVmRdjO3aXYKEL/6psixfyhg6c45ehKA1gJrBq+eZANYC9GvG8B3g+y64jithFgIuQcxCsnw7dSiVbwMwDkBdE6rbAeBDxugioOAnE+y5JipAwCWIdd1DplSebCIxynjKOT6QJMxRFGWldc2IbcsuQSyIvyRJ1wBkEufoYoH5ACb5i4ypMwD8Fp76YqcWlyAmx5pS+SkA95tsVoM5IsgxgzHfixqEXRGNCLgE0QiUFjFC5MWEYLAWWetk+GuMqWLN4xYTEHAJYgKIwgQh8hpCcKVJ5kIywzlWca70CsmIq+xHwCWICR2BUnkmgHtMMGWiCb6XMbWZiQZj0pRLkBDDTqk8BcC/QjRjmTpjihvjENB1wQsBPEmShnFO3g/BRBhUyULGfMPDUFFUVuESxHhYZUmSv+Iclxo3ER5NQsitquqbE57aoqsWlyAG40mp/ACAJw2qh12NUvR2Pyjqh90liH7M/BqUSrsA0tygeiTUdjGm9ARwMBKVO7VOlyAGIidJ0tWck2UGVCOt8gxjysRIO+Gk+l2CGIgWpdIsgNxlQDXSKipjpAvg2xxpR5xSv0sQA5Fy4PSqWCvJu4z5RhpodkyquATRHfa4TpTyjbrVbKRACO+rqupyG7lkW1dcgugMDaXydACTdKrZTJy/wpj6D5s5ZUt3XILoDIskyRs5RyedajYTJ78x5mtoM6ds6Y5LEJ1hoVQ+AaCqTjXbiVOKPoqirLCdYzZzyCWIvoDUpFQ+qk/FrtJ8NmPqHXb1zi5+uQTRFQn5ckqxQZeKfYW3MaZcbF/37OGZSxAdcZCkuDGc87k6VOws6mVMSbWzg3bwzSWIjihQKj8B4EEdKrYWZUypDSBKpozWQO0SRAeuhMgfEoIhOlRCFm3cuBF69eqFOnXq4ODBg3jrrbehKErIdoUBxtAVUL42xViUGnEJoiOwhMgrCEHAo6xVqlRBt27dkJ2djbVr1+qwGli0b9++GDHiegwfXvIox8mTJzFnzutYsGABtm8XV2QZL4TwG1RVXWDcQvRrugTREWNC5I8JwYDSKuPHj8fTT8+AJEn+R+IXfvfu3Wjd+iId1s+J3n77bXjppYovJ9m7dy/Gjr0F69evN1THWaUpjCnTQjEQ7bouQXREmNK49wB+fXGV/v3747//XVKulZEjb8DChdoPHT788EN47DFtfTYr6y/cdNNNWLr0Ex2tKC5K5jPmu8mgckyouQTREWZKpTcAMrZQpXr16ti/fx+SkpIqtNK0aXPs378/aE0dOrTHpk36tnn98cdRdO3aFZmZwe2XdoAQbFBVpVtQx2JYwCWIjuBTKr0AkDsLVTIyVuHKK7sHtXDo0CE0bNg4qNzs2a9g3LhbgsqVFnj22ecwceJ9uvUAHGZMqWdEMVZ0XILoiHTpWxP37duDhg21bWmaMOFePP/8rHJrE4v848f/DPg8MzMT+/eLTAhA9+5/KyPj8yn+UWTLlq06WnNGlDFFLJyYbsUYUXAJoiPQlMrieh9xzY+/eL1/FU2vRCeeMGEisrJOoXv37hg//i6ITl9Yfv11F1q2bFVube3atcOWLd+WeH7q1Cn/Qvzjjz8u+vfGjRvjjTdeLzNy3Xbb7Xj99Td0tKaIIGJ+mKdbMUYUXILoCDSlsrhzV9y96y+q6ivSbt++A7Zt+6Ho/8XUS0zBCktBQQGSklLKrW3gwAFYsmRxied///sQLF26NKBO6endc889j3vv1X+aljFFsNhN0lNOZFyC6CJI3F0AL5onKUoBCCH+X/jBg68tY+nRRx/BlCmPFv17/foN8fvvvwes8Z//HI+ZM58peiZGpGbNzi/XOzGS7Nmzq+j58uX/Q79+/XW0pmgEcb+mV4CaSxAdXUqS4m7mnL9eqJKXl4u4uDhMnToN06Y9VsaSmGKJTlw41Ro1ajQWLHg3YI0333wzXnttdtGz8mwWVy4+imzbtg3t23fU0ZoigohFlJs2wR1BdPedMgqSJI3gnBR9eT516gRSU1PLJYgwULwTv/TSyxg//p8BHSn9irdnzzSsW/dFhU4XH6EOHz6MBg0a6W4kY1JzIH+PbsUYUXBHEB2BliRpEOfko0KVgwd/Q5065+GeeyZg1qwXAloS0yYxfRJl7dp1SEtLDyiXkJDgf4tV+E1FL0F8Ph8SE5N1tKZwBKGt3VRu5cPmEkRHl5JluQ9j+F+hyo4d29GixYX+17fiNW6gUvxXfs6cObj99n+gsgdo24ziZDZHVg7wl/fMn+vXf4GuXc8kpapogV5YT3Hbf/75J847T38KRMZIe8Cn//2wDtycLOoSRFf05G6Uomjes379Ov/3h++/34YOHQLP/+fOfQOjR4+CcngeNmfMQqK6Cxc2LAv7D3sY9ud2wbD/WwwiV66QdIUuL1nyIQYOHOj/361bt6JjR/1H5RkjnQGfvs/3ujBztrBLEF3xi+tIKS+6dO2hhx7E9OlnFuflTYl2f/Uo6tCVYNmBf6R9+Ry5Xo6EJILEZAJVrovEBqOR6xmCJhdejqyswG9gGzVqhL17dxd5X9EoVlETGUN3QKl4saMLo+gSdgmiK57xrShlRXvM69WrhwMHRBpzQHzUEyQp/BYy5EoJD41ORV1PLrKOcdRvfmanb+mSm81x7LAK8WfV2hS1G5yRIwnnYcefHTDw1iU4cpyXUKtcuTJWr87AxRe3K/r3Xr16Y/XqNbpa46+H8EGqqp77EqnbQnQruATRFd/EJpQqe4urFC7UC0lyzz33Qjq2ALPuifOL5eVyxCUQnN0JX25tQk7ICNnixYdqWLqxKh589ic/UQYMGOD/tlKcHBs2bED37j10taRQmBByi6r69H+CN1Sb85RcguiL2XmUyiW+9A0bNhTvvrvA/8FQFN+BWfDtNv9eOTGiyHXHgFbtBqlKyQ24559/Afbu3aevJeekH2RMKdodYNRItOq5BNEX2UqUymUWBYsXf4hBgwbCt/dx+DKtTxlCEhtCqtoNXtIat9zzGj5e8Yu+VpSUfpoxxdBW4FAqdYquSxB9kYqjVC4IpLJ71TDU5oH3TemrQr/0/OUq7px5bl+YPgv8TcbUMfp0YkfaJYjOWJ8lyJkFxtny6v1xGNEr8CJcp3nD4k8v8GHqm6pufc7xKeeK/k1cumtypoJLEJ1xOzvFqlSo9vitMsYPlXVaCV38dD7gK+BITgJkmWDj1gKk36//WAch2KiqSufQPYpOCy5BdMb17CL9PKF25SUUn8yI12khdPH3lis4clRBj7YcNc5S9WgW0P0BI+HkexhTnZRKLnQAdVgwgqgO89EnSqm0FyBNRMtenBCH0VeHd2r1wecFqJnM0LxuyW8j3jzg0rsNhTPr7JmQ6AuWCS0yhKgJ9TrWBKXydgCtRQMOLE5A1UrhgTDLy7Fxqw+t6gZeZ2z4CRg3y5gvhPAxqqq+6digWOi4MUQtdMjupiVJ3sw5/BuvslcmhsXdH3cxnDzmQ9Na5a8xXvwUeOlTo+HkmYypXQEEPs0VllbasxKjiNqzNWHwSpLkLziH/0vd7HsoLmsloUFdCQkWLEVO5wFffe9DKlVQt3rFjRs9k2DTryEBMJUxRZy5d0sxBFyC6OwOhMifEYK+hWp/7wJMuo7jZIGMVhfIqJRiDqQbvldx8riCdo0YaBCTWw/WwojpgW9E0dE8cQWQGBndUcQliI5uU0qU0rh3AV7iwtwhaQ0wfegBHDxJUbl6HFo2oYYqEOuMH3cz/HlURYNqKs7TkMcqtem1OFjpXvTq1cd/L3CIxR1FSgFozs9diFFxkjql0myA3Fbc5wED+mPJhwuxb2EzbN95BFk+CU0aSGjfIjhR9h1i2LGH4fRpBokxNKzJgxKDxldG1Tb/hKfxICRUb+t35YEHHsTTT5+79MEgpu4o4hLEYNc5q0apPANAib1L9903EU8++QR82Zk4vGIQ8k9sx/d7CXYfof6PeFUqE1RKAbJzgNN5HOAcEuGIlzga1ICfFLLGt8WVW47zkyO+SosSDdm8+Vt07nzmNGKIxR1F3CmW8S5U+vI4YenZZ2f6L4oTxbtvMQ6vuq5EBae8QG4+UMUDJCcYq9vTqD+qtBmP5Lrlb2vv338Ali0LOf35r4wpYljKN+ZpdGm5Uyyd8QxEkAUL3sH1158jxR/rb0fWL0W3A+msoax4tXb3oUYnkdyq4jJ//lsYO/bmYGJBnxNCxqqqb15QwRgQcAmiM8iBCLJy5Qr07Hnul93nPYDDnw9E/okfdVovKU7kJNTq8hwqt9De6Tt1ugzffbclpHo5xyrOlYCJgkIy7EBllyC6gpbQnFK2GuANiqtt27YVbdq0KWFJyTmII2vHIvfwal01FAon1uyIGpc9heQ6wW+PL16ByD51++2hZ3emFOmKomQYcj6KlFyC6AgmpXELAV5ygSE+HPx+CLVq1Spjifm8OLLuZv+6RGtJbToUqc2uh6fxmdtKjBQzRhGAz2VM1T50GXHUATouQTQGidKS9/IWVyt+iXUgczkHPsWpn1/H6SNfgBX8VUYkoXo7pNTvg9Rm10H8PdRi0iiiMEYvAQrE3rOYLS5BNIU+rgOlXEw3KpcWHzNmDF5//TVNVoRQ3rEtYL5zH/QSq7cDjT+XJkGzoSCC5owiiPnjuC5BNPRIQuRlhODqQKKFl8dpMBNWEZNGkWOMKZcAOBhW521UmUuQIMGgVJ4MoOzV7YD/ogZxYYNdizmjCH+JMbUo7Zxd22qVXy5BKkBWluWejCHgm5zatWtj1aoVaNWq/KxRVgVNq12TRhFxudxoVVXf0lpvNMm5BCk/mgmSJK/mHOKcRJkyZ86rGDu2KOGtbfuEOaMIDjFG04GCkO4Xsi1IFTjmEqQccALtuSoUHTlyBN56a74j4j1jxn/w0EMPh+wr5/iIc2VwyIYcZsAlSICASZI0mHMS8ONFjRo1sG7dGrRoUXKzoF3jvmvXbrRpcxEURTHDxYcZU4LveTGjJpvYcAlSJhDxbSllywAEzB9ePCGOTWIY1I3hw0dg0aIPgsppESCED1RVNTI35Glx0GQZlyAlAU06+0r3ykA49+nTG8uWfWZyCKw3J8ghSGJSOcYYBgHKlybZs7UZlyDFwkOpNAcgt5QXsbVr16BbtytsHdBAzonplZhmiemWSWUnY9JAIH+nSfZsa8YlyNnQlM6BXjpiN954A95807k7wMVCXSzYzSqE4EtVVQYBOGaWTTvacQkCoKJFeWHQVqz4H9LS0uwYQ00+ff31N7jiipJpEzQpViDEOZZyrhjfVRmqA2HQdwmCihflIgZXXXUVPvvskzCEw7oqCgoKUL9+Qxw/ftzsSp5nTLnbbKN2sRfzBCFE/pwQ9K4oIKVPDNoleHr9uPrqvlixYqVeNQ3y5P8Y872sQdBxIjFNEEplMSmfWFHUOnbsgI0bv3FcYAM5PGnSZDz5pCXJpHyU4upoPGAVswSRJOlGzknQ/UV33303nnnGvMVtJJm2ZMkSDB1a5ryXWS7tYEwRO55/M8ugHezEKEH8644VAGoHC8L777+Ha6+9NpiYI55nZu5Hs2bWZTrgHEs4V4Y4AgyNTsYkQSiNWwBwTV/O9u/fh/r162uE0/5i7dpdgu3brTwkSG5jzKf9BJnNIYs5gkiSdC3nRPO+i2DHaW0e3zLuzZ07D+PG3Wqh2/6b4sX75Kg4ZBVrBJEkSf6Sc1ymtYdEG0FEu6dM+RemT39cKwQG5KLnkFVMEYRS+QEAuvI0RyNBRI8fPXoM3nnnHQOdX5sKIfwaVVXFpk9HlxgjiLQLIJpXqV27dsH69V84OsDlOS9ughdXla5fv8GS9hGCDaqqmPvp3hJPKzYaMwSRJOlqzomuXzRx3lycO4/WsnXrVlxxxd+Ql5dnSROj4ahuzBCEUmkWQM7cMK2hOH1zooYm+kUmT34ETzyha9ap1bS4xH4154pzN7ABiCWCaJ5epaamYsOGL8pcJ6q5ZzhI8MSJE/5NjDt3hpa/rbwmE8L7q6r6qYMgKeFqjBBEvoJSrNcapKlT/4XJkydpFXe8nFm3nwQCgnN8wLkyzKkgxQRBtOy5KgzgJZdc7F+YJyUlOTWmhvy2biMjwJi4GUb52pBjEVaKEYJof3s1e/YrGDeu3EOFEQ6XddW/9957uOGGURZVwF9gTB1vkXFLzcYAQeLbUMo0Jero0KE9Nm3aaCngdjWelZWFpk2b49SpUxa4yPcypl4AQLXAuKUmo54glMbdCvBXtaAYq6NHITa33DIO8+a9qQUq3TJOvQ0l6glCiLyUEPQPFtFYHj0KsVmy5CMMHWrVepq/xphaIjtwsJjY4Xm0E6QapbKmM6axPnqIzpifn49q1WpY9eHwEGOKmGbl2qHja/UhqgkiSdJIzknQDUctW7bE9u0/aMUsquVuvHEU3n33PUvaSAgfpqqq5p3Uljih02hUE4TSuHcAPjIYJuKbh/j24RbA2mkWmc+Y7yYn4RzFBPGfGhTpXqVgAdmy5Vu0axd66rNg9TjluSTFWeWqSMgjplknrarAbLtRSxBK5WcBBL2Opl+/fvj444/MxtXR9sQtjD//bE2mA6dNs6KUIIlNKFW2BsopWLrnzps3F6NG3ejoDm228+JNlphqWVSeZUyZYJFt081GJUEolUXKNJE6rcJSrVo17Nz5M8SfbjmHwCOPPIp//9uaLAeE4GtVVQImJbJjDKKRIHUolb8FUDcY4CNGjMDbbzsjEU6wtpj5XLzFEm+zrCqMKTUAaHr9bpUPWu1GHUEolcXrqClaABDkECRxS0kExEGqjh07WQYLIXyQqqofW1aBiYajjSCaRw93elV+LxInDFNSUk3sZmVMOSb/elQRhFJZjByaPmgMHjwYH3zwvpWdwNG2mzc/H/v2ZVrSBietQ6KJIJpHDxH1xx+fjgcfFJecuCUQAunpvbFmzRrLwGFMER9bTEmcaJmT0XTkVs/oIQBdvnwZevfuZSW2jrbdr98ALF++3LI2MIYegLLWsgpMMhwlI0h8K0qZOFKr+X3t0aNHUL16dZNgjD4zFn8LASF8jKqq1uytNzEcUUEQrXuuCnG74IIL8PPPO0yEMfpMWblp8SxaUxlTNK0XI4mu4wkiy/JVjEHXXGDIkCFYtGhhJHG3fd3i/l5xj691hb/JmDrGOvvmWHY8QSiNex/guk75TJr0MKZNm2oOglFq5a67xuPll1+xrHWcYy3nSg/LKjDJsMMJIl9OKXTfnfn2229hxIjhJkEYnWbuu+9+zJwp9ntaVfy3wDexyrpZdh1NkGB5zcsDafPmjWjfvr1ZGEalHSv3YxUCxphi+/5newcr6n2UyiLdl+7sNtnZWUhOTo7Kjm1Wo+6//wE888xMs8wFsiPOhtS0sgIzbDuYIAkXUKru1AtCYmIicnKy9arFnPyoUaOxYMG7Vrb7Z8aUVlZWYIZtxxJEkqR+nBPdycvFtw/xDcQtFSPQu/dVyMjIsAwmQrBeVZW/WVaBSYYdSxA9910Vx6phw4bYt2+PSfBFr5m2bS/Gjh3WfStySsJPBxNE+7b24t3YvcFEG6lr166DY8eOaRM2JOWMe7IcSxBJkgZwTnSfKejYsSM2bnTkPcqGuqERJUVRkJBg+eXd/2ZMsf0V+o4lCJBwIaVqiZsFerSnaNn4TJNeXhL4Gtju3btj9epVRvpNzOgcPHgIjRo1trS9lKK3oigrLa3EBOMOJghw9mhthzHXSJh2i4wqnnPNUVTgs69VTH9TxS/7WRFUrVq1wo8/bjMBuug18d1336FTp85WNjCXMUVsLM23shIzbDucIHH/mDRaeunBG+RysfApwOQ5vqIRpWbNmjhy5LAZ2EWtjU8++QSDBg22rH2cYzHnyrWWVWCiYUcT5Lu5nusubIiFREMrHnjlHEmiNbWzWf3ilVdewZ13WpnOg9zBmG+2Wf5aaUdD17Ky+tBs52Z4dnJA3NSnqaTfXYCNO5h/BBEjSayX01+eD15wFCLbJogMSMmgiQ3wwy4f5izajuXfqPjd/BdZvzCmXALAmtS6JgfVsQTJyfBMB6DrLYhYl7QamYcVa7dBrEViueSuqQrw4CdeVRU4eopjzRaG2f9VsfXXc+s5Lfi1aUrxt4sJVmzk2H3Ir/sQY4o1aXW1OKRTxskEyQJQSWd7cfgYx6Han0G8zYrVUrDzbiiH3jDU/LwC+DH89TeOLb8yZHl5kZ16NSguakbQuA5BraoEyQlA8emvokII747j8WnJfU6IfXS2L44kSE5G6mcA72sU3cy/2qDVoNj9FpK3pS/YKc1Jf43CXKEeBxZ60ry2P3PgOILkZKTOA3hIV+iLn7HENgsg1RpgSfDtbtQOBBEYSYRek9jzr2V2xstRBMnJSF0G8KvNAJQk1EXS5bo3A5tRdcRt2IUgBDicnOatF3FAKnDANgQ5/nm1Bsm0oJlKSRMwVrnQZ0kiLRhHNwI05UCimWDKtYcgvrXtL9Yws8l+W/nf94d6wh437qjcW6NSun3v6Y04QXIyPCJFs3ilRE3vCcEMEoqEi96HVOOqYJJR9Tz/h2FQj+m658Ky9nPwBz1pOU9ZVkGIhiNKkJwMjw9A+Z/BQ2ycFnWS2ABJXX/SIho1MvnbR0E9aln+D104icsbPOle217eEDGC5GR4DL2m1YW+RmH5vOsR32qORmnnixX8dBuUI5aeFtQD0o6UNG8bPQrhlI0IQbwrU+4mlFh5ZYY+DImExHYfgVaz7Q+ZvvYEkS7YeQ+UQ6+bajMEY4dTbLxQjwxBVnnWEIIrQwDVdFWS1AhJXbabbteOBn27J8F3YJZdXMtLSfNafvjEaGNdghRDTq5zA+JbWndZmtEgma3n2/s4fJn22e1BgGHJaV5b5k93CVK894mpVvtloJUdk0LPEHd8+5+Db88jhnStULLzQt0lSKmI0+TmSOwsEuRGb/Fl/ge+vdNs1UCVkZsr9cqeayunIpUfJDfDs4gDQ+0GRqE/cU0nI65x9CbX8f16H3wH7XUcgwNH8vO9F1bvi7/s1C8iMoLkZqT+h4NPtBMQJWZacVWR1O2AXd0L2a+CHTdD+WNRyHbMNsCBLIliUFIPrz0+80dqBMlZ7bkVHK+aDbCZ9uTaQxHf2nYjvilNzN82GOpx296X4CPAvclp3hdMaWyIRiIzgqxJvIIzObL7rYMBR+KQeNk3oMmaDywGs2ib57mbrgS839nGnzKOEHCm4tXUXt47Iu1kRAjCt8OT+4fH9hfkUs9FSOz0VaRjZHr9W+Z50KJRREKvry0cG1LSvd30KZkrHTGUcjI84vxlxOrXCmNcgzsRd/4TWsVtLydJcfhpQQIa1LI99IVYHoxjbEB8r9yIvFqMGEo5GZ7T4tyS7XsUjUdix7UQo4nTiyCHKJkfJqB65YiF3giM4oKHOSlpXiuvWgnoV8RQstNmxWARo8nnI7HzlmBitn1+4sQJ1KxZu8i/Y8sSkXCGK44qkfigGEmCiF+FBKdESK47GvEtXnSKu0V+bt68GZ07l9wZkL3S/gN3eUBzkGc9adkTwhWISBJE3DkjhauhIdcjDle1ng+p1qCQTYXLwMKFCzFy5I0lquvbheL9afHhcsGSeiSQAYlp2bpzwxhxJpIEOXdfjBHPI6BD4qohqdv+CNSsv8rnnnse995b9lvsE7fH4c4hzvldCtTycE61IkKQnNXJHcDpt/rDHnkNWqk9Ejuui7wjFXjw1FMz8PDDge/UW/Z0PLq1C//pZjMBi3qCeFelziCE32cmaOG0Jde7GfEXPhfOKjXXNXXqNEyb9li58r+8m4B6NSPyu6i5DcEEOecTPek5zwSTM+N5RJDKWeVZD4IrzGhARGzYcD2yadMmPProFKxcWXHuE6e+wToXZ74xJS3H0twMxftUpAhyGAR1ItK5TarUTusRsd4Q5MjJyQnaOie/wQJwGmpi85Tex8KWvyLsBMld7RnCOT4MGkkHCNAq3fwHrCJVfvllJx599FEsXrxEkwtOfoPFgWwO9EtN836hqbEmCYWdIN5Vni2EQFx/HxVlHxuL1unPh70tc+fO848av//+u+a6HxsXh7uHOfIN1h8SpMsT07LCnp44rAQ5neH5GwPEXv+w1qu5BxkQFLebP7J0OIYPH460tJ4GLOhTef/9RZg//y18/vnn+hQBLH48Hr07OewNFsE3R4m3R5MekcknEtaO6s3wfEGAiO7O1N2rNCi8tlTFvS/4/AQRROnX7xpTE/Rs27YNa9eugyDHxo0bNXgUWGTL3ASc3yCsITfsKzh+oxJ5JKlH9nzjRkLXDCtajtmgqBPXP09xNB16Lh+lLMtIT09DWloaLr/8cjRt2kQXYX788UeIt1JffvkV1q1bh8xMcz5OHvwoAZWLJTrV2cxwiR8H56+lpOc8HK4KK6onbATJXuNpQxnEPbxRWSa84MOcpYFTT4sGp6amokmTJqhbtw6qVq2KKlWqomrVKsjLy8PJkyfP/nfKT4zTp8VGZ/PLqc8TIdl3hpUFgrdSeoZ/x649CLLKcx0lWGh+2O1hcdPPDGnjC+zhTAAvPInA75/Yb5MiAcnhwKKUtOyxdgQvbCOIaLxTDkkZCdSBPzha32DftN+dWlFkPG+rTYr5HPg4pad3OJycFBgAAAPqSURBVCHQl/jQSIAM6oSbICIvXX2DvtpaTbzNqv93+xLkxj4SXp5oi0MgCsD/l0xzxpAeMD+Hrsm9JKwEEb7rTd1scnstM2d3gkwZK2Pi8IhmmhAZPFezPHJHpWuyf7UsECYbDjtB/FOt1Z5HwDHkbOIcW/yshYqr3QnyxkNxGNYzUh8JeQ4IuT+lp/flUHEOt35ECFK8kTkZnskgZCABb805bHvLd7DA2H0NEsFt7rspk/ok9craGwxDOz6POEGKg3J6depYlXGxaOsIoIodASvPp8++Yrh+StFbLHGcOJNzZBLCMwGyX/ypquRIsDZRSloBvBlA6hLC63LO64q/A0gOplvR8zcnxWHIleEdQTiQ4Unzpofid6R1bUWQ4mB4V6b0AaUjKdCFgzcCYOup2BufqQvGz1ReBHyZAIISwUDgqwDxdWWZ1ROk4VyQhrQEeDsAbYPZC/dJQgYsSU3zimm0o4ttCVIaVe/qlFGEE3Eg/FLAv1U+vD+HFYSZAN7kNG9qZHtCfFtJUttxTtpyjraEQBCn6CqTfwyW8NQdYfqNIfh3Sk9v4CONkQVJd+2OIUjxlvE1SMznnlsVjn4ALiZAjUhugAznEVB9EU5oSinrxTnvRQjS//gksXKyxd8KucpHeHrnvKfPT/tKO5IgpeE8mVGlUTyUcQCuIiAtOHhKuCDnwJ+eNG+tcNUXSj27F6Usr1OdWJPzmkPl4O096Tk/hOKj3XSjgiClQf0rI7U/BR9OQbpycPFh0rLpGOPomZruXWO3wAby56/PU1tIMv/e9PvICP5MruStRzpCpPWOqhKVBCkxHfsWyTmnUu4ESD8QtCVAZbMiaN+pVfktzMtI7a+Ci3yAplzax4FfPGnelmZhajc7UU+Q0oCLDqJwPoEQdAmlk3CQtz1p2aPsFlAt/pwlyTwA1bXIB5Qh4JxhnSfdG9W5s2OOIMWD7c1InUnARSo47fvDOH4jBDOS07zOu4e0VE/3p8LjGAyidwpK9hDC70/u6dV2GN4wCyOvGNMEKYQ/Z23ypVyVhhPw7oTgfM5R/JWt2GnqBSdfcbCZnvQc26ZmMtKdTq+r3IQr6ngGXE2AZgDK27CVSwj5gRP+aUoP7+NG6nKijkuQAFE7ugie5Kopt0DGWk+PHLGojZmSvcpzLeH+FxtFhRD+ZUp67uaYAaF422Ox0W6bXQS0IuCOIFqRcuViEgGXIDEZdrfRWhFwCaIVKVcuJhFwCRKTYXcbrRUBlyBakXLlYhIBlyAxGXa30VoRcAmiFSlXLiYRcAkSk2F3G60VAZcgWpFy5WISAZcgMRl2t9FaEXAJohUpVy4mEfh/0FYBbh8d3qEAAAAASUVORK5CYII=;rotation=30;" parent="1" vertex="1">
          <mxGeometry x="995.5" y="95" width="40" height="40" as="geometry" />
        </mxCell>
        <mxCell id="pbOQcnThbagH4nvjm6GH-9" value="" style="shape=image;verticalLabelPosition=bottom;labelBackgroundColor=#ffffff;verticalAlign=top;aspect=fixed;imageAspect=0;image=data:image/png,iVBORw0KGgoAAAANSUhEUgAAAMgAAADICAYAAACtWK6eAAAXaElEQVR4Xu2dC5gcVZXHf6dnMoRgVAR0VVxFXPBJxF2JCqvIw0Vlo+waRARBxTBdnazyUmFVREQ2GAiQTE0eC0SD+IgKiCBvFRR0VYgrKKKCClEURCUBM8lMH7+60wMDmZm6Vd1Vfavq3u/rryepc+4953/uv+t17zmCbx4Bj8CkCIjHxiPgEZgcAU8QPzs8AlMg4Anip4dHwBPEzwGPQDoE/BkkHW5eqyIIeIJUJNDezXQIeIKkw81rVQQBT5CKBNq7mQ4BT5B0uHmtiiDgCVKRQHs30yHgCZION69VEQQ8QSoSaO9mOgQ8QdLh5rUqgoAnSEUC7d1Mh4AnSDrcvFZFEPAEcTjQOpcens1MNjETeBI9zGSYrVA2PPp5KhtYyAYR1GFXCmuaJ0iXQqfzeArTmEWTWQizgF2AmSgzkRYhYEYC8x4BNjzhcy/K7Qi3Rd8yyM8T9OdFAU+QHKaBLmBnRlpEUEOG6PO8HIZ+4hCbgduB28x3RBzhdlnK3V2wpRBDeoJkFCbtZ29qzAXz2SGjYTrV7QPAxQiX8EeulTVs6lTHRe/HE6RDEdS59LE9+yO8qSCkmMzzIeAS4Ap6uF6WcG+HICpkN54gbYRN62yL8AZgf2BOAc4Uaby9ErgO4XoZ4JY0HRRZxxMkRfS0wXNpchTCe4FnpuiiqCpXI1woA6wuqgNJ7fYESYCYBrwAeB8YYmyXQLVsov8PrGYaq+Uc/lA258b74wliEV09mhdT430IR5n3Eb6NIRCRYzXKahkkIk3pmifIFCHVgJebM4aay6m+0kW/kw4pq83lV8jVney22315gkwSAW2wHUr0+NO3ZAh8kRqLZCk/TKbmprQnyFRnkAavRrnJzdA5bJWwiSaLgEUyyJ8dtjTWNE+QGIi0wREoq2KR9AITIfAz4EwJOa+o8HiCWERO65yGcJKFqBeZGIHLozOKLONbRQPIE8QyYhqwBnibpbgXmxiBc81lV8g9RQGokgTRfl5KjY9JyMG2gdJjeBpDfBPYzVbHy02AgPAr4AQZ4OIi4FM5gmjA24GTgRchvF8GiH7VrJo2mI2ay4TpVgpeaCoETpGQj7sOUaUIog1ORfnI44JSYy9ZyndtA6UB7wQutJX3clMicDHDnCArzFnFyVYJguh8XkiT04G3ThCFuxjilXIeD9pGSAPzyxedhXxrFwHHL7lKTxCtMxfhU2DWUU3WPishR9jGWhewFU1uQNnDVsfLxSLwcQk5JVYqZ4FSE0QDPgF81ApT5cMyyEIrWUDrvBUpxo2mrU8OyDl3yVVKgrS2uEZvcie6pJpqHsyRkMtsJ4oGrGit7rVV8XLxCNwBvEtCfhAvmr1E6QiiDfZHGQD+KQV8v0TYTwb4jY2uzmcn1Fxq7Wgj72WsEbiXJoe78GKxVATRBoejZlnDNOtQbCm4UkLm2eprQACGkL51EgHhL4xwULdJUhqCaMB8YEmHYjRXQr5s25cGfB14s628l7NGYIQm+3WTJKUgiNb5CMKp1rDHC65lI6+V81kfLwo6nz0Z4UbEp1GywSuxTJPXd4skhSeIzudQmnwuMehxCsJCGeDDcWJjx/2CRlukUsp1iSSFJojOZx+aXJcS8ni1JvvKMq6PFwQNzFbcG4DdbeS9TAoEukCSwhJE67wK4eYUMNurjKa62ddWQev0Iwzaynu5FAgM81RZwV9TaKZSKSRBtM5uJgsg7JTK6yRKCV4g6sn0cj8/8it+kwCcWPZuCXl+Yq2UCoUjiC5gB0a4HHhlSp+TqkU36q+VkLU2ilpnAWK/QtimTy+zBQLLJaQ/D1yKR5CAL7VSe+aBz9gYqyTk3TYD6jFszZA5i7zIRt7LpEagX0KWp9a2VCwUQbTOGQgnWPrWWbHRN+xWDwS0wbEoZ3bWAN/bFggoB8qguZrIrBWGIA68sb5UQru1XbqAJzPMLQg7ZxY533FUvOMPKAfYXv6mgawQBNE6+yFck8bBjuooB8ug2Zse2zQw71CiPSi+ZYlAtMOzl4NlCfdnMYzzBNEjeSozDDn+JQsAEvZ5g4S8zkZH57E9PfwI4R9t5L1MGwgk+OFKOor7BAnMe4VcnlhYgaccLYNmmXts08DsRYn2pPiWFQIZkiMy2WmCaGCyqP9vVtim7Pc2hpktK4hqAk7ZdB7PpNckdd4+TtYfT4FAxuRwmiB6NLPoMZdW7pUvS/Ly0G+qSjHzY1V+jXBsHqmDnD2DaGAyh0QZRFxs66ixhyzld3HGaYM3odk+ioyzoWTHr0A5Nq+KvU4SRBschPJVpwOrfFIG7fa7a521rVLPTrvkvHHKp2WQD+Zpp5sECbgR2CtPIFKMFZVGeJmE3Benq4FJEeR8krQ4P7p2XHgQ5TgJ808i7hxBtMEHUBZ3LRjJBj5DQj4Up6L9PJ1auUuVxWHQxvHvAMd2K4mDUwTRgH8A/g94ThuA5qn6EEPsZJN0TgNzHxKViPbNDoG7EC7gIRbLah62U+m8lFsEqXNiK8lb5z3Nrseo/sXxcd1rnTcjZu+6b1MjEN2vXUCNVbKEh7oNllsECfhFTAbEbuM10fgbmcH2sij+V04DsxzCvxN5IorKepOEr8klssytZHzOEMTRl4J2hBROl4H4Ajva4BSUj9l1WnqpIZRrqHElI4YY61z02CWCRJn0XFhvlSZOTYaZLivYPJWyzuMp9PI1lB6EHqAXWt/Rv5Ve8//R99j/T/2dxtZu6fwJ+C1wC8pV9HKVC5dQcWA4QZDWal3XH+vGYUme9S40WiY0j1420cMMehmmh23o4W/0Mp0eNtFLkx5q9BpCRt/j/y2t/x87NkraUdmx7ya91FqEjb4f+/djMhGZx47BZmo8RHTJ1GQ9Pebv3zGD39pcgsYC3AUBJwjSBb/9kB4BKwQ8Qaxg8kJVRcATpKqR935bIeAJYgWTF6oqAp4gVY2899sKAU8QK5i8UFUR8ASpauS931YIeIJYweSFqoqAJ0hVI+/9tkLAE8QKJi9UVQRyJYgezzZsyC3pdFdjalMRSfvZu6tGJh/8AYR1Msifk6sWUyNfgjSYjfK9YkKVyOoLJeTwOA2dx870ciswM07WseNRyqN1KOsQLqLG5TYJLBzzwcqcfAniZp4rK6ASCv1EQnaz0dE630QKdybZ0jXla9S4mml8Vc7m9za+F0EmX4I0WIzygSIA07aNTXaSZfw6rh8NWAQcFydXoONRKqSV9LG8DETJlyAB14J9SbMCTYotTRX+wyaxWeZ1FrsH4ihRtmKhLOZv3TOjvZFzI4gqQsOcep/RnsmF0T5VQrvdgxqYvddFuw+xDcT3GM1nHKVgLVzLjyANXoGaykvVaMrXZZB/t3FWA74BHGAjW0gZZRPCOyR0PBngBODmR5Dq3KCPwWxdbFJdy2CfHQs/JCFnZNd953vOjyB1lpqLrCq1R9haVrExzuVKFdvpQq3zOPynOp4fQQK+C7ymHWMLqLu7TXkw7ecQany+gP6lM1nYVQa4M51yvlr5EaTOQ0hpb0Qni9qhEsZPfK3zKoSb8w19F0eLyqYNMUfOJyqx7XTLhSBaZ1eEO5xGIhvjrJ5ktVKulublmiWUKyVknqVs18TyIUh1a2R8WULm2kRXAzYB02xkSyNTYy9Zai69nW35ECTgSOACZ1HIzrCbJGRPm+41MJkFn2UjWyKZz0vIoS77kw9BGpyAFuvxXoeCtlZCdrfpSwN+DHbrt2z6K4xMjQNkKVe5am8+BKlzBsIJroKQoV2/kJBdbPrXOtch7GMjWzKZyyRkjqs+5UOQwFxeRZdZVWvrJGRHG6c14AvA221kSyYzxDA7ygqiil3OtbwIUtXiMX+RkG1toq5VfJH6GDCHSMgXbXDKWyYfgjT4Dmp3s5o3ABmPt1lC+mzG0MDUMIxqGVaxOfvINx+CBGbX3MurGHmG6YsrixDhooGp3rqwkhjBXRKys4u+50WQn4PdzaqLILVlUx/bytn8Ja4PDZgPLImTK+3xjTzZxTfreRHkHrC7WS3dBGiyo031JG3wHpTzSue/rUOOrs/KhyAN/oTyNFusSiU3wi6y3NRenLJpg0PQ+HVbcf0U9rijq3zzIUhgtlxOL2zw2jPcbkXvfObQ5NL2hiq0ttXCzrw9zIsgw62ae3n758J4e0rITXGGaIP9Ua6Okyvx8eMl5EzX/MuLIGXecz11TC0vHTxBqDRB7qtQsobHE8aeIG9BucS1X9Ac7an0JdZdwE45gu3OULYECXgHcJE7hudsiSVOOVtFXpdYtwEvyds5J8azDLxWL6nF48NT8ce830fZw4kJm7cRtgRp8F8o5+RtnjPjVfpFYVnyz6aZTbYECfgwcHqaIUqgc6eE7OqiH/lcYtX5MsJ/ughADjbZPeatcxrCSTnY4+IQiyXkWBcNy4cgAcuAo10EIHOb7N+kr0Q5KnN73BxgjoRc5qJpeRHkk8B/uwhA5jbZLlZscCnq7s66DHHayBDPlvN4MMMxUnedF0GOAc5KbWVxFZPsB4kKC80urqupLfdbbrXB4SifTQ1hcRWTbLmt5rsin7QBtLp5sZJkNdkAbFPc34JUlvu0PxFs2mAXlGjTVNXa5RJyYJzTFc2sCD5x3GNTo+RFYibmgLJQBs37jSmb1nkjwhVxciU77uw+9PE453KTbs4i1XxZeJiEfC5uYmuDk1BOi5Mr0fE7GOZfXU310x2ClK9YZfx87eHlssRkTJz6DBKwBnhbnFxpjjfZS5a5nZN3DOv8ziBVXK16P72yhpG4ia11fom4mdUjzvbEx4X3ygDnJ9brkkJ+BKnajbrwUxmwW8GsAdql+Oc97AIJWZr3oO2MlxtBzH1IwP3A9u0YXCDdz0nIYXH2ap3dkPjLsLh+HD/+CLC3hPzAcTu3MC9vgqwA3lc0kFLaa/VrqQ2OQlmZcgz31ZSrGGGerOC37hu7pYX5EqRKLwyF18kAN8RNCq2zEinlIsXfASu5n0/JGlMcqJAtV4K0LrOi0+3WhUTL3ugRmjxLlvHHOJUS1gUZJUYfy+VsCl9WLn+C1Pk8wiFxE6fgx5NUlirLDfp1KF9nK75YBmKMzb/8CVKNhYvnS8h740iux7A1Q0Rn1KK1yOZ1KOsQLqGXi+XcYt5jxAHfDYJsxwgvizOs6MdlGd+K80H72TtOxrHjDyCsk0H+7JhdmZmTO0Ey88R37BHIAAFPkAxA9V2WBwFPkPLE0nuSAQKeIBmA6rssDwKeIOWJpfckAwQ8QTIA1XdZHgQ8QcoTS+9JBgh4gmQAqu+yPAh4gpQnlt6TDBDwBMkAVN9leRDoOkE04OOFh1O4UQa4rih+6MnUeJBpPEwfW9OHMo1h+uilD5hGD32MtP6u0Uez9elhGkofYnRG9aLj4/8P/go8hLY+PdxPjXtkidksV7jWdYJEiGnAeuBJhUNv1ODvS8irbG3XBvuaCTc6sR6bcNHEHJtoY3/XJjke6WEm8Nhn6n9Lq5/Hy9ua3Cm5IZR7gXvA5CG+VpYRFVZyurlBkDqHIvHpcRxF0rq2niGHcq2jfnTDrLUo30K51GZxZzcMdIIgrbPIt4HXdgOENsa8W0Keb6uv1c3gHg9RRBRhDT2scelyzB2CNDgI5avxSDolcayELLaxSBewAyPxOwxt+iq5zH0IFwCrZIA7u+2rMwRpnUWiMshv6TYoluM/TA872f7aacD7gbMt+/Zi8IghSo2VNsn3sgLMLYL0swc1okut6Vk53MF+z5SQ423704BqljewBWhyuQeAkyTsTuYXpwjSOot8FPhE+7hm3sPuErLWZhQNOAD4ho2sl5kUgZUMc1Le+XzdI8hceng630bZ0+HJkqiuhdZZhXCEw/4UwzTlx9Q4Ls93Ts4RxJxFXM+fpRwog1xuM6s04AXAL2xkvYwFAsIwGJKcayHdtoiTBDEkqXMm4mBpYOUrMmifiV3rfATh1LYj5Tt4IgLLJaQ/a1jcJcg8ptFrXqq59m5kHwn5pm1gNOAnwEtt5b1cIgTWSMjBiTQSCjtLkNal1qtbb55nJPQrG3HhMzLAkbadlz7vri0Q2cplShKnCdK61FqA5HO9aRHHPZJkKNeAqpZ2toCyoyKZkcR5ghiSBHwGeFdHIU3amTAgA8y3VdM6RyCsspX3cm0h8AEJOaetHiZRLgZBjmQ6M8xy8tdkAYJFnxsYYbYs56cWskZEA24E9rKV93KpEVgqIQtSa8coFoIgZsK9n2ewmR8Bz84KjEn7FRbKQHy12jF9rWK5udyDYgb8hoS8KcuhC0OQ1v3Irgh3ZAnIBH3fxzCzkxSA0QZRpvN9crazasPdKSG7Zu10oQhiSDK6Xuv7WQMzrn+rSlHjzh5Rtdqoaq1v2SEwEhU9lQF+k90Qoz0XjiCGJA2ix783ZQ0OwmoZSPZwQOtcifBvmdtW5QGa7CvLuD4PCApJEEOSBbyYEW7PEKRoL8J+EpotolZNG7wFJVqy71t2CMzLc2VvYQmSOUlqvE2W8pUkcdY6lyEcmETHyyZAQDlJBjk9gUbbooUmyDiSRMs5am2jMdaB8mkZ5INJ+tOAo4FlSXS8bAIEhHfJAKsTaHREtPAEGUeSqKLsdh1A5QaG2U9WsNm2Lw14DpiKts+z1fFyCRCocYAs5aoEGh0TLQVBxpHkUjDLy9O2jdTYT5by3SQdaJ0QoZ5Ex8taI5Bocah1r5aCpSHIOJJ8CXiJpf+PF1OOk0HOSqKrDQ5EuSyJjpe1QmAzNV6f9MfKqucEQqUiyDiSLE+8zEM4WwY4JgF2aLT7cQdzadWtJTBJzC2S7K+Bg5MsDM3KudIRxJBktLzyaWA54ZWLZJB3JgXZb4ZKipiFvPBTahzazUwm460sJUHGHGytiYoeCz53itBcww4cIKfQtAjfoyLa4BXmxlzZJomel50SgS+hnCiDJgOME63UBDFnk35eSo2TYcJtsmvp4Q22ua3GR0wDs5wkWlbiW/sIRPvMT5SQRe131dkeSk+QR88m0d7wKJ2QPLq8Zh2wv4T8LCmkWufdCOcn1fPyEyJwc+usEeVDc65VhiDmbDK6FCTKu7UbED0+/E7SiLTWgUUZTbZNquvlt0DgXIY5UVbwiKvYVIoghiR1k2x6NxlMvmZK38NMppuEDf/sakALYte9rbPGha7bWzmCtBMQDYjescxtpw+vy8WtDIl57+tJBb0niCVs2uB/UD5kKe7FtkTgFpTFMojzZ43xpnuCWExlv4XWAqTJRaLSa2fRw2JZwlBbPXVB2RMkBnRtsAvwE1MezbekCIT0cJYs4VdJFV2R9wSJJ8jPUF7oSsAKYYfwNUZY7GpZtSQYeoJMgZYGXAS8IwmgFZf9Ico5RbvPmCpmniCToKN1867kMITDgGdWfOLHuX8FTVbLMr4QJ1i0454gcZdYoyt2owTJEVEyzcFUsMkzAqxuESOXBArdwMcTJAHq2s/u1AxZDqnw7sHfjyOG83XOE4R3QlFPkBQImuX0GzkYMWSpxllF+DH66BnjjylgK6SKJ0ibYTMVpJQ3IrwRzKdM7Wbgeppcn1ceKtfA8wTpYERM/uBNHIQwp6Bk+WuLENfQy5WylLs7CE8hu/IEyShsOo8Z9HIQ8FZgNpjMJ661aJPYrWAy51+ZpHKWa45kZY8nSFbIPqFfPYanMcQshFkos+DRT+fyeU3ty0YgWg91KzXzfYttGeucIHJyGE+QLodF5/MyRgxxorf1UV6v7Vvf0d9jn+kxZkZngg2tz3rzraw3RGhyK01uSVLbpMuQODW8J4hT4ZjYGD2ebdjEdijbMcyTEEZJMI31TGODLOLhArhRSBM9QQoZNm90Xgh4guSFtB+nkAh4ghQybN7ovBDwBMkLaT9OIRHwBClk2LzReSHgCZIX0n6cQiLgCVLIsHmj80LAEyQvpP04hUTAE6SQYfNG54WAJ0heSPtxComAJ0ghw+aNzgsBT5C8kPbjFBIBT5BChs0bnRcCniB5Ie3HKSQCniCFDJs3Oi8EPEHyQtqPU0gE/g5VQecUICjpQwAAAABJRU5ErkJggg==;" parent="1" vertex="1">
          <mxGeometry x="992.5" y="206" width="34" height="34" as="geometry" />
        </mxCell>
        <mxCell id="pbOQcnThbagH4nvjm6GH-11" value="" style="shape=image;verticalLabelPosition=bottom;labelBackgroundColor=#ffffff;verticalAlign=top;aspect=fixed;imageAspect=0;image=data:image/png,iVBORw0KGgoAAAANSUhEUgAAAMgAAADICAYAAACtWK6eAAAeSUlEQVR4Xu2dC7QcVZX3f6fuTYAEIajAhygm3wxLBJXH8JSRR8RHwssRQUAQIkgMkKSrb1dfQtCb+CC5Xd1dnQRE4jCEhw4hyIwPXjIIw2OAD/QDBflmBhSYEZnxMTwkidzbdb51+ibk9u2u7qrq6tvVXafWYrHg7rPP3v99/n1OnTpnb4F+NAIaAU8EhMZGI6AR8EZAE0SPDo1AAwQ0QfTw0AhogugxoBEIh4CeQcLhplslBAFNkIQEWrsZDgFNkHC46VYJQUATJCGB1m6GQ0ATJBxuulVCENAESUigtZvhENAECYebbpUQBDRBEhJo7WY4BDRBwuGmWyUEgegJMljaC9iLsrsXgr1AvIrkRfrki/Dmiwxf8mpCsNVu9gAC0REk65yN5GLg0Ca4PIeUd2EYd7HJuIs1i/7cAzhqF3oUgdYJkimeiBCKGB8PjJHgd0huA7keO31n4Pa6gUagzQi0RpBLS7szIp8BdonAzoeA9cjR9eSt/45An1ahEWgZgdYIknHWIzitZSuqFfwHgiI5sxSxXq1OIxAYgfAEsZzzgW979PgocCuueBLDfS+S/RHiVGDXABY+tIUotwZoo0U1ApEiEI4gC1fvxPblnwPvrbFGYpKv8+u/ZPWulN1TkVIR5ZgAXvw9fUaBlYt/GqCNFtUIRIJAOIIMlD6BIeu9VP+OKezP5eZvG1pnFeZC3xdAnuLTizdBFJm+w9dYNn+jzzZaTCPQMgLhCJJxLkewpHb2cJeTH1jm26ps4VhkhShn+WzzAEKmyaUf9ymvxTQCLSEQjiCW82PgY7U9yw3Y6eAv7dnC4ZUZRcov+vDmDyDS2KnrfchqEY1ASwiEJEjxOyDOrO1ZvISd2jO0RdlVH0XKDMhPNtUh5TD59CVN5bSARqAFBMIRJOs4SFJ1+5UcS968rwWbIFOajyEzSP6yiZ4fMirTOOlnW+pPN9YIeCAQkiCli5FyTX2CBHwP8QpN5qrdEJstINMwepIygtdg/D/ydaR4rfL/1T+u+zpCPMKIeISS+YoeDRoBvwiEI8jA6n0xyk97dDKCcI8iN/CIXyMayg2WPoFLEeS+keiDnyPEY7g8hpCPYptPRKRXq+lBBMIRRAFhOU8B+3lg8kNs86TI8EoX3kO/UUTymch0blP0IkLcg2A9w6m72qBfq+xiBMITJFNYhjCGGvh+MbZ5ZaTYZJyvIvhypDrHK5M8iOAm3PJ6Cpnft60frbhrEAhPkEudPRgRj4N8V31vxUuMukdH/gKdKZ5e+Wgo2KN9KIuXKyeMRd9N5BZFs1Rsn7FacxsRCE8QZVTGGULQ6MPg9djmOZHbnyl9COTbMZiBK3ZFsCtC7oqUu4HYFcR7gJkgt4+g7x/gCptC6sEIdGkVXYZAawQZI8mPEBzfwO9F2Gb9Ha92gzV2u3Em0p2FK2YixOkg9wnZbZ43RZ5Vqf8K2V4360IEIiDIqg8g3H8CdvfwfyOS48ibD3ccn6Ghft7Y5XQMeTqyIak9Vo08i5Q2dnptx33RBkwKAq0TRJlpOecC13paLLmf16Ydx9r5I5PilZ9OMs4RY0RRswq7+WnylozkDgzXJjdwb6B2WrjrEIiGIGMkuQK4qAFJiuTNgdghlLF3gymnI6QiyhGB7JNyNUa/TW7RfwZqp4W7BoHoCDJ05Y5sHLkb5OHe3htzsBfH9+75YPFEXLEIOC5ABF9Ayjz5tPqB0E+PIRAdQRQwg6WjcOXdwNS6OAnuJ2ceHXsMx5aMC4GD/NsqbmSKzDa9C+NfoZaMAQLREkQ5lHFSCBxv3+QS7PTKGPje2IQLrp7CThsXIipEmenT3qcwyDJs3uFTXovFHIHoCTJGkusRnF3Xd6kOFYqPkE+pK7vxfxaXdmc7uRBZIcpOvgyWXEreXOFLVgvFGoE2EcTeDWPKnUh5YP2llriJXOqMWCMz0bis8/4tJFngy27JzchylkLmBV/yWiiWCLSHIMrV7Kpjka46/DfF433k8+TMG2KJSiOjMqvORLjDwLt92P6vCJEll/qBD1ktEkME2kcQ5azlqGXJag+/n8EtH9WVhwKXrNmH0VFFEp8nlsUQduqrMYy/NqkJAu0lyBhJvgXM95hFVIK4SL6NfH7Fdcsk4miQ41IKyXU3LDl3XttGQfOzaNu6FtzCDlPnsfyiP7XNHq04cgTaT5AlV7yD0ZEHgPfXJ4lxHLnF97Tq2Vkrrj1GYNR82ZaCJ/rL7rx1S+e152JUtnQSrjuMED7OeMl7KMt5FAf+o1V/dfvJQaD9BKm8jxTPQYp1Hi79PbZZJwFEcADGZhFq76gIXunb5M5at3xee67bZle/G6mWXPUSWdT48QyG/CzD6V8E91C3mGwEJocgyquMswFR50ag4E+MyH1w0r+JwvmzV1ynEkbUfIwUsOr6JefUTzQRRceVH4LSACrbCvQ1VemKoymk7m8qpwU6isDkESRbPBjJAyBq72gIuYBcWr2rtPycO3TtjPL2hiLJ/hOV9bnugW1bam3tbGz3TpHkkKbOCHGy3uFqilJHBSaPIJVZxOOarjodmzfnRoXEud+49oCyUSHJzuN1Clh+/ZJz/Gd+DGtQypnBFNRpgfqbE1VGicXkUl47fWEt0O0iQmCSCeIcgeBf6tru9u1HYdEvI/KLeu8jk0aQt2YT58tI/GzvrsU2m5MpKnC0Ht8ITC5BlFmW83+BA2otjPaM1pal1v9U9yPm3bDk816bBb5BCySYdZYgubx5G3Evdmp2czktMZkITD5BssWVSDFY46SU/0I+fWSUzp+14rp1At66E9+HO2vdknnPR9mHL13ZkoWUuaayES81m/anBZoiMPkEyTizEdT/7mG4RzI8UH8J1tSVWoFzV1w7s4zxa/WXSV9eTTTHKpqVbCzNHsGt5Ey/ZSGaadN/bxGBySdIZZlVeqZ+8gSxEjtVW1ahBSfVLKKa37jkHHXHo7OP5agbl80vVkmuI2923t7OohWL3jtDkGxxFbJyc2/i8zS2+YEokVHvIm37QBjGUKv0WZA3NW0qKJEzzaZyWqCtCHSGIJV8u3UrVIHLXAo9fuEoUzwOIdTNyyaPPuTYDKF2/70zBKkssxy1pVvvfNYabLPe7NJuLCZXv+WonTy1o9fs6VxesWaWJeDvnSSIXbe0geRZ8ubeCcAeVFLuPuPFpr5KcTb51I1N5bRA5Ah0jiCV+oTGT+p6lIRl1lbHL1g2jZ13fqNJZDeBnIOd/ufIR4BW2BCBzhFkbJnl8dGQZCyztobGz0wieZKpzNFZUyaX0R0mSPEbIC6tcTlJy6ytzvva3RIbsFPBi6RO7pjqqd46S5DBwodxjYcSv8zaCoD39vc4iMTl2KmlPTUKY+xMZwlSWWYVHwVxaB2MkrXMemsmcR4DDm68MJbnkktfF+Nx1TOmxYAgjirSqXa0qp8kLrMUApeWdmdEvtxkhL1K2Z1LMbpjOT0zoiN2pPMEUTU8XKnqHb6txrck7WaNd94qfhxEs3qJj+OW53RlVpiIB3E71XWeIMq7TPFvEeI8vcwah4DlMbNWgSS+i536XDsHSNJ1x4MgXr+Ygt9C36GJLS/QKIXr1pErI6pLn3QmePgfD4Io47KlB5Dyr2vsFHyDnHlZIuM39j6izmx9sIH/o5Tdo/X7SHtGSHwI4p2F8Y/0yUNYmf5VeyCIuVZf7yPiduxUozqRMXcyvubFhyBjv5bqZf2ddeDKY5tWfGFss2W+3kdkCju9qs2WJE59fAhSeVkvXYmQF9aJwhsIDiFnPpO4CG112HJ+DHysgf+/xy0fTSETWeKLxGI9zvF4EcRatTe4Kk1pbcVcIVaTSy1ObNCyqz6KrFQTbvDoXa2ox0e8CKK8s4qLQZTqODqC0XcIw4uejBqErtGXKa5C1L2Juc0Fob+yRxnP+BFkjCR3gfh4HUevxja/FCUAXaXLLO5Jv/EAyFmedqsTCFM5Sp/6jSay8SRIxjkGQf0a5Enf988Wv4QUVzUMvxTfJJ/yLskdzdhJhJZ4EqTywl7MIUT9naukkyTj3I5gTsMRanACw+ZtiRjFbXQyvgS5ZMUulHe4H6RXlpOLsc0r24hNfFVbxaNBqNzDjZ712Obp8XWiOyyLL0EUflnnc0g87mKLXzMij6Rk/rY7oI7YyqxTQJJuqFXIQ8ilH4+450SpizdBKkstj4zwlTDJAnZaHZdP3pO5ajfE5gcB7wQXUq4mn07u1ngEoyL+BGlGkunTprNs/sYIsOg+FZZzPvDtBob/D2V3f13yLXxou4Mgyj+r+DiIv6px1S3PTHQtcqv0fZANqu3KpdhpH9nlww+iXm7ZPQTJOp9C8g+1BDEOprD4p70cpIa+WY7KiK+WWl7PM0x75QCWL38zsRi14HgXEaRwONJ4uMbXPrk3K9PPtoBB9ze1SjeAPMvTESnPJ5++pvsdnXwPuocglvNd4IwJEP0R23zH5MMWsx6t4idB3NHAqvuwzWNjZnVXmNMdBLFy/wumvABMrUJVcAe56GobdkXEvIy0ij8B4U0C/eEwVHi7gyCZ0iBCqqKY1Y8QNrlUNpTnvdbIcr4ANFpG6Q+HIWLeHQTJlh5Cyg/X+GeITzKcapb9IwQsXdhk4ert2L6sTjq/z9N6/eEwcGDjT5DBq3fG3fh7oH/C9PFL7NR+gT3u5QZW6TKQX2vwsq4/HAaMf/wJ4nWyV0qbfFovr8YHPGPPQvSrWaQ2x9iYnP5w2HME8byPLY/R5QDqRNtyvgks8J5F+Ap503uWCTiAel08/jOI5fwjcPKEQPwM26z9qt7r0fLjX8Y5AkGjSsHP07fdQay8cEINeT/KkycTf4JknFcR7FQVGsnXyJtfSV64fHqcdTYg+UyDl/UMuXTBp7ZEi8WbINniwUihsp1XP2X3SJ0orcG4zZZOQsrve0vIX7K5/yDWLPpzoke/D+fjTRDLUS/hwxP8eIVpr+yuzxY1ia7lqAtVRzeQuhDbbHx118cA6nWReBMk49yJ4BPVQRD3Yqdm93pgWvav+YfDx7HNQ1rup8cVxJsglqNOoE6pioGgSM4c6PG4tO7e0FA/G2c8AXh/K9IpgpriHF+CWMWPgLi/xgPDOIPhxTc19UwLqEyV9Y/obMVGcj95s9EyLPEoxpcgXldtk35BKsiQTTl7MAU1i+zm3Uychp3aEERtkmRjTJC6RXVexDbfm6QAteyr5ajydg3u7cs7sdONUwi1bET3KogxQeq8oEtuIW+e2r1wd8DyweIHKYsnEXjHWnICeZ1Dq1504ksQy1GlECa8YMoh7PRXOzDMurvLjLMOwTmeTkhuJW+e0t1Otsf6+BKk3hd0GMQ2c+2Booe1ZpzZCO5p6KFwZ5MbqJ/utYehaeZaPAmycPVObF9+tcZ4IRaTS61u5pT+ex0Ess6PkDSoQiVvxE6frbGrRiCeBBlYvS9G+enaYMn52Om1OoghEBgsnoYr1jdsKcXh5FOPhtDes03iSRCvbyCuPJdC+rqejUa7HbMcNfgPbdDNWmxzfrvN6Cb98SSI1yFFxOnYqca/gn7QH8i/k0JG3VJM1mM5qiTCFQ2cHmVUHoST/kWygPH2Np4E8VpiSfkp8ukGp1R9htVyrkBwZeJqHmaH3wZTn0Dyvz2RkpTIm6ZPJHteLJ4EyayZhRitLfscRZIGq3gBiKuR8iby6Yl5tno+4GScIQTLGhDkNcTIQdjZ53ofjOYexpMgY3mwassaSI4lbzari+Ht9dhtux8Bb98i9FfY5s+aw9RDEurHh9Enai6hVbkoL8dOL+0hr0O7Ek+CeG3zwjxsc10obzP2dOhXx+f/elx7C9vMh9LXzY0sR22VL/R2Qb4M2x2IfdHL3exmFLbHkyAXXD2FnTfWJltupfRaprgSIQarQRN3YqeSdw7JcxNkPDo6K7xCI54EUZZZjtplmph3dx22OS/wL0OmdBhCPgT01bR1E5od3ip9B+SZDbB8js196lrua4Hx7qEGcSaIysxxxASswyVhzjgbEB5JDAQryJmX9lBM/bkyUPoEhryzsbBMYadX+VPYm1JxJoj6IPj5CbA/j2161wivF6NM8UyE+E6D8P07r07bj7XzR3ozxA28qnuluUr+5zy/50FsOK2cOGy2OBxfgmScpQi+XhMY2wxms+XUm4mq1Up5Bvl08m4pNv/xUDglOrlDsME2mT8jVulUkDfXdNnHLFaaz/syJbvmXcjR3zSXld/DTnvnkWquoHslLEelVTrY2wHxEn2bPsDKJYlMNBdfggwW9sc11HXRCb/2Ab6FZFb9DcK91dfolWJ/8qmf+5LtJSGr9FmQjWfPVnYPuxyr+BLELO5Av6itXhskq6LlqJxafhNc57DNCdvAXR5dv+ZnnOsRND7qLsQ+5FL/6ldlr8jFlyAK4XqnTyUPkjc/4isAVvFhEIfXlVW/isIYeutvkt9Qlh/CSf/Rl+5eEho7+6YKge7ScKllp/bsJbf9+BJvgmSdryL58gRHRpj2yo5NMyuqE7tG3+88QRAsR7KNIGOCi7DNNX6A6zmZ+lksq90U/AmkRS79rZ7z38OhmBOkcCzS+Emt7XIOdrrxHv6gczxu5dxV/ac+QR7FNuvPOEkYEZaj8pD5mZ3vQ4gN9BkbWLHI+0eoBzCLN0GGbp7Kxt+oL+oTCsL4OExnlfIgPTIwipcwNu+Lu90rNTEUnELO9Pdi3wMDoMoFqzAXjNsCuPVfIG4EdV3XrN1QCaAorqLxJohCLet8D8mnqwGU92Cnj2sIaqb4M4Q40EPmh9jmSWSLa5HiixPWEbdjpxrc3Y5rKCOyq1kBHu8p+bsY8kaGzUblqCMycvLUdAFBigNIUX3iVvInpvftyXKPc0JjBS03N4Bx7EyXyhnlijpbuxHdXJy8OEbX02BpL1y1NS5CFigS926ZUf4uOqM6p6kbCFK/Rkijut/W6r+A8rPeP3YiSy6lMg6CVfohyBOqZIPslHUudu3reWyLXR2JPz98J/KnwNpuT7IRf4KMLbPWIzmtKliCm8mZn60bQK/Cn28JG8djL7698p8Z5/gtl6gmrOLcC8gPfDv8AOmBlgPFczCEWt6eFN6b7iZKdxAkUzwRIX5QEySvNDWZ0lkIeYNnUCceV7FKj4OsXlJInuTPfYfpKkxQWYqW5SkYxrFIjgpHlu4kSncQpLIUqrsFeSW2eXFNwKzSJSBXeATyDWxzx6q/WY6qCquqw06YRRggbxbDDYgebWWt2hspZ4OcjYEizK7BPJUbKMvLKA78W7B2nZHuIoJsSbZQjdPr9MkDWJmuTvCQKa5BiFriVNrKR7DT1fdMBlfuTHm7ZxDsMWEZ9yvK5cMSmSLIz3gcunJHNo3MRspPAioBxgw/zYD/BLEUO3W9T/mOiXUPQZZdPY2NG59E8pdVaEmWkTeXV88IpVtA1k/GLOS3yaUvqDPrrAB5Se0s4i4nP+CdBaRjoYtZx+nCe+gzFEnUPwf4s058i/7+y1hx8R/8yU++VPcQRGHjVVSHCSlJG98BqX+cxHPLl98zIg+jNGGWmvxYdU+PmeJpCKGI8qmmRqt3PeFehj3gfeqhqZL2CXQXQRQOlqNe1k+sgUTIL5BLX1v5/5bza2BmXdgapQ7KOGkEtfXDdV3EcCMwWzwUxBlIdfddNKhyVcmO8A1y5mXhOmpfq+4jSOXkqXs3yHfVgeU+JMsR8i4QU+v8fRPT9pzB8tNqM6ZsFbaca4AvTGj7Zwz3MIYHnmxfKHpY8yXOTMqVg6HnNvHyJ0guI28+HBc0uo8glRnC47ZhM1QFt5Ezqz8K1mtTP8lzuIwqzWxK0t8tRxFEEaX+7D6GxaYtL/BOHKDpToKEJYmUnyOf/m5T4DP2LES/SuA8vUpWumeTH7ixaXst4I2A39lEym+ST6tk2x19upcggUkiN2Cnq7/GN4I+63wayfeqRAT/xpscQ8msTYva0TB2Yef+ZpMfIPoXkFv4Uqc87G6CKNSyqz6KdC9vWPdCymvIp4OfK8o4X0cwMUftVdjmhZ0KWE/162c2EfwK5Bnk0v+nE753P0EqJLnmbbivDCD6vjju5f1ppHwEaWygkLorNLhW8TYQc6vbu5/BHqieXUJ3oBviazbpDOa9QZB2j7Gs8xJy3Fd2tXc/Wllq1V64arctvarfz2wCk55sXBPE74DLOK8j2HaGS38b8YtcMLnms8n3sc3mHyCD9eoprQkSBMiM8++I8Udd3OOxB8aOzesnOgQG8u/F6FP5kmuPBI318gf6Nu89GcnsNEGChrXqVLF4hM3GMfpIfFAQfcoPOJ/GkJd63m5staCSDzM0QXyAVCNiFW8GcWrl/8f0iEQYt2LZRh1SfeONpSDqZ+BvM0k0QcKOivFVmoQ7m9zAvWFV6XY+EMgUT0YIdc99a/m8sUYSlXn+uJZK8zXoXhPER2w8RbLOEiTqG8xjyNETyFv/3Yo63bYJAoOFD+Ma6g7JX0yQfAFDnshw9OWrNUFaHZXZ4jyk+Dskt5A3x5Zd+mkfAtnCR5HGP9Xp4D5G5Vyc9KYoO9cEiQLNAWcOBreDLGCnM1Go1DoaIGAV8yDqJQX8W2xzQp6z1pDUBGkNv22tt2VSSW5+3zBYXnT5O3jb9Jm47iwQs5By7N/I7ZuoO8bj74PYZi6MKfXaaIJEhaTSYxVOAeMWhDiZXKo2C0uUfXWjrqGhqWyaMRfkXFzUZapZjeu1h3Qywp0tTZCQMfBsli1djJSDlN0TKOoLVmRL7wM5Byk/BkKli613kS3aKGiCRItn5NrGsqocyAgnJPK8liq7TXkOwlCEODJyfD0Viv8H7nUwug47+3IU/eoZJAoUJ+pQGT4MoeqyP0Q+rZIXJOMZS6qhUgAdNokOt7UUgyZIuyKZKV6MEGuQ8gry6YXt6iY2ei1HtscWuRnELxDiOSTPI9wXKv923efZ8fXnWb68UZLylk3SBGkZwgYKLOfHwMfo9SKYnumYgoIrfo2Qj+HyFAa/wJBPsTLtnYQ8qPoQ8pogIUDz3WTbwLkP2zzWd7tuFLScp4D9gpmu3hnk/Qjup6/vx3GsVqUJEiyiwaS3EeR1+viQ7/ruwXqJh3S2+CWkuKqJMW19X2gHEJog7UB1q0718XD8kzfva2d3HdV94dCOTJ+hyrBNPCdVbZYUF5BPdU1ZCU2Qjo6qHuvc77vIqNwbp7PvFn6R1wTxi5SW84eA5XzfR8Gd57DN6iTk/rRPupQmyKRD3uMdLlmzD6OjdwPvbuLpr3h12j6snT8SZ0Q0QeIcnW61LbPqTIT7HR/mqzSjZ2OnYptCSRPERxS1SAgE/L6PjKme9HQ+fj3SBPGLlJYLjkAQkqiirOo+TYcyKHo5pwkSPOy6RRAEgpCEyv3yAnL7AvkFsbi+rAkSJNhaNhwCwUii+niuQhTbbPbhMZw9AVppggQAS4u2gMDYi/uwj92tcZ3IezBEgWHzjhZ6bqmpJkhL8OnGgRAY2wJWJDkpUDshrmGTcVEnEvRpggSKlBaOBIGMM4QgYOVgcTvu6DmTXZJbEySSiGslgRHIlk7CdYcRYp8AbR9jRJ4+mRWHNUECREeLRoxAdvW7kWrJJc4MoPkNDPfIySqoqgkSIDJatE0IZErzQS5AsL/vHgzxEYZTD/qWDymoCRISON0sYgQuuHoKO21agHAXgO9l1zxsc13EllSp0wRpJ7pad3AEhq7ckU0jC5AVosxqrkAuwU6vbC4XTkITJBxuulW7EVhyxTsYHV1QWXrBuxp2ZxhnMLz4pnaYpAnSDlS1zugQSDl7MEWcB/I8YKanYsmHyZsPR9fxmCZNkKgR1frag4BZfDtTjPOQFaK8r24non/PqGuqa4K0J5xaa7sQyNjTYcp5iApRPlTTjW1GOqYjVdYuTLRejUANAkND/byxiyLKVya8o/wO29wtKsQ0QaJCUuvpDAJZ5/1IVgAnjzPgcWzzkCgM0gSJAkWto/MIZJylCL4+zpCnsc0PtGqYJkirCOr28UHAKn4chJpNDtpi1NNMm3Ewy+eFzt+rCRKf8GpLokBA7Xb1C1VYdf5bJHH7TqOw6Jdh1GuChEFNt4k/ApZzPoLLkewKhH4n0QSJf6i1hWERGCzsj2uo9EP7EfJruyZIWPB1u+5AYGD1vhjlmwG1/Rs4w74mSHeEWVvZCgJLi3vypliElHeTT9erse6pXROkFeB12+5CwCzugJPeFMRoTZAgaGnZxCGgCZK4kGuHgyCgCRIELS2bOAQ0QRIXcu1wEAQ0QYKgpWUTh4AmSOJCrh0OgoAmSBC0tGziENAESVzItcNBENAECYKWlk0cApogiQu5djgIApogQdDSsolDQBMkcSHXDgdBQBMkCFpaNnEI/H/3kqtB00q/VAAAAABJRU5ErkJggg==;" parent="1" vertex="1">
          <mxGeometry x="788" y="145" width="40" height="40" as="geometry" />
        </mxCell>
        <mxCell id="pbOQcnThbagH4nvjm6GH-12" value="" style="shape=image;verticalLabelPosition=bottom;labelBackgroundColor=#ffffff;verticalAlign=top;aspect=fixed;imageAspect=0;image=data:image/png,iVBORw0KGgoAAAANSUhEUgAAAMgAAADICAYAAACtWK6eAAAgAElEQVR4Xu1dB3iTVff/vUmapHu3jE4oo5RRVtl788kQRQQH+lfUz4GIeyDg/MBPUXF9KgoqoCBb2VA2bSmjlAKF7kH3nkmavP/nvG1KR9q8WW0Se56nTwu599xzz72/3HUGgw6yJg10A/Co0EbcXSJxGAAwvoxAyDAiSSmjUnYRCG3KWKgUSnm1sqZGXqaskeXUKKqPAjgNIBJAhTUpwxh9YYzBpINHu2pgmo3EaZZYavuIxM4NEjsXsUjASHWRSEmkqBTIqsoyqsoLDsqqy44AiAaQrAsfayzbARALHVWByCbGztHbX+roYWsrsRMbsxtyeXVVRUm2UFZZlKKQV20B8D2ALGO2YSm8OgBiKSNVJ6fY1jnL0aO7UCK1cxdCJTC1+DJ5dUVVaS6qKwt/Usgq3/ynbcM6AGLqGWYk/jZOXX53sHedae/o5siwSiNx5c9GqVIpK0qyqkryU18C8CP/mpZdsgMg5j9+obZu/jtd3P0CRWh7YDRVj6y6vKo4P+WqvKr0IwB7zV99hknYARDD9Gfq2otcvLr/4ujsLTR1Q7rwV7FQFuclshUlOW8DWKtLXUsr2wEQ8x2xvl7dRx2XCFhPcxWxvDS3sign4RMAq8xVRkPl6gCIoRo0UX1n7563nZw8gkzE3mhsy8qKSoqzbywH8JPRmJoRow6AmNFgNBSlS9CoCiHD2hlDvG2/fQWWbc5pwSPPG4M9CvNT0yqKMp8GcNAoDM2ISQdAzGgw1KI4ewZ85OTSha5UjUIEEDWFBPeAo6MD/tx1AMtf/8Ao/IlJQU5iWmVpjr/RGJoJow6AmMlANBTDydUnydnDL1BX0WqEdlDYOEJu4wyZjQtYRgiWEUHF/Rbip7fvw+IZA/Db3xfwzKofYVNTjoFBXvjw1UcxImwgMjKzsH3nfqxbr/tuqUpWXZ6fdukpAFt1lducy3cAxAxHx8HJ67Srd9BobaIpRPaolHaGQkSgcIJSaKuxiouDFOFfPILQHp2w6WAMHvuo9naW/k3/f/JKKq7dTMKcsX3Qt6c/B5B16zdoa77Z57l34uNkFQV9da5oxhU6AGKeg/OUl++A9RKpvUYTkiqJFyptO6NS2glA60OoBgGBpCE4qNurHh+HlY+PBTP2/XotXPnpKQR4OyJkyAy899ZzuP/emXBycuBWl9UffolDR0+1qLHC0qLUipwbAeapUv2k6gCIfnozeS2xxH6/a5c+k8Qim3qQ1AhtUeASym2h+NDcMb2w68MHuKJXbmdj2frD9dVo1Vg2fxjWvTAVgQ+sR0p2MffZ50un4bEZA/D+j4fx3xdnITMzG+mZWfDt2hldu3bCkmffbBEkpVWVSSUZV7rzkc1SynQAxIxHSmgj+d6tc/ACqcTOic4QeW5DubMFX6KJTj+aaPzSX0CryokvHwXLsth9Jh4BnVy48o9/vBcErjmjeyFk9lsovhUBVwcbnA/fgbgbt/HAw5pvv4orZfFlmRd785XPEsp1AMT8R2m5o2vXNQoHP1l1wAx7XuKyKkApg0glQydbGTwl1ShV2aOAdUGxTNSIBYGEQEGAKC6vxufbI3Hiciq3/ZozuicGPvEDd5j3Y+4g4eyvOHz0NJ589o1mYtSI7JHlPno1zqy0qkfDDoDwmnHtXqgXgM/gPzkUfmO7NJJGVgpXOyGGumRBWZSClOREJKZltiiwt5sDuni4optvZ7h5dkGpyAspci9E54ihVN2tRsBJ2b4U4ZdScCUhG3NH9+IO9fR2cj7ycjP+xY7B5WW2AUNwdkV8u2vLiAJ0AMSIyjQxq5UQSZ9HjzkeKE7iVgju9a84EYvGBiG3uAKnrqZArtDdoNHNyRaTBvdEQGAP5Et74HCqLTJLwW3BPl86FYunD0BJhQyfb4vEZ+s3wLk8oVFXSxyCUOoYtBin3v3FxDpoc/YdAGlzlRvU4E0IbHpBpahn0tXDCTc2LoWjnYT7v+upuThxJQWnY1NwPi4dqTm1h2++RGCZMqQnPLr2QLokBHvjm9tJupTdhGNFCqpVAsjErmyp59C3cOrd//Btw5LKdQDEkkarVtZGRiPPzR2Gr5be02IvsgrLcDY2DadjU3EkOgE30vJ49zjYzxOjhw7AkSxvpAhpl1dHUf+FgGFUqh7zNsLRfx3OrbrGm6mFFewAiIUNWFOA7P/Po5gR1oN3L9JzS3D4YgKORCficHQCisqqtNZ1spOg1KYz0PsBIC9GAUXFLnSf9DJOrM7QWtnCC3QAxPIGsH4Foe1Qwe63DOpBdHwmBxQCzIkYHjEahLbzoKzaZVCjFlS5AyAWNFh1otYD5KHJA/DbW/cbrQfyGiW3DTscndjaduwMgDFGa9TMGXUAxMwHSIN49QBZtXgCVi6eaLIe0HbsQnwmHvpgO6oVNep2SgDQ1sqqbK5aUmIHQEw2vUzGeCeAe4l7Q4BkZBfDpxP/V/am0pWWV+PQuXhkZJfgiXlhcHK4G1rLfe5HKCzlziqFKx8fPfR6csmK7Sdi9wEgWayaOgBiIcPLHlu9ChDGnb2dnjz6mf99CGBqQ4CMWPQlwDBYvngspo3s1WiCt9RFAsXytXu5azH6e8SAu+4cT943rJ7Hwx/9ic1HYzBuQLflJ9Y9/gSAEGbiin/E3PlHdNJCMKBNTJY9Xmt1m1NUjnnvbsW5uDTQ/52PScX2gzHcZ9sP1/5WT/CXHh2rkW9cQja2H4rhymlaeYinGjCPr9mJimr5ia9fnCXydLHnzPA7AKJtuDo+b3MNcKsII1hJDSfeKcS8lVsxuo8vBvp5cxO9IdEEp21XenYxli8e1+gzWi3iEnPqAUBgIQoJIvP55hS46FN89cI9347q5/9vel3vAEibD31Hg3w00BAgVH71puNcNfVBnQCx6ptak/ZVz06tXxlaO5/sPBqLFz/ezdX54s25GNTXl/ubLHvV9P6vJ/DCvcO5f3YAhM9IdZRpFw0QQFJySleqJ29TgPy4IxKr6wCy8tmp9avKobPxCOnurXErRdssOocQffbabMyf1tw8/r1fwuHn5cKBY+7o4I4VpF1Gv6NRrRoggFxJzFkZGtSZK9sUILRVmr+81l5w+2ePNtoy0WeatlC03dp2qPbc8sC0ARoP96s3hWPxtIH4fMc5fP7cTLoM2MdMeGe2VoGtoEDHId2CBnH+uJDwtU9PH0/f5Jyz05VknIxJ5vUW0hJA+HSfALJy8QQs+3p/LUCA5czEFev41LX0Mh0AsawR5G6yyD224TaLz2MhbbOmjWpgcKhDv9UAuZKQhdCgznG7Iq4vmffW1vM6sLDYoh0AsayhCxAImOvKo+/J6LxMotMqMj5Ue4SgzzadbHabpWvXNxy4lPTErKGzmLFvXde1rqWW7wCI5Y3cNBcH6YoRfXwL9//n0QkAHLR1gW6x6NpX0wFcW930vBL8tP8S4jPyP9167Oor2spb2+cdALHcEV3EHnt/FRhotXUncBA1fCnXtdv/lIfBpnrpAIiuM8V8yo9jj7//HgDNT+UN5GztmpdvdzoAwldTHeXMRQOzn7pnyIf/Wz5Hq1UtnT/Upid0m0WA4a6imrywt9axDoCYy7B3yMFbA2uenrrvtQVjWva3reNEZxB66yAL3aYmKXwb6wAIX011lDMbDQR2dk1M2ryccqObnDoAYnIVG6+B7cvubxac7LO/I8adv51x0pqzHTXVYFhvn4OR3zw9zXiabZlTB0DaQstGamPHsvubpYPZFnEdf0RcJ+CsNlIzZs9mfGjAuvDPnlhmiKApRSq4ONrCRURPKx0AaaoBi7zFagUgZApONzv/CHK2lx4s3ve2xhVk1dYoLPvoB7h4eHO6SIm/igDv2qDXKTklCOjVn/u7OCcNLre2ATXVHQDRoAFrA8i7AO7G8rd+mBRd+v7Z/IFBnTXmMtwdlYaAIVPg4tMbAb36NddG9lXg9mGt4ACDr5kJK4yTr83CxsTaALICgPHyipn/YPayk9jsPLN+ibglkNR3QeoCuPgDts5AVQmQH68dGFSZYcLhqZjO9F0tN391GF9CawPIOwDIX/ufRF0d7cS79nzwcPcJoYFumjpeKVeBfjwc7kZ2TyuUwcPBBnZiQWu6ygEjmM5MePvKP0mhDftqbQChxPYf/QMH09nRThIf8dVT3n0CvFrsPoFEDYyGYGmpwvHLiT9Menkj5R38x5K1AYTCDH78DxvNUK8g11dqZMoFU4L8Re8+Mh6tgYSvbr7efwG7s9NrovbdvFZaUvUwgDi+da2pnLUBhFInW2WUcQ2Tbg6AZUIbwfiufb1Qll1R8n+j+ztTEpzl80caDJJDF25jQ04SbALscWlXfFniuQxHhaxmGwDKh65byHgLRoy1AYRSH62x4PHgI/riusdQSpZZ4hfqLewxxld89uerNje3LWf8pfZ48av9WDwtFIN6NM61w4d5wzLDXv0RQYvvZlQ7veEK7lzPlykVyscA/K4rP0ss3wEQyxm18QDIzTWUgNG5l3t4l76ek9Njch2cve3ZxYP6VL597+j6FG1vbziKPv6eoPi9+hIzcQUWfdn4mYVVsTj65QXkJRfFgAXJZNWribUB5HUAa/WdEGZc72cA9K1d4tnd9eC4JQNHiO1s/CK3xmHYwhDc2JuQe+mtx5qdzn8/Hoviimo8M2uoXl3TBBA1o+g/b5TeOpVWCOBxcmzUqwELqGRtAHkNwCcWoHe+IpJbbTitGiKp6Mj05cMcnTo5cAGqYvcnwDfUGy5dHJEbkZ175Mn7NV5f/evNX5GSU4y4n15otc24lFyENLkBaw0gACrDv44+nBVfMBfARgAvWeNqYm0AeRXAf/nOPjMvpwZHoN/gTr+MXjzgEbUfuqKqBrdOpyFkaq0hrzy7svjnUeNdHGzrU6o36hoFW8gqLNeYaIdCB90/rm8zcFTKFAhesh6jXwtrVU35qcXxRz+/4KRSqnLqgmqnmLledRLP2gBCPtOf6qQB8yxcD44RD/X7LHBYl0YGmBFbrmHo/GAIbe7mD5SeKsKGZ2e12psnPtmNyBvpoNVicM8u6BfojVcWjG4GDmJCkUyu2lRA2l97xHh5VQ3+/vBMdlWpjGKYkp+81ZxLrA0gL3Ppki2b6BBO2ypGEzhKcypQkFqCwLDGN1Q3tt/C/hcfQCc3rTEceGkn5PlvEPpMrUEjHyKQHFhzrrCisCoNwEA+dSyhjLUBZHndTY8l6F6TjGpwpM5ZNfaAvZstXVs3ouNfR2Pic0Oa1c1PKYZDkgw7lt5nUN8VNUrMW78TTlNqozfqQgSSvz44c6e6TPaDtfjlWBtA6KD4uS6DakZl68Ex9/1xcXbO0kWaZKMr1tKccti72sLOVQp7Vyn6zQyCjVSE6O038PyYgXhhcnMA8e3nd6nxOF3GPxNuU75FmWU4+Mn5DFbFkvmwxW+1rA0g5Dz0Bd/JYEbl6AqXrnJjWgOHskaFisIqVBZWo6KoChV1v4c9GAKBSICqEhni/kpA+MsL0cXDSefufZtxC2eKc3Wu13yVu5iYHZ9PByRyYNtkMMN2ZNABkHZUfl3THDiENoKtCz6dYguArk15U8Tmaxj+0N3AJukxOSiKLUDsf/jbGMoUNfgy9SauVNd94ZO/pgEzg1aRI19EFtRUK93r3kgoZZxFriYGqIH3GBq9YCsehS8C+NLoDZqOIb2Mkz3V1gWfTQkGy72S60S0oti7Ea7uEpmEBHu549CbC7XyunjrDv5S5eJWTbnWsroWuLL3VvH1o8l0DUbm8gQSi7sCtjaALAWwXteBbKfy3Ou4g4fd+7NXjpmlDzhak3vbq8fw6JxB2PBMy1e/mw5dxoGKbAh7OppMBTm3CxH+zcUqlVJFwbgs7nbL2gBCz8VfmWy0jcO4/nXcq5vLysnLhtHFgvbHBg1tn/jfJXgHuSJ4UvPg1eX5lTj6RRReWzAGKx9snIKNWK3fFYE/khPhP/Vu4k7jdK85FwLJsfUX6AMyS6FXd4shswYIG77G590NByc62NtkvbZ4xEVm5Gqy/UErWyzym/7ajLVPWyhaOQKH3Be8uuc4P/Kh1wsc6j4mRWRyr+o9x/qh27CujbqeGJGJhFNpWLtwEv5vxqD6z64l52Lp0ZPoPEL3q1x9dRv95w1Z4rn0Y8oa9l/68miPemYJkG0r5j/W2cvlBQeJzSB1NiVSzq7T1/83b+XWZ1oByHMAvmkPRfJokyxfdwFIHfFQv51NX8d51G+1SNyRJNyJy0efKYHoGuJZX/b8b7GoyKvCmvkT8Nj0gdgZcRM/FSfD2cd02ypNgtIbya53wquVClXjA5OhHTdxfbMDCHvk/fEQci/JGumV7w7tHuDuPtdeYtPo87q4WM8C+NbEOtOHvfoa9+Tc98dltvTGoQ/jpnUu7riJqlIZgicGwN2/NszPnpUnoapUQuwmxb/eHGmMZvTicfzr6JLs+AL6orAYH3ezA0jaH6+t8/V0bDUY2pvfHkZWXilmh96N/F8HkOfZ21/+yPRY2noUNL2GV+9K3GHcRiL87v5PJvdmwPlQmJzO/xoLsZ0NB5TS3ApU5VQhcKxPi+0WZ5WjoqAKNrYiiG1F3MOj2NaG+7exKONqLk79eJnYUVpdsi8ze6CYHUDY8A/2gmVbt7qjS/Xyaqz+6RjGBNQOOgGkX5/Op95+aLwnoNoGhrkFRnCLmfBOtLEGWEc+jQ/jLw2719g3VXzkOfHdJbj7O6HfjCAoFSpkXM1BRmwuBwAbWxvYOUu4lYZ+GIHpp0PiuYzI6D9vBChrVJK6Q3ttDmozJdNrRMeOn1u/5PMRIX70nsGLdoTHgSmrQVxeAVY8MbF5HYbZAaHg3TZOG6Y+bzDGOozzUkaTQlF/XEf2zXxu8rv51YLA3c8ZQptWQ/3o05TOdW6Gp9y8vPuWHcuypr9G01m6uxXMDiC/r7j/0WlDe21SJ6zn07eo2HSE9fNtrWgcRMIH2ggkFP6UTCxOzlk19rwmg0M+fTK0TI1MCZHkrjm8ofxMUf/UD5ezM2Jz6TXTbD0SzQ4gNBBPzhh08JN/z6BcfFrHJT23BL5etYdRLZQOll3LTHrXVO8ktKWiW6rxYolozX2fTBrWVucNbR2nz13sVfByViEtT4hqhXkMO72PxP59e2VuUrHZxlM2D01pGOHF00L3ff7cv+5pDSRV8hrYinU8RLLMj8ykd5bwmVQ6lCH7KTqMM73G+60aPC+YVhGD3jeobXpc6zXOHz79Ww4Gx0dGAsfzMyrri351wA7FFe2/zaKr34hfrx7KuJY3nU8/2qOM2QKElLHkniGH1j41bSqflURH5Z0AU/M4M2G1obZBBAKyp6Jr3D1zVo29YewtVW5CIWIPJCJgSGd0H9HyLVRr/Q/rocDUAXcv9g7HSBB1u/E1uS76o4lNB/3kyExMekG/gBDUHueJ+NHZ7KqS6mBzNWY0S4Bseeu+/gsnh5LZ+vh3Nx4vW37/SEcTgGQDM3HFk7pMjCZl61cNNx/HH6a/PnKyKW+pyA+drkg7B3ug94QACIT8h87bRYUlk++uID8ctUNOsW4riBoUdAtWlFHGrWr0cp+XXAzPQBe4dtX94TEpMhNkjVxnEk9fMmZH/LXcRqKz4R+GglXRQ2H9FuXzHecQ2MkVc0YF41xcGrp6OMHf28AdDItC2AjH6HFwp4BttGoQQE5OXT7sskeACw2ugQLxU3Bheiku746Hq48j+kwKhNSJbku1U68uNSCgEDDi7/DfltLbBa0W5QVVHCh8+3s1sh6O3hY3r/hOeT9lDftqyNRuDrpsB/esOsX5t9QRGZQZuqJrV4SOJcwOINk7Xvvb29VxZtN+UGSOr3ZHssXl1cyfqx7UsZstFt/MTFxBcWf5EAGAzhkEjHKvbi6fTDbB20ZJdjmcO2n3KyegXNoVz71jUHQT587a6/DpJJUhUOQkFEJRqYBXDzf49PfmHg81EcMykze/ePDYwImB/jej79xyD3AWj32Sn9Eu+Y0cWHNOzdYsDRnNDSAB7PH36XVV47UUhai5Z0RvLiKH0YhVrWYmrWyW87COfx86CtlIRVMFIkEvWbmcuzd193cpn/byMOPNSABVxVXfpV7Jjbx1MnX94PuCHbr2vWtP1VpfCSi2ThLQy/nE5/V3tVW3QeAg4rsSlORVPP33+2e+pzr2rtKHKoqqf2sajbE1+U/9cJlboepe1lsaB6MNt66MzA0giP3p+cN9A7ynNO0IvZz/39qd2PneIpy4ksx9HNDJFQGdjLGzYb8By3zGTFqR2KDd8e7+znsKUkucXLo6codk2tIQ0aFZJBZoNDPXdQAoWuKBT86fKkovJeuBK4vWTXn83OZrl+lRj26w+FJeUjE8uxmuC00OWK3JkHop5/OzG6+QyT5Hjh52KbPeHcNb8NgDCZw+3XydNhWml5rdOcTsADJzeM+X/v7okUahe1Kyi1FcXoWFH2zHt8tmgSx86dCu/n8CihEO8XkA+wOUzG/MlBU3yF4obEHI7MCwzkzD+FPqibDz7XAuughFNtSXSnMrb+z/z1lWVaOilaqk7oExdPhDfRdXl8tRWVSNgXN68Xr5PrvpKkYt5h+mpyWZ6TBO1NKWSl2P/E0itsRl5yYUjmhwdhg/dsnAdT79vHh7RqoP6j59Pc3yutfsAEKH3Y+emPzdmw+NW6AeDFo9CAAvfXMAA7p1wtzRwY0AQUA5GZNMq0npuAGBukcraDxb5GCwd/TrP/dOKCru03d6d4F3j+aJm9Kv5ID8v0fqOSnjDif/EfPXLYoMTV/7e+quislvm7P8nbNqLHeAvXYwCYPv7631XJJ6KRv+gzrpi9VG9QgkrQGEHvgubL9eUJpd4dGwopuv08bpr46g6PO8Sb2ChD0Ysinq97iOFYSn5gI+XjLlGVcH24efnjW03gvo1e8O4ZNnpnFbrIaryL3vboGTnQSPTg0tH9yzi0NDHxKe7TUrRm089vVeOPV0Qb8Z3TWyObwuEkEjfZo5KrXWpqKipvTgp+fPleVX0uNYah0gGppakB1XOAVioGtUMl0/+3MMeo33h++A2oy1TYmA2tJn+vS/JYBwV71Xc7hD+5+vHyPWDb9gdV49iAEBJOd2ESa/ELZ6y4sHO84gugzY9Z9fjAj29ximrnM1MRv9u9d+S248yJlNIyWnCOMHBCKvoByXk7PZsN4+DK045BxkKMWn52Pq539g9OOaUwiQifixL6Mw971xjcKAttRuXmLRxaPrL4jrYkaRuTfF8Goa7YMDCIGSLHDr+74/AXYuUg6QTencL1cx8lHDt1dqvpoAQjdOROr3ji1LDzUCiD6rBzG4uPMmfPp5wTvIvQMguk5Y9vh7uwGGMim1SmVVclxLzkawnxe39Qpd8jWu/EDOhYZT0Nv/41IMtER0wKwuk2HoA3SMaJku74nfc+NYCjmHq1cNjb4QNNEK00sX01Vp05uklOgsVBZXo8/kxj7otI9v6m7bVBJdbLGaAoS2emQa33Db1QQgeq0enKnJb7EYu2QgBAwz4bcXDpqd0aI5nkHqx3br2w988uCkfhSQuhHRde+qTeFgj78PikJ+/6qt2P/xo/VljAmQ4A82YNDcXi3O/OI7ZTj+VTRmrxoLkbi59aysQp7+1wdnEmQVCnIKpy1Eq5EfPQNdDuclF0+Z8fpIja/TmXF5SLlwB6Meq13V6G+/QZ0gELb8Mq6PLZb6sE5taDqPNASIvqsHba+8gtzg3cP15Jalh9vEkUzXr0yzBkhYn85jvl06d/+gnl00vjms3Xwan+08h4NrHuXOJET0oDh3xRakbKU41oZT6LpfEDKlNs1ASxT+zUX0vyeI87VoSDm3C08c/yq6G8uytB8kL0mtL8XOXvYZlWWyrvPXTGqxvZxbhTi/ORZzV49D5JZrGLbobuA4TZX0tcVq7bDeACB6rR4kJ72BmPPqQTKaNUBIwO6d3d4bPzBw1pyRwZys2UVl1ScuJA2LTcnBiBBfvPnI+Pq3EO7ssWYnHps2kLvpMgZN2rkHnXpSgMCWKfNaHrfNamBMWBLx69XjSReyaNUgYPDymlu0bkrolpeOXKY9OU2c1ig/uRiUBoHOKv6DWo9OYgxbrKayqAGi7+pB20IKeGfOq4dFAKRuYJb18fccPWlQ98EuDtKa+aNDgvr1aHylSeCY885vFXs+eNjeCG8iXLM3Kkqw8sZlzj21NSLnJPL7dvN1QnWF/Nq+905XK6pqztZtqXiH3Bz+UN/YiM3X+g6a1xu9x2t/ayOjQQpgLbHXbpmrtsUiOyxdDRU19b0OIBN0ffdQ86Kzx/CH+5nt2UMtp9mvIA0Gx+X/pg86seG1e5tdKR29mIif9kXjYnJ2cvymF5tHUdNzKZn39Q7YjtN8tdqQJe2lwTBw9LI/dP7Xqw6skqX4XDoFJJj56oh7jn51YZ9LVydMXqq/CbmeXdW5GgFEYi++ct/HE3g/CqobsZTVw5JWELVuQwf37LJszvDei0f288ONlFxACdiqBDhyNQnRadmpCb+95F9SUY3Tsak4E5uKiio59+Iek5QNB6kY9rZi7jclt6TXeVp56OfBif0wpp8/l188xN8Lu87fwCsbj2DWijGtTp4/3ziOzr3da1Qqdnv6lZxb+ubF6Da865WkiMwB5F+h6WFS5xls4gp1K0izLLh8mrWU1cMSAcLpv6XAcYmFxXEVMkXIyBA/jBsQmPfI1NC/weI2WFUlwFSAYSugYioBVQUgEAKsCxjuJdtl+6m4IVcSsvvHpeT4XCstsfXs7w47F1t06tX8FZ1koIN5jUJZpqxR/V2YWvK/uhWD93aq6UQSSYQKN19nkSWsHiQ7AUQoEsg8Al0k9LLelHqM8UPwBH84eNg1+ohWDwon5NPf02xvrhoKbElbrHq5WwJISHCnbSsWTfiWmbLCoPt0kY2w+oFPJ2t0tLhxPFlZmFYaZ+diu/7G8eQf+Xxj8ijT6EbFJn0AACAASURBVPWcR/l2L0IA8QxyK5mydKhGy+vUi1m4fiwFZXkVHEi6hXXhHL0safWwuhXkj4jrlH9sp6GzhxEwsSMf7e/tP6hTvc15RmxuSea13AtV5ewLd2Lv3DS0jSb1OYBYyvaKZN/22tGyWW+PsbV1lvDyvroZngKKFUxvRdNeHn5my9JDre9djaxgfdlZ1QryR8T1eXWRRfTVh7pegEgqesI7yPV+gUBQ7uhlv+P60aT/GMq0lfrkpZhsSQCJPZiY2W9698bRsnkoiLZjCWfST6ZezjbLh8GmXbA2gFCSFl5vDjzGsq2LsE3tr9paAF3ao2y7Tt72ulThypblVlbt++D025aSbNXaAELusGQ6bolkMoDMHloNPw8VUvOE2BfNz4fdVAo8/eOVxPSrObR6ZJiqDWPytTaAkGHjXmMqqA15mQQg9EA4f2R1fTe2n5PqFLTB2P3f/urRFIVMabS3KmPLZ+1brA6ANBnhAQEKzBpyNyYWrSAxKdpf3lubeInnMxAwtAtd87Y6PykrL3lF0o/USYySrPKYiM2xf9fIVbTFsgiythVkNoB9FqH55kKyPUb5xA9dENKy6bAeHZPasJg9VIaeXWpw644Iey9IDAo9StEeyayGLhScvBqfQViWhaJUAU+RBF5KG/gKbG+tC7/wZXlhVUrqxezrAIrMNUBcS6q1NoBQ4IO/9JhH5lBlo62LpPje98bzjmzfHkJzJiYONhj56ACyIOBEkCoZjPDwwkyPrugiafAwyGAGM2HFwfaQ01htWhtA7gHwt7GU0w58Ns77eMJgqb24dfv1dhCMmtz+6jEoZDVw9LRDz9F+mHNPP8z38kdv++ZvhSk5xZGBCz8d3k6iGq1ZawMIJYjcbzTttD2juW5+Tj9Pf2VEs/g95EmYdikbvSfSk0nbEUVXIZ/4LiGeuPr3bcTuXA5vlRi7z9xolBi0qUQrfjpWfSQ6aXTkzbSLbSet8VuyNoBQRMYDxldTm3JkNT0Y5qcUcynS/Aff9f1Q1ahwasMVjH/6bgZbcnKKP5HaYqCJlnpCrsNNg1Oc+TmGSwgaGFYbqI+2V+TFyZfe/+UExg8MgIeTfYRAJPil9yOfm2P+yFa7Y20AmQHAYve8Ix/p/+C5X69u1fRgmHY5G1JHMeeiqiZZuRznN19rBBAKrlCYVqIxErwmEKh5tfaZuswfLx/B0TWPYXwo/1val789iE//PZ2zqN5y7OqStzccMZb9Gl+cGlTO2gBCoXS4cBuWSD1G+dy8fTajF8W3Iq9CW2cJF1aUfiecy+C+zR0b3BxR8DZGKKCQn/XdpdChlGKNosA3JUMBsve90xji443wz/6Pt3p/O3yFzSmpPFhYWlmUkFlYtO1E7H/5uB7zbsDEBa0NIBSI7bCJdWYS9sMe7dv/8vabMSyAGa+OhEqlgqxcAVmFHLIKBeQVcvQY7QtRA9vAooxSuPo0jpNH26tOvd01BpozBCAU2vTI55Fc3wkguqwi3/8VjZ4+tTdeN9LycuMz8p//4s/z202iSCMz7QCIkRWqL7v+M4POXN2fMEoXeyya8Jqo9wR/jW7CLZUnHpqC45Ercea1XNC2LXR2T9w8kYpLO29y4NBlFfn5wCU8PuPuOSmrqGxzl/vW8o2qr69KjVLP2gAyFcARo2imDZk8tm68y/b3IgoqiqoFFHKUghmYA8krFVyudTXRBcBfq06hukqh0yqyauNxrHpsImgl2XjwEs5fTyeWFJrxjL4emG2lH2sDCEWFP9pWyjNWOwPu6fl7zF+3FpBTEQUyMGdSx9LVZRV5fO1O3Mkvw9OzhmLmsB4KqdiGQ93BC7e3znj9Fwra/W9z7bO1AWRy3TeTuepbo1yega5VeclF0paCxZlTZ2gVOf5JBArzK3hf+XZ/eB2+e2k2PJ3t6uOXqfv07Z7Ic89+8dcoc+pjQ1msDSAUbe24uSpbk1wjHur37vnNsavp+tZS/NHVKQvWPTcDy+4b2aq6Z775K1QqFv9ZMoW76qV8Ls2Ci4uEIXqkwmuTYbY2gEykS5Y20ZyRGvEd0KkgPSbbTVMsXiM1YRI2B987w60il79/tvmEb9Bil/lr8eub92PSoNrolJRv8rFpgxrnc2k9y5dJ5OfL1NoAMgGAQQEb+CrOGOUoFtb+T87vo0M5Hc4tidQ3WtoAcjg6AUFd3dGtsyvXPQoN2yzhEYtpzKQVZnk9bzUA+f18HLZH3iBPtZOWMtHUsbD4RlI0p37RWaTmZB52vTJfq1h0e/XUPZrzJxaWVt1xk9sEMg+slmtl1A4FrAYgW8/F4c+oG5Re4FQ76FHnJrmr3fcji+RVCsxZNU5ryjOdGzBxBXoboQAMO5+cC39p677pabkl8PPSGB0If4THHnrw/W1kAWGWZDUA2XLuGnZE3bQYgFjS1W7TmUvgoMjslDfk6vZl6OfeenDvlmb+nrM3cOxi8kvrd59vNSVEeyLHagCy+ew17Lxwkzbyp9tToXzbVl/tmtPDIF/Z1eeP/kP9FDFrlujlv3vx1h3MfWdzdkZ+aeuh6fkKZaJyVgOQX8/EYnd0PAUjo9dZs6bRTw546syPMf8z5dWutkSchiiIeF/edTP/46dnTvnj57P7/1y1UKdJ/tuRGJyISd64Yf/Fxw2Roy3qWg1Afjl9FXsu3hoNgNIOmDV1DvaIyLqRP0ydqNMUwtL5wFRBsO/E5SVGbo27XlUqm92ts/N9Tna2313+4bnm5sNNOnb0UiL+s/nUrT4B3h+u33X+F1P029g8rQYgm05dxd5Lt+hF9pyxlWRsfkIbQZVAJJC2lkXK0DYJIGRHpU66aSi/hvV3vXvii6piGfnOk2MIZc3y7+Xr/r2zg2331x8cYztvTJ9aD6s6mvnGr/kAG6cC+9uhqIQOfxBjDoYmXpqCV288FYN9l27Ts+55U7dvBP4spXUePK+3EVhpZkHf8kKxsLspVpEzm2LWp13MfqHuzYnenhrSI2Ib4UxvZ/viGcN7Xvvfy//6m5mwWmvqOZMpwkDGVrOC/HwyBn9dvj0CQISBOjF1dY1pno3daMSWazG9xvkPMOYKQta99EMPm9cOJaLOfP4lbYlJjd23tuRnNQDZcOIK9l9JoCgatV495kttEsk94VzGJnd/58XGAEh2fAEoJ7y9mxS+/WszbtXIlcqDa88LKUYWAMr5Thl8rY6sBiA/hl/GgZjEYQCizHyUKH7wLlNHcr+488ZLPv281+m7xSrLq0T61Rxk3chH4NAuGvOw3z6TjgvbrscAINDrnTzInMfLagDyQ/hlHIxJDANwwZwVXvdNu9LUpu0EkG7DfNbpuoKQT3vqpSzkp5RwXobdhrWe4SD+ZGrKxR036aHvCzPXu17iWQ1Avj9+CYeuJpk9QMS2on3yqpp7Rj8+AB6BLrBzuRtwQa8RbKHS0S+jvu43I+g5vitI3JEkZF3PB8Xf6jtdOzAaNlvnRGWRc0mbzi2yU5pusb47dglHYpMoPWy0tk635+cuXR1Vvv29GJqIFAihukwOd39nuPs5wc2PfjtzUUwMpT/fPPbWiEX9FnTt59UsK3BT3n9/dJYLKUTxr7StGC3KxbKrt7x42OrOIVYDkG+PXsTRa8lkMmq2kfxsHcW7Ry4eMMe7Z+PEoAWpJci+VYCc+ELuN+U9DxrliwH39NAbJ1uWHpowYlHIV4HDfUJaYhL1exyqSmQIGNK5UUA6fRvdsvSQJcdG1thtqwHIN0cu4lhc8mAAl/QdYFPX6zasq3z4Q3212i7RpKUwnxmxuegzORDBk/gHalP3gQAy+onQD/wGeLfozsonWFxTneQmFCLmr9vc6qcmN18nFKaX0j/Jof6aqfXYlvytBiBfH4nG8bgUii1zuS0VyLct3/5eF4c/3G+QjZRXzst6tjQZBUIBKPTohH8T/vkRAWTsEwMftLETPd3SOeT60WQOgK1ReUEVB1a61aoNfdoJvScGNgpWR/XP/BxTmHY5m14+8/hJaBmlrAYgXx2+gPDrqQPr8pWbnfaHzO+j6jnGV299n/7pChzcbTFwDr/0IVuWHnp80RfTA3ISCla2BBDKOusR4KwxyBxlpb20K57TY69xfhh8X3CrOr2062blzfDU+60gNnKjfuo9YO05AzUd0r88dAEnb6SGAqB7eXMjt3FPDSro2rc+q7Re8tG2hs4N/3pLWxAQ9uSWpYc3PvTlNJcbJ1LX9R7v32J7ZzddxajF/bnPlQoljn99EXlJRaBt0+j/C+VAyYfSruTUnPnpylIAFhegurX+WQ1AvjgYhVM30+jG5iqfAW3jMg8C2ErbKy7errMUdvTbRQo7Fwl31cv39irzWh60A40DyKqH109HQkRGeGs3U8SPzg90VUsU9mAIgkb66KyestwK7PvgTCUAejixmkdDqwHI5weicDo+jb4KY3UeXRNXsHOR7B18X/CsTr3cuVsjuuKln7t/y1CYXgKpgxhd+njCs7sLPLu5agwfyk/UuwDJulUQzuctpCS7HA7udlzga33pj1eOQilXXgFABoxWARKrAci6A5E4E59ulgCxdZakz3xjlA9d37ZGFIw6My4fd+LyUFVSDa8ebqBI7wQaNVEwa4m9WMscrgXIonVTimMPJ13uNyNI3zmvUz0ySzm78SrkVQqKLNPUylcnXuZS2GoA8un+CJy7lWGO14x97d2kEXNWjWs9skGTGVFdKkNS1B0kR92BQMjAp78X5wCVc7tIa3IclmE2bX3h4EYyR5/0wlCWzwpirAl543gKruy9BVbFWuTcaqoHi+yEpkP6f/+OwPnbGZTbL85Yg20MPgKR4NWgET4fDpkfrPX9o6X2SnMqkHo5GzRYPcf6NQooralOXnLxF0fWRS6jz9oaINRm9J83cOtU2pMANhhDh+3Jw2oA8slf5xGRkEmvxpRu2GxIKBbcGbdkUGc6fxhCyRfucFa1fIhM3aN+j3uMA8jzQ8q9e7rrtHrxaUNbmYjfrt1Kisok9wNK/WyxZDUAWbvvPCITM/tQjhYzGg07qaMked6H470Mlen8r7EY8Qi/yO8NATJuycArfOyxDJVPU/0tSw89CuBXU/BuK55WA5A1+84hKvEOvWbdbCvl8Whnhv/gTj+PWjyg1svIAKLMUeSmy4dunUz9OnrHzeepbHsBpEZWg22vHiMzePI4tFiyGoB8vPcsopOyyNSh9vnXDMjBTfpD2MK+Txq6vVIpVdyVMN/EOsXppbP2f3L+r/YESG5iEY5+EUVnEDqLWCxZDUA+2nMWF5OzyA7jlrmMhq2LNP3e98bp/urWpANk8jHoXn4mJlSVnKXiT6Rx0QrbawWhM9P5X2M7VpD2mIyabrE+3H0Gl1KyewK43R4yaWhzoqO3/d+z3h5tsEfU1b8T0P9f/N8yGgLk3vfGfmvrYvtMe+jk0GcRzxaklFi06YnVrCAf7D6Dy2YEEOeuDt/0ndL93/TQZwhR/FuyqNXlLePsLzH/So3O3k/tLvpi+iow7EpDZOBTV1mjQmVhNSqKqlBZVPu7LuqJRc4xdZ8tUnhNK8j7u07jSmoOeRjVGhW1Lw2zd5MembNqnKOhYijlSgjFQp3YbFl6qN6q2RQAoeDVxZllIPOUkqxyFGeXc280zp0dOPMYeYUCEifJnaqiqogxzwxdsn35oUKdOmBGha0GIKt3nsLVtFzah2jOjdyGSnfp6nRp5usjaJIaTBe2XcfQB+j2mj+RL4g6kZCxAJJ4PgPZtwpBDlMeAS6cQaOjpx0cPOyaCUaBH/wGeE/47YWDFpPMqCXtWg1AVu04hdj03O4AkvhPJeOXdO7ssGXq8uFzbCTC5jNHx+aUChUy4/LgF6rTLXHqlqWH6BV9t6FbLHp78ezmwtl+uQc48wowQYGtd684Ia+RKw13rNdRX6YobjUAWfnnSVzLyKNEeMmmUBRfng6edl+5+zo9HDwp0Jl8KgwhCthGPBrmKtfOr9ZQ0dgriPZ2a0tQaoSr+25H1iiU9Ipu8WQ1AHn3z5OIy8hTB1Nu74EZ7NnNdVVJVtkMp04OQgc3W+4cQX4f5IDUJcSTC8ygjRTVNTqbvGfG5sac/OEyrSDc9sZYWyxtsqo/P/fL1ciU6Czyf7HYeLwN+2o1AHln+wncyMwPAJDKdzBNXU5sZ5M0fFHfQLLEpdsoirhOP2TOLrQRQiQRQlWj4v726u6KLn090TXEE2QRm3Y5G9Ne1v1LOHr79VO3TqfPUftjjH1i4Hc+A7yeNnVf6/iX7H7n+FuVpQpKXEgv6OQbYtFkNQB5e9sJ3LyTT7YYaWYyIlwMXp9+Xhi7pPXzOoHnzo183LmWV3vmGNgJIx7qq/PtFe3/964+VSyvVNSmlK31ENwYNNJncVvopKJAtmbP6hMLANAXlUVlHG5JP1YDkLf+CEd8VoEfgPS2mAxa2nCxsRUlKqpq3Ewdg1ctB4Hj2JdRqCisTpFXKepDlbQlQA5+cn5TYXopgdFqgllbDUDe/P04bmUXmgVAJPY2x2UVigmmzgHSEKTqvIESe5sT1Lb6s+4jfA4OWxgyrS2+NLa/ekypkNXQo41FzitNOrLIjmh6KHzj9+O4nV3oCyCjLSZDS20IbYSblQrlIgoaTQGq24rq4uNSc42+vfvPDDrTd3p3bWFQjCLmgTXnQI+IHn7OT+enlXxvFKbtzMTiABK+cryosMRD0VRvr209hsScIjIMzGxHndLtERdRfdLSsDbNfU5brCOfRmSW5Fbc0/Bw3GucX8rg+4L52ckbQXE5twoqwr+7lKaqUckAkNvvJksO4GBxANnz2mzHGrmYi3PZkF7dcgxJuUUUcuaOEcZZXxasja0IM18fyds0Xd+GmtZr6Ife8DPvHq55k14I05pg01hyXN4Z/+CNEynfAXCp40nRTciql1Y2iyOLA8jOV+71YmuEOU01/crmo0jOKyaf1Kz2GgUnT7uyUf8X6qBrTg4jyFuyZekhzry9aaYnv0GdykY/NsDBCG3wYrFl6SG62qUAfk3JIlO1WRxAdrw8zx9KQbNHqJc3H0FKXgnl687mNZImKDTioX7vBg7rspzs9kzAvjWWKVuWHqJvbJqEtK2pp7YO2rBl6SFNcp4EQNtPi3sXsTiA/Pn8fb0ZEdPM7/yl344gLb+EbMubrS5tOVl7Du7S26WH6w2yn9LNRER3KencQa64ROX5lRnJF+7QJUU9LVo3JfTUTzGX6Z2F3mL4eiTqLkltDboooEO6T39vihhZLiuTn6lhVa9H/nLNHKNd8uqmxQFk17L5oSqwzSK4L/v1MNILSsmqL5dXz01YaNCcXlX5aSVSCqRG2ZqCJ9K7mfGpwc0Vlw+9KLOs0Xgu+nL6Y3tWnfyZACK2FYECyPH1a9dV2qTITERsbpz5gAAZMLRL9YDp3UZseemIxa0epIN2AcgwV8nMyCIZ59CjK+1cNn8EC/Zc03ov/nIYGYWlFD2k3cPvz/1gwhY7J/FCsqWib3gyOqyRKzH2yYGwczXYwbC+63++fgy0ijSgxgD5YvqqLS8ebOQsRZO238wgdAvjF0JI2/iUZFcgevt1zoSmJQoY0nl3SnTWvdp4mePn7QKQMHdxNVhcBctGQIBogVJ4KqK4mpdx285l8yeyYI81VebSTYeQWVRmFgB5bN14l8z0qkjPABdyAeaIVhP6ls24loc+XEIclgst6h3UONsU30nScPVoCSAkx9VTWRGxBxN7KRoDiVtRaCtUK4OrTtsvzq4soQgZV3NAvh8tEcX5tbEVVSqqanYrFaqH+PbNnMq1D0DcxOTURKbpd4lFAsPgjArMNYZl76hYVZZAJLxjA1nW2XyUqQvuWDb/XwDLRexoSC9sOog7ReUUxDbfHBQ8cGKgv3MP12NdQjzJR6URkRdeRVE15JWK2p8qBapL5aDoJeSARBa/6t+azjG0z6dHOSKxrU2KUqHsbGMrSqguk1NkyWY07pmBm6/uS1hE9Voj2qY1bI9cfQkMDd19KX5wk1WLY2kjFbF9R/oGXj6ebDbGosaYB+0EEMlpgB2tQwdoZLNYlr0zpE830eSh/ZrVfW7jQXiz8rUSIar48I0qlJs84SSBRCbEX30md+tL39jGIJqcR7+IUpbmlMtUSva5prdWLbUx441RD6Vdytpw63SapOlqYqhcBA6fEM+nki9m/WgoL3Or3y4AGeYm/p0FyOpTZwrp5oN7RlOmtcb07M8H0FWggIhHjxgGv0UWyB/RuXE9K3Qb7vNjlz4eC/1CvQ3yMqRv8+NfRZdUlchu1iiUOvtc0JarsEj579TLOa8mnE13JX6GknNnhxyxiJmfl1522lBe5lifx3QyvthhbjafAgy9F+hMA3r4Y/qI5pmN//3TAfgI+QEEQERUoXyEzo0bUMHT13EMxKLnBvTrOl7qY8849XTRJRxp6tW/bscnnM/IrC6T/6J2hjJAHNAVcF5a6WNZN/LvKc+r7F5ZIkNRZim0rS5uvk7FYNlyqZP4sECg+iLjWpHFXuHy0V/7AMRV8ioYdi0fAZuWGRzcDZOH9kVuYQlibqdBJBKgu08nfPRXJPxENRDy6hGTryyUdbkINLPp0kcmXeok/rb8zdLK6o+ib92pvJiTl5VaXFpaIVQpFHKFTC4V5NQoVA4CASOXOojLi7NKkwfMCv7x95cOUhO8LjF0kaVB2d0fL5ky9o2FY10vlhZw17Esw0YMcfJo/OiqQiiYehOSQGbiCtPcX+vZCVNU4zWdjN3wMDebx1kwP+nDd1jfIDjYSnEmJh4y+d35naMUwEOg4gkQukNC3wuF8jZPlcCGr3QBK6LJrv21nWVeYia9ozYh0UddfOvM9XZz+Cr7z9fJlo0vbWImruAiyFsztQtAwlwl94Bh9+mjWD9vd6TlFDSrqmABSh7GbwXhXoDmRRXId+kjg6F12OPvkzmIdi8/BhOYCSvaJHSOSCjIuP3rS10DOqltDLX0kmEfZya828isxVC9mGP9dgHIMDeb4SyY8/ooxNfLHem5zQHCAlCxOgCExRtRRfI1+shgSJ0wd/FcqUT8+mdvLRw+uA/5dzWmsopq/PF3FLr5elZOentLW+b1+Pw/T00Z+/qDY/nF82JqApkJq0257TNEzUar2y4AGeEpCVIqWb1i6HbycEF2fvP8kCraN+sCEOCnqEL5E0bTJA9GQ11sQhkBw5nJ2EolZbvXPeJoI7GFvVPtt3ZRUQkee3MjsvNLIRGLqsuqKztfKTZ9MkySSwn8oBKL/S///obWXNU3k7LKF77yjW9byMZDrSYt0i4AGewKZyEj1isLqqujPYrKKpoppaZuiyXg3SPmdFShbKxJtduEeZi75ARYdpz6v4UOUtmy0FJJSgngaQecyHHHzZS7j3kswz5+oUBh0m3McA/peJVKFa6WKfLPFVpVcjEu5cSzK39NjSqUd5xBtGpLzwJhbpzTk86xayVim0aHc3XzdAYhZ2i+AGGAO5GFcl0OpXr29G61MDcx7QTrqQaqmNdH19TfWX94SlQiFQgaHt43mXoShrmJaZtU73G48pUFiTOH92z2+t9Q7stxqe8/s/KXFXKV3NXaVxHe37cGz44mDIa62oQzDEOhcXQmiY0IMkUjIz3IVIANwx8g1GhbD3BTgMhZZL455i5IPzktVgoYDue1xDAnowpkeumIj1LpPAQWjS4qRk8acuHTf88Y2lr9xa/++N+byVmvtMUKx6cfpizTbgAZ5mbzXxbMy/p0zs3JAYWl5Y2qVqsAsY4AUTHssOgCRZQ+MuhTpylAFCwy32gAkE/PNMt/XhxVKK+PcaVPm63VCXMTk7lNI2vfGgFqJo8IFt03dSjCQhq7sj/x0R+IjklUSpXKWhCz2BNVJJ9rbLnMiV+7ASTMVbwQDLboo4zO7i7IKmh8hKlSAhKBbisIy7LPXihStFmCl6YAob6/PFperwINAEFUodxkY9T0TNTSWCglDG4XKTDETYDyarpMv0umlE+fuWHsOiZTvjZBwzwkPaFi9con2NXTDZl5hfBycwa9i5SUV+JKSjZsdQQIRdww9R6/oR7MDSBD3MQRAmCYtrEK8VJhes8alFYz+CG6cUxhHgARz++F6cklWCVk4KoCnK7nw6WTPRiJCNWJRRD38cClIBdsntMNPz98AM0CcmiTz5SftxtAqFP6HtS7eLqib3dfDOx519Lhue/3wFfK6OQBxgA3IwvllBnXZDQ+AONVSqxZ0Bu+my6KO3vas5DUGfZKRSzmBN89Sx1JECK3QlCRX8GIa1TgZiKPCai37ANcxMkSARcmtFVykrJYMqTWaqHpKqdFvil2Nvhi5Sg4BjhBY65GJQucSAMu5gD5lZB72OHoxWz8S5tMbfV5uwJE74O6UISnZo+Hq+Nd49iFX+3CACehTgAhJSsFoi4X8ytNEgllWBfsHt4Zo0Z2BRd2J71EAF9nerHRTnE5AhxPEimfGyH/YOFemMQ0P9BedMBTIpiuXZq7W8GGABEKcPF8vnxIC/UfcJbg7XeGw8fPGby8wnIqgS3XgaRilH8+GUGL9rZvfAHqV7sCxJCDuru3N56cdnd38OD6nQh1FuncIZZlZl8okull9tLaxJrfCwfu7wVek68lPrkVDLzsWRRV4+zaKNxOKsbjfCYz3zJiAT6e0tXmjbyK1qcBrXjPD689KzUEiEikTDqXq9R0Jfy0px2eWDcRfW0EsOUrj7rcV5eAzDLkJJXAsASPujasoXy7AsSQg3q1kkW/kB6YF1abnmzBlzsx0EUPgADvXSiUGzXJpbsUxd9M5WGMqMMAxhcCv13Hj7cKsUSHatqKrlw/iVl18JYIrYFkUBclJnRTcrx+uGCDUhkDoQBIqpQrgj2w4kQa1CY7zoHO+LSPO4Y8GIwBOqZWbCTrm6cANwmOROdgqrZOmPLz9gWIAQd1UkqxUIqPH6rV3/wvd2Cwi43OKwiA/VGFcqPtee1s5gyQewAABolJREFUkPrZBPgZMTZD/fifyUDusTSsuZ6Pz4w0Kd76YzY+lNUA59KEuHSnebJQOqBP6FZTf26iVW3PdRGm91Ri1XkVZyDaxx0nPeyglIrg0dcD/YPdDZeOziQ/xAAL+mDSd5dw3HCO+nFoV4CQyGFukjyA1Ts0ZjYjxbpHpuL+L3ZgqKv2rE0a1FSgLJR3NpJvyDgbAY7+dg+M41+rQdhXTyA1rVT7wZrPdPB3xn/XjkP9WxTdUt0uFIAAQxTkruK2eO1FayMBiRBnzt3BmPaSwQwAIt4A4P/0VYDK1h7RmUVc9TC3Zg9tPNmqRkYV1uhlXdywATcpzv53AkbyyK7GU67mxf5KRNm+JKwsrsI6vZnUVezviW1vjwBlgzJLOpoKRGWhKiYXBrkqG9K59geIBnMHQzqkT12GwX8iC+Rv6lO3YR1XKa5/NxUmvTbOrgBWnEFyqaxJVBjdhe/tLMGp76dBq/Wu7qyNUyOpGFgbBXw3Bfcu2Febtbetqd0BEuoCF7FAXLsEtB/FRxXK6bTP7w62BTk97ZDw1WS0auhnaBcrFcCSQ6iuUel+O9Sw7TeHY0moF8w+h8eCvcDW2VhtqqtubePR7gAhAYe6ivcwDGZrE9aUnzPA/ZGF8h2GtNHNBXEfj0XttZqJKLUUWH0W6RUKNPe24tmmvRhrf5qOeYBpwcxTnFaLdQAEwDA3yTIWrMF7aoMGhMHmqAL5w4bwaAuAXMwGvruC86Vy6J2+amoANjzRX/9znyE60rVuB0BoBWngaaerAo1YvkqkEgSfK67WOzJgWwDkYDKwPR6by+XQF8wLPx2PJT5OXBZas6cOgNQNkd5mJ0YdYmZ5VKFM75UsxAMX3h2JlkwvjCLpL3GQ/52I9wF8oCfD8D9mg2IGGyd6tZ5C8K3WAZC7AHmWYZiv+SrONOUMc8Od4IeDz4TCpBll10Si9FIOltbl/tNHDav+mN3YB0QfJm1VpwMgdZoe6ABPG7H4DMB9u7UnrdY3bu9DwdgyuwcWmlL4l8NRklHGHbD1fV3e9sds8337aKq7hfuAzbP+4bdYaqUMcRGNFwgEe/XxVTfqpGSZWVFFsmYR5FtrY7iLNKC7t+Lb2b2UBhkoauvHY/tR5S4SzciorqG0ZvqQ80w/UfgIH9VAdzsWrrYsbz9+fRozpE5mKYNvooVY1Fe14b0I1ZOG8NK3rllc8zYUfqibeAED/K5vh4xSj8G+qAI572vnMDcxvUZvU7cd4FprouFhz8LTrva3oUQxv3bcZBJisoRBrjaCX6OK5I/qw1NTyCVHCQs1WBzEAPmpSEX0G5DaqP9mYYjxYUuyklkLGT+WyRjud6kMnGNWbiWjKKpk6m2HVKxqdHRRzVl9+mxIHbMDCHVmqLtkKcOyXxjSMUPrMmCmRRbKDvPhE+Yu3gsWs1orKxGBlYpYpnbi1TpNqf8WNfZirWdzpxyyMhnKU0oYNwehQMkwd2289A2YEOYueQEs+yWffjUtwzBgxQIoxSJWJRZCJRWxrFhI/SLvQK5vjJKFUK6EsEbJsHIll1irRqGESqFkWIUKkCkhVKggVKoYIctyASp4zUGWxd4LRfI5+shtSB1ewhnSgL51h7lLnmNZ9hXAOIZ5OsvBMEujCmTr+dQLc+MsAXjG7OTDkVcZvc5KYW5iWunM1v6qpZ6zLHviQpGiza+mzRYgpKhRHnZdFCrFKwBD6Y3blFiWfe5CkeIbPo2GuYp3gUFbR/fQCyDDXG2eYhnmf3z6ZV5l2HVRhQq9UmYY0g+zBoi6Y2GuojEsBK+0oTlKHAM8EFkov85HuZrC5/CpZ0gZlUo1Ibq4Rq/A1kPdJP9jwD5lSPttXHd7VKH8gTZuk2vOIgCiVgx3wFRhBsOyM1hghikUxgK/C4D3+YJDLcMwN8kUFdiFDIsxYBBkCtnIRwwMToPFxahC+WpD2ghzt3kULEOrnjlnn40Ew2zmu9U1RB8t1bUogDTsBF2rKoXK8QzLaI3KwVdxLIQbLhRWpfMt31K5Ic6SbkIhgYR1VDGsIwOBAwPWESzn1yBlWVYKRiBlGFbKspCCgZRhWamKy1vDVIJBJcBUMlBVgGEqwTI5EKhOR+YrLhoqm6b6I70dvFi53LtGIPBiVCpvhmG8wLDeLAvKguXNsqzOUeYZhqEAyuTtXqFi2UpGwFQwLCpUoN+qCkag/pv+raxQskyFQCSoELKCiiplVYWwGBVGcmIzSGX/D0pMfF4kUc4aAAAAAElFTkSuQmCC;" parent="1" vertex="1">
          <mxGeometry x="926.75" y="45" width="40" height="40" as="geometry" />
        </mxCell>
        <mxCell id="pbOQcnThbagH4nvjm6GH-13" value="" style="rounded=0;whiteSpace=wrap;html=1;strokeColor=none;" parent="1" vertex="1">
          <mxGeometry x="885" y="240" width="60" height="50" as="geometry" />
        </mxCell>
        <mxCell id="pbOQcnThbagH4nvjm6GH-14" value="" style="shape=image;verticalLabelPosition=bottom;labelBackgroundColor=#ffffff;verticalAlign=top;aspect=fixed;imageAspect=0;image=data:image/png,iVBORw0KGgoAAAANSUhEUgAAAQoAAADICAYAAAAQnK/CAAAgAElEQVR4Xu2dC9QeRXnH/9HKRQWCgi0FJFQB0doERQErErydimiIFhEBQSvESzFRRC3aAgehqASCUuTSI6GCVhSIXBVoCaCgFA0ghVpUoqYWFAhgW0CU9Py+3fneeWdnd2dv7+2b55z3fJd3dnbmmZ3/PvNcZylS5EDkQORACQdmRQ5FDkQORA6UcSACRRmH4veRA5EDikARH4LIgciBUg5EoChlUWwQORA5EIEiPgORA5EDpRyIQFHKotggciByIAJFfAYiByIHSjkQgaKURbFB5EDkQASK+AxEDkQOlHIgAkUpi2KDyIHIgQgU8RmIHIgcKOVABIpSFsUGkQORAxEo4jMQORA5UMqBCBSlLIoNIgciByJQxGcgciByoJQDEShKWRQbRA5EDkSgiM9A5EDkQCkHIlCUsig2iByIHIhAEZ+ByIHIgVIORKAoZVFsEDkQORCBIj4DkQORA6UciEBRyqKJb/B8ST+e+FnGCTbiQASKRuwb24sBhzdI+rwzA/7/CkmPSrpV0t0tznCepE0kzZbE7z5amf7zuhbvG7tqgQMRKFpg4hh18VeS3irpMkmnS1pP0j4pOOwm6WFJR0u6qeGc5kjaIwUEQGF+jf4AKoCDzzdqXB8vaZEDEShaZOaId8Vm20XSqyT9p6SjJB0oaUdJ10j6nKRLG8wBYAB0+AAUbdJDklZIOjWVdNrsO/YVwIEIFAFMmoAmH0s3MFID9D1JL09/R8r4Ys05LrDAgSPFIGi1pGMknTuIm8V7JByIQDH5T8JCSadJ2lLSMyX9Jp0yov3bJf2oIguQFg6WdEgHkkOVoQAYH0oljSrXxbY1OBCBogbTxuySCyV9QtITki6XtIOksyUdVnEegIM5WlS6dO7c7TVv3nM1Z87vNH/+A5J+OHX9fEtzceut0kMPSatXS/y+cqV0221Bt0GH8S5JAEekjjgQgaIjxo5It8+T9DpJZ0i6RNKbJJ2f6iZChshxguMFon6w3gFg2Gef+Zo/f3PNm/eAZs9GePluyP362gAcK1Ykn2+UqzMZ47GVbxIvCOJABIogNo1tIywYbJ69U0XlDyS9NHA2SBDLUnNm6SWAwyGH7D0FEHPm/ETSRZJuKL0utAGgsWxZ8nkY24yfonQRytCK7SJQVGTYmDZHmthJ0lxJD5bMAXPmOQW+DtOXb7PNFjrkkDdNAcScOX+cGlMQXq7vjE0GME4+WfqN0bb03w0LCUcRrCSRWuJABIqWGDmC3Wwg6TFJL5P07fQI8c2ScSKBIMIX0oIFe0wBBNJDj74iaWnZpa19jy7j/e+Xrrwyt8t4FGmN29Hq0SIrR7Yrjg/3Sfr7ghGii7i2SIrYZJNnasmSd1jSg93bv0l631AY8NWvSu95j/Q//+O9/fLUMoKUEakBB6JE0YB5Y3LpFak3Jm7ZPio8anC8OOaYw6akh9mzN/Jcjz5ikaTh7cX//m/pHe9ILCUeQpO651AHOCYPStEwI1BMwCIWTOFtkjYscE4CJJAkMs5SRoIAJIrpLEl8hkv/93/SRz4ifeELuWCB3gLQiFSDAxEoajBtjC7BcpHnwZgLEnvs8RItX35MqqAsmy1+V3eUNRrI97//vXT66dJRR3mPIog8SBYRLGqsRgSKGkwbk0u2Tn0ffDbKXJA45ZQPT+kiwmnn8KYDaPnb30oXXyx96EMSRxKHAAu8OdFdRKrAgQgUFZg1Zk05cvj0EhwzVrkOVBw1li07YsqaUY1GCygYO2bT739fWrRI+k/C37K0JA0wqzbVGdw6AsXMWnyvdQOQWLnyLM2bt30NboweUDCJBx6QfvhDaelS6TKC6rOEVIHeIlIAByJQBDBpgprgSIVSoY8uvvgkxyeiyoxHEyiYAb4WAAZg8RXcPLKEvoKguRgnUrLkESiq7InxbosDEg5VfXTOOUfXOG7YXXBUySoDRoVVd94pPfqodOmlCWB4/C3QWwAWfuPqqExkyOOIQDHkBRjQ7XGhxAzaR4sX7z+ll2hGiyV9p1kXHV6N2fSuu5IboK844givkpOvcUwjLmZ4DiEd8qFp1xEomnJwtK/HurFNquXv85XABIpeojmRdOpLzbvpsAcjVXALFJ2AxQ8Ij8sSR5Hob+FhTASKDh/QIXVt8kYgRXizTuFteeutX87xtHxMt976Az388K+mjCbr1iWzmD9/d0lbeaY0PPftEP7iW0F+C5fOOkvik0NRunAYE4Ei5GkbjzYAA8rK0rwRc+ZsoTlznqXVq3+p1avX9s1ujz2kefOSD4ll5vT1tkWaQW8vJ1r93ZJuH0ku/eQnSUKc9daT1l8/OYYQSHbttbmmUzMPFJxIF1F3EVPhjeSzXWdQp0jCNyCY5s5NQMCAAj/7QaGsq1dL+oik50g6Lz3il10z2O/RTyBRbOQLUUEZ8ZD0zW9KZ5whXZdfIACwmPEOWlGiGOyz2/bdOFogRZCizktz526m+fPv1+zZiYTAT0ChHaIMyJGSSKR10EhbP4rmi97iooukE07IlTLa9LkgWznrhtL0Z+Nimo1A0c6OGUYvuaHhJqBryZKnafbsf+h4bOunxoL7JZ3U8b266x7J40c/kk49NVd30RQsAHNA3dUbccShb7TCI2txiUDR3bPXZc+5IIE1Y8WKpZo9mxo+lO4YFHGvL4/LC9LLFAMWJPU97DCvz0XdYwgyHG7zRTTSmbkiUAxqH7V3n9yAroMP3nsq6lMiR8R+7d0xuKf3pwXIgi8YuYYElWFORemZAxakFKwSgYo6GJAIrXsykpm5IlCM3KNaOKAAkOD6dt2qn3hCYgOZz9Ofnq8gTKoBVC0VksyZmAysE698pcQ9hkW/+pX0i18k+goS4jjEUQGwCD0m4OhWtaQinqIjlfMzAsWwnsbq9w0ECWoP/zq4d0Dg5z+XfvpT6cc/TuIj+HvDDaXnP196yUukP/qjZONusUURQATfsq8h9z/ppMTX4fWvl/6KumUjQMZJK8ffgk3MZi4jLFFYpKZpk02STOIolr/7Xenoo70KVEBo2wpgVDaOxt9HoGjMwoF0EAgSmCv9Zv9zzpHuuEN68EGJN+aaNdLPftZLff+0p0m77Sb9+Z8nH8ABevazk0+eibHu7JFOjjtO+tSnpHe/W/rEJ6Q/+ZO6vbV/HcFkgCaEVOEJVy9762f0EoAE6fqwOuHfwZoce6y0zz7eCFfyZuD4NRIUgWIklqFvEJxpSatvqoDz03u+7ekkuP4f0zo/2Qntv7/0z/+c/f/GG0u77irtsksi7gMIhp7xjAQsMKe2TRTzwRR5883SiSdKBx0k/THZ/keMCFMH0AqOILz1feRVNuPkhSSB9PTII9IXvygtX56Ewx9+eMaXA5jK63/gnIpAMXCWZ26IXZ0zrAGGoK3ZDxJflfRZ70zY/EgRhpAcEPchHtI//dPsZRwxAImnPKV95tx0k/Ta10o4QwESb3+7tA3RKCNI6CmQvqCcIwhBZG55Ay9InHKKtGRJAjr4bZx7rvS610lvelMiufDhdye6ta6VpXVuRqBonaWlHQIM2NQNOJRe4DboBwmSbP+dt4+//mvpHyw3Ch5Ewq0hxH3qYtiEi/NWW3UjRXAfPCH33DN5owISjGf77aU/+IPKLBjIBWxoc+Tgd89GdnUJXl+Jgw9OQPnXv070P5dcIl19tXTjjck0zDHnmGMyRxAKKeY60w2ECelNIlB0z22OEtTvBBgaLzql+1auPDMN6CJ+mnoa2aIWKMrQOUAoJT/84R4wvPjFyfnYJo4YgARg0RWRxxJFHgrL971Pet7zugOlNubAsYNjgSFAFp2CQ+gSCJhBcZnxecVVHmD83e96RZfRAV14ofTGNyY9mfvkHHE2HQWlZgSKNp6obB+muC/ZpKqaxnJH1A8SNPugpPS15Fz1mtdI//qvid7hW99KfAJMaDUp7V9G/bCUNt9ceu5zu2GE3esLXpCYHc8/P7n/llt2f88mdwBsDVBg/YGQKjxJe723ASRQXmIxMv0cckiiD3LLChh9iKf/kTh+RKBo8iRlrwUUCPPOpJsLuQ3h3+StpI7nqaf2527DLZvQ8KTGJ5SvvOSthxgLff3ryZn4XWl2SKpqvfe9vdGgixjUhp01S3rb26RPflJCqhlVuuYa6W//NjFfGsLqgyJyu+0k6p6WEVG4VGFnzpid77030VE89anSVVdlgdlEuXrS9o3E8SMCRdmKh31vwCFYejCgMH/+SzVv3g7iJ/TQQ7/Rnnsu0q239tJHZ5Pf3izJUTCk43zyyURBiWfhxz4m7btv8gZHmYY+4Mt4Wae06aaDNUmyaTjyZMPXw5jcVSsUlnffLf3TP0mXXy7913/l32nvvRPgzYs2BSCQGt75zkQngRkaa8fxxyfOZOgnsDK5ZJy8TPZw63v0IBw/hkoRKJqxH4Dg3V2aA4LNDhhQmo+fPcmgfwDvetexWr481TimX1177ZnTQJLUHUYk8BfdIYksdv+//Evp4x9POjAae3QEBxyQ/I9Nu8MOEmbQQRH3A6gIZ7dNsYO6f9590BfwlsfaA/9yUvznDhOrDeDA5w//MLEyrV2bOLEBPvSPtQkQwtLhI1txCpA61o+qbuOtszQCRT2WIjmQqLZQggAcAAZqZRiJoeh2PpDIJr9F7rXEAqdDnHfQTfDmNvklAAp8F9ikOP1AgzxymCHiz0HZPxyOEMHbIo4I226bbNK6xBv9X/6FY9GWWrToLXrOc56tY489U6tXFycOxrOS1Hps9MceSwACHcb11ycgcd990lvfmoAI0kgRIU1A9OdILEN3vopAUe3JKs3/QHcLFuwxBQ6ARCghRQAUNmWT335P0gdyu+RB23nnpLq3rYf42tekf//3nt4CERjFIm+5QRLHHzT9HIGaEGf+G25INjZKW6N/adInGx1pYtNNT9S++752qqvbb79bc+fun9vtBz4gvfCFCSggRTzrWYnCmGMMBDgwtle9KmxkxscCQHf0IEPXU0SgCFtDWuXlE5juAf8GivrmHSvybrVixUotXIj7dY/6fSXM/wEJwMJP6CTwwMTjz/aoBEB4eHFugjCDNnn7hrOsvyVvSZSBdbwwv/c96Yorkg8WAo5WHKVQigJ8TYkQ8wsuwKR8Sd/6zZqVH2B3zz09qQ1pAl0EIIa0hmkaPlch4+Dl0VMM3UszAkX5SpZKEbz5lyzZvzJAcGuUligvUWIawgyKhaOfLpD0mcLR4i+xcGEPEExjxGHiOhD5CfZCmujC67KMlWyEDTaQMMeGEFIQVhtyXAIUhgAJpKbNNktMj0gobRxlCAS78srDtP/+b9H551+hO+/8qZYv95cZYywm8XDIXELaGIUmbZEMHRqqP0UEiuIVxIHm4jxlZbWq39kbAQ7bbvvmDEj0HKrMNfdKeo8kfvqJjYQHIBYOQ4AChMs2yjE26dZbS88hzWUg4U35zGe24z3JRmAMxJiU0e23JxabPMUiSlgUs/iHID3hvNWUsFAcemiSRxNC8mHueWMAgNuMhbEVmp5ANCqxDy3RbwSK/KcLXwhChDOxFygpySIVoqDM6z7MDGquRpJAosgngqyw1QMWECCBgo+fgARp3qAdd6yW6wFPSs7ZRgnaZDM+/HDi+QlYFBHSD96LRWZKcz16j913b8eSgnMUFgcfmWOB/aY3QV5NeGJfa5cW8PhTDFWhOU5AgQkytEYkLtNIA7fVTACCRcMN9plaUxSVZJGaPTsntXPgU+NaOPILBRcrMM3tsN/j0GM8LDHZIZpDjz+ehJhzlq/q6MTGQcmH6bApcY4HKDDN5hFggrUGSSaEkJCQoniz580N9+mm8STGzdp+05tAr5BxhrYxlg9PEBo5NStlWg+9Z0i7cQAK3ui83UlAWvT4ACRscJSORgqoY3/2FvJlIwMQVSwZeQuwZMnSjOdlfqHgYgUm9/jf/5UOPDDxeIQ4tyM5GOJNhQKQzVQtJT9WAOmWW9oR7TnTF4EE4wXMTHRryANMmzPPlF760kTqQWmLZIUEAFiysatadwApFK924aAFC5LU//abHtOo8YANHWtZO2P58Cg0KSgQbkYru1HF70cdKJAKeLMDFHkgAShQANOVAEiFXuoI5fDLCxIoFwEJ3Kubks8Mml8oOD983B4HCj/O14jgkC1NmHZIFGjjjZQRMg9Cnzm+kGwWb8+uFaC4kv/ylyEj629j3vK89TGXoux8xSuq94PLNeHf/PQRxw58JMyRaPHiJMitTTJAAR/e/Oa+nodq+RhFoCB9ygOpZMAyICHkJTMtqo5VRVQLyGrd7KjBkvssHEcffdiUSTVLOPqgwLyv9Dn8m79JNgfkShPmYnQUAEiZfsC+GWd2wsJxO+Ynir2uiE2BdQPfBFLmQxtuuL4OOuiNevTRx3TppTf0KX3tceASvd9+iWMTYFjVXIoEgbWI+UJIDziuIX2hnzGZrty5c9wz17TFF+5F2DnksXwMbb8O7cYexiI9oNlFgYgEwdu9KN1YWXUssgOF6jTIkpwJEfb7MtR7JFBe7rTT/lq9ume5KO7/05K+VnozxHlSypmQZZ80QScEHVW1DJBDgY3CeZmN3JXvBaZOnKcIhUcSYINsvvmmuvTSU7TLLklmHUD2gAM+OWWyNMR88PYkQxYAEWJN8TEUEGTDIyFwlOCIxt+AByACT5EcAA/IHJ+6AAokCROd6okkrXOULn2GQhqMClCgpAEc2KwGJPIkAu/bf6ut9Ps1a2Q7Bocy1XvcyH/Th7DVbvPwVCj4woWnacWKnnRQXE2cmhyHB91o1arkTI7JM0+aoCMSplQNJWfTEIkKUJCVimNI24S7MgpOlKYm/gNHqte85jCxBjatXPn9KZ8TTKNYdwAJ8myiaC3TfeSN24AhLu94UkKAA3PlpwkVt82g/I7StWugsFMDpOMfmol0FICC4wMpzTlVPprWQMBa4St85/VrQKlkxETrgeC4AmOLFKCZLMlcn68zCN0mCTiYz/LlD/e5GWfzSrj9koyGKuHlRKYkXIehPGmC73hTVfWINEBx5JHJW7uqxaRs9HiQ7rVXomzEjIufBWI37tkPP9wPFAYkOGZwPCGfBfOpK0WYse20U3LUsJWSZt4+kOA6QA1lZwSKshVu73sO/rdIuiQtYmlqIPiQM1NIBS03bwREQt4AnrNkUdIPA1B9s2kGEkzlytQvBrDofzvxdzavhMtM8lAsDeIweSdJUEuuhCJpgs5w5qmaSdtsCOJGOB5U9cEImoTVyM4oddddu+rAA0+b+va8867QQQf93XQMC0cgpIim3phYNXh23OcG8OA7pDVfnVbDly6sHvbRw2MiHZovxbAlCjYrGViodmuOHD4zUOa4sfHGWnfddZrFQrKoLC4PD+Kala4sz6REf/e4zlT1dRK48gEQ38nsDc65thY93wzKpSRCQIEZVpcD7TvHDgigNJKFb4OSp6Kq1cJsCEyvxkcj1P26KkiY9rYb85137q7HHpurE088TR/8YJIZqs04FebE82OOHAbYMQkXSQtDBApfMt+6rK503bCB4ghJVHPAWQCjFI5SPiVkX7WljTbSk9dfr6cYtEfRxLmWxcXObTnF5CX9wC27L38ljlR4W4YTqa1JbMunl2TGvt5YDcz/yu/x95IuDBoCG5/YBJypukpAYzYEysUzzkh0CFX9MIIm4zQymn/Cx4miJBEvikuOVm3msQAgkEh9a2brLNw5GL607ZnJfUokihkLFPg+/CA9eqxLPSld3QQbmo09TfYCIa5iGuOtjR2e3IaY8fAmTMkFQyO5TDco1xm4j8o1kj6fSgD5W8Fo02nBkWP16ksLPDqRRnAHCaP7708CvbpMQGM2BEFk551Xz7MzbDbZVigSAXysLiS8AaCa6iNcQOBv12XbKDeL4jgAGPwt7OjRuvN0r4tA4eckQMFrlHzRSA2uToEjAqbLaccp+1yI4gsPPLI6m8SxntvYQJE5cuS7TuctPQBxbulzAXBx7DBUbkVZJCnNXFLaexK7QQxHlwloDFAwHLwzoRe9qJovRsBUvE3IyYB1A6sGUbEmwK1uf+51rI8xd9rfocjkKJvndGXAxdTiaGs8ph8bKDzemTNaojCel5gp3VDavrc/oqdRPNkl3zxmJHv9bKBA0EzDppImp5zyYS1Zkq1Em30ASI0PSJCvspxs5Wq5NEHIZ1+JysIb8LbFLwLJifwOVXUP5aNPWthAgdMVVoZBpLFDScsmQUHb1f3goS/yE70F9+RnHqEP41ksApNQHrvtbIerCBQ97uybehUBFhwx3GOH0VtMXWHOjTZI8H8HKMgGhK4Dst24M7Ugi30Z7CW8SBIa+EeC1t+Ir6ZxsSXlF6kCM3XHC7gDuRix4wMSXXpLslmMl6SJpxiUnuI//iORXAahE7FZDjiyfkX35bjXRUAY4zAu3PwegaK3MmQmYPcBFBwLXBzHMjF97MALEZ0ESjwCdAw5rq6YVumPilx2CrE+hWi5mdL0fhbpaQO2b6+JLU2QbRvdRD4d76pgCu9FABibCOepri0Qxp/AgDGAXCcCtRLz0sYEsXVx5CgbC+BYFL+BJILyOM90WtZ/2fcRKIo5xMbG3drRQQsF5xTtvnti6bDrQeYABccXQAeHK2JF6DvjfVmuM6D36iBRTZq4QRKm8XBCmiBkuqqXZfgdei1tqw2JYY1TUlvp5/LGRFg4OSirJNipMz/fNayfbS5128ATdBuhYfBVx2UKAXGdR6KY0Z6Z8ITNTEiOm8EH8+ZU3mhj17YRl/+zcGR2TgkvJxNijn4D8MkU5OEtT6q54pwS1UGCMbiWjoceKkpKdGiqqw17nKiATVZn3rR1XZbD7pS0Mv4p/G7XBOlKb2DGhpK2yyNVHg94ljC5F2WtQtqAL65ZtQpfi9qafBS08STZDQ1LaGs40/0M24/CDASg8CWKmdZRbLmlfrtmjdazGTmFMP2FXd1sxd44jnLvy3ogYW8sxlYstXxJUhomGbismONQKHZZH9Qdig1IxvLRtZ6C49Ug642YOecpOG2ecDRBj+GzmAQuY24zO8MVjTyemUPbr0O7scMtk5jGZWKfDwX+E7Ybsqeoq4k2RaowUah9fZbrDOqBBDcx9nV+L7Z0oGPFA5PatmGEKE5MRFU37LDe81shPeCvYd5wSBYAFfkpZiIBEF1YO+ClnTPTAxR18qu0tkSjAhRFE0J2RzGJyP3I2WdrYzYLILFoUcLclIy7Nm7hgIQvqKwk4Ks+SDAGlFzm7FrsDn5cqmcNX0eOHW06HIXe2TaRnnRSz0Hpz/6seuao0HuOcjuOHkWm0yZjt93X6cfJmxkzXJUwF6sHiskpXcVHP5oUuvWIZUgTuDbmpgsrliaqeUa6Y3aPHfkxHdUVmHXiNJo8sPa1tokUqwcfCJfqNjNQtzXeLvvBx4E5dzVvV1HvmP2rJGJqnQ3jIFEw6elw8B131LovfUmzkCRI7OHUaOxjEO7cSB+mPFu+zgCdKUV//TEbIVx34zr664XaPWDlACzGg0wcDaM1sTT8TgRn1QI34zHj4Y3SVdSTLMhKDTg0r0w4Mi5A0ecsZXQVHqliapXRmBMnACJjhTDHk7Vrr82xdFTzZfA9SmFAUV2aGN5jm9zZnpdt+UDZSAxIpPY4gFRa4h8U63oEsHvaVErKNIAAAEBPYQq0EGaOlEHmIyQJ23SarzMg3gygaEYuUPiPHkdJuqryjXiAfHkRKndU4wKTYNdcaiwf/I0rc1fu4zWGOtaX4LZ+F1ECKXl8KIZmGh0niYKx4jw1FV5pohltpgIMbvFb23Tq37gcNThyBBaRKHkUTYo0mmVDyp+QRLVafoZTmQNQeE/1W9omUtvyhAv5MBSs9Wcyule6ikxHWrb9g4YyiXE5esCcvuOHiT0o4po5duQrMU+U9PXWGG+7PNNpv56iurIU/QBWh2FJE4YxtonU5jsSXNX0eq0xe8I6cvUTnvilvvwpg57+OAEFvJk2lZJ74rOfzUoRNEIBdPbZ0qVpiAVFhJctI0eOTYSRHCDpt63xHNMom4qArSlkm7f9FFgkHqAUHT45+F7Y6jnOtF03IngAVkPbRGoDRVcJc+qMcdyvcR0Jbd1a6uffcgWRahwbN6DoM5VutJHW7bmnZpGTASLNOXka3KKyq1Z92VO8B76fV41bAa1tKwHNeyB1giSiUMvJ5HLkZ1emuPJR9Frk+VKQI+KFL6zSU2zr44AbDe2EJXDJ0GI8zHjHDSimXtSpZDHlV1FGeEhm4y0oR3VgcNh42T3c7ylvZyfSSfQjpNwqT0yDVIKSkDDmLtyEq86F9nm+FHzHXCM144B77HDCEoaun2B24wgUjBvJgtiQviQ0vuXy56k8I83p22yB867mjWD7eMyevaFWrdpAc+YUu2wDEoicZBdvuwJVk5n6ws1Nf0gUbWefajLWcbvWzjxuxu4cO4bqaDXOEoX9LBDTgSemcdfGfEHcyFzTyO9kRf290CJi1R89zpuueQuFJDkMioj8kFg5usjFWH0WvSuKgIJUdegqItXjgOuNiV7NyiJPp0M1i04KUPhWpy/ZTdZD8nZJ7663qoFXmZwCrkNYUVFbo9voovBt4LBzmxUBRbR81OeuqTJvO1nhF2QpNocaCGbPbFyPHkWrM53shkZZReYXJZ1ef3UDriSfpQkOc/N5+lK8G2ctjhwmniDgNgNrUgQU0fJRfxlcaWKUUt+5s5o0oMjkxVy3Lk0fPT1zTiZ31F/dgCttLTam2gMO6LmRYz7lCGKsGXadyy4qTwUMt7SJHT7PGNG/GIqWj1L2eRv4dBOONIESE11cO96A9YY5fdWkAUWmTGA/UFBWa++GLAu73Pbbd81dNiCYjFhkdR4Vc6g7wzw/CtNulCwfTzwxHuHvrqVjlKUJ1nmigSJrGr1A0mfCdnrDVnZ9BrqyjyBIExSYsX0uiipTNRxK48vLgGLYuU7J+e4AABXkSURBVCmQym68USIcn9yeo06uuzbjdSJFR0qamHigyKbjp2Rgr4RYlw8UCiqyhSNiQgAHD4MhlJYmFb5dr6TLMdXtOy/Ww/TXdfFie9zXXCP9/OcSCmPAgRgfKq0fXGoorzv7dq8zNVnsXj1R0EMNKffNeKIliixQfELSt9pd+YLeXI87x5Fm+souali2NUk7epTwfZ9/B8l+UcR2TZgNTSZwjmwALyDRZj3SLudAhChHDtvK4cnUhqUDXdtI6CYMP2YYULxP0r91+Sxk+kaqePTR5N+eHJ+FVbMHOtCcm9mlEUkExNvPJSSizTbrfrTk6SRRESUk99orqUk6jGzddWYKSJB7lJ+G3DQJ6f+H7q4dJQrtJ+kndda59jVuwlSr0vpUn6MsTTA+2+JBno8j3Ng6SYPwpTAmZAIBkSbmzk1AYxRiYcoeDo4bSGa2JME1lJlwJLSR8MKccUBB1CZZrXr0ekkPlq1r69/bGm77PGpqlbR+wxY7tKue2cl17VtsvXX3xXo4dpDY5cgje4WSUQYTqYsVaVSJQEUrnd30MJmPiW5O/3lbXkLoUZjbRB89YHC/eXTnofDctpnb2u1RtnTAqGx6P3+5gEEcPfBFwfqCD4eJFjbHInxT4CXfjwohSQISVpb4MpBg9COll7B5GYFiQE8WXnjf/naSwg9C+ddVWbq2pkT06jcoqeRUCnP7H0RG7v32k44/PqmSZsgFsle+Ujr0UGnhwsHXPzFj4qWABIEi20ceSQJTKMrL7oKPWnggJg0oSjwzhyNRsE6cT9/5zqRMHIQ5r6uydC08F1Nnao4dhuxU/W7/g0iJhykZk7JNLlCY76jLinTxlrdIL395Et2KGfWpT22DM/4+AH0+eQDB8ROLjZMrheMGrsKUoxhpmjSggNkFsR7DAwoGxgOMZAGRb6KrQjJ1nji8QilrAEDwOz/5GLrkkvy0dygWKZxsCM0+b9a2FI1sLlLuuRaOPKCw509JgVe9KgGOXXdNAINKZ/QFcDz96XW4lcyPeRqAcBWVdq9f+UpiLXKOIYDESB837DlMPFD0R48ODyh4oOxw7FGwdrDRzj030UXYoOBuHTtNv/udL9aDt+pxxyV+Dq9+db2NaF91//1+82sIUNj9ABK4m/NBkWzyfQIWgEYZcFBlHVO3T+/gzpI2l10mARIeZebIWjfyVmsSgYL34DZmwv0FiYcHFD7F4DCUbwAWYjzHniJwsB8YUx7B9xDhP4Ey0yajvP3Up5LvELnbki7s+zAHcnjUJYAC0AAI8cnAT6QJAQ5IZcRtsN4eQMGZiqPG0Opz1J3fJALFdAJemNKfuGZ4QJHN0D1YLT2ggCItTy+CKM6G2XnnZPOE+kbkWTyMSRiwMEmC23aztlP01d0A7nWAB3wwpR/4Oy/TOEBgcrQiNbi5Wp2+ccsmUevIWjaKeDiJQLHcTpHX78b9ukoVxNt6+OjHfajJeMXxo4s3rT3uIoAAHJBqzKfqfKmuTpwHP12y3ddPOEG66KIkQzm+DwsWVL2Tvz25RdGnVCGkBhy1SjZ1lS6L2mLRABzGFiDM5CYRKMilOe2CM2/edlq1ygSCvU3ST9t6CCr1g8jPhrwNFVZKIenxKt3Easz9kCB86f6RFrBiMB7O7XWJkgnGp8HXh+2+fsEF0mfSwF0AA+BEwqgLlK5VJnQOttOYk5sytIuydoDDCutT1n4svp9EoKBQCnUCp6lXc3RRUCbsrlaOzQs44PNvCBdpnIXaJAMQrp8Gb1P8ONrQjVBKkPDyIpOj677O2X3p0t7bHJDAV4NPVSmjjn7CDmpz4m7Y3EY22aPiWlyX+kBwPcfeijJOxbsNqfkkAgVo3ifc9soJflzSNUNidXJbRGU2qikSxP/4++KL679dzYSwYKALcZWUnLeJ0WgzwUyZNGHG5CZo4f+4LmMuxHPREKABaGI2DqHDD5dOOy2kZa+NHdSGP8vJvXpM56ZKRrvDMj9PAGEs9Q3VuJa0njSgICt3Jid+rwjPpyV9rQ6fWr3GBxZIGkgWdcoHoixEinBDwM0Rw05dV2Ui5KHgLYz0gOTAT/NBwWfnqcjr15Uq7Ha+avShEha+ETdQHL4C2U5jTnDewvSoUKG3mdV00oAC01NGkO8pNImR9sRJD2HNfToLhoFEwNmdc3wZ5QEEm5tNYdzFy/ox3+OIhE8BH/poK4TbJ1VwT0/6t6mhhCh66wAFUgTSFeCFfsKiSdsHoUse3G7SGJQ5dhhOJHqKmyV9LJg5XTcELDifY3t3ybVG4P1oFKEEQ/Hx+UEAEISDhyop11svOfLgDNYWMLhzsbOSl0kU5vsysLALJ4esk33scGpnEM0y1ALAIeMfdptJAgrewdT08FLiePViSRT/GS1CwYckgdmuLpErEpAIrS5OUBrgAEh0GQPBfEydE3dunoxf2ISmizcBBuhufMcxO49nGc+QIiiubMDTyU8Zjx1lDJwwHUWfWZS58zCZc/uCBbtpxYrPSxqe01XRetx0k4S/AeOtAhhVAAJ3ayM9DKoMoC8tveGDU/MExSBhaFgOpsGC8eJv4oKFSaiD9MQRxucXgY4G/Qz3MeQoMUemwE7AXh1qk0mRKDK6CR4S3iJ2Qtvk+EGVsFzBY6iLsW6ddMst0uWXJw8/3n52sWMGZ7wGsWCE+EGgfDTgUNdnoQlTfMlkTX94gTqEQzbHxwxYoOi1izYbPwqAgMQ1rtLU51kKmLz3vdIjj0zfNUoTgYs7CUDhVWCatG22djs5ftwo6epA9gyn2Zo10n331b834LDxxr0PSsphkVu2wIwjR5EJQKBmxHrVBxZc5yb6wZcCxy2OFCg3AU9zvAAM7L89SWzRDJWZQIfFtpG777gDhRck2CTnnZec121Rc/78HXTttYQzfmHkFsIdEH4WfB58MJtr0Td4wOAZz+iBg8+tehiTzrN4oJchstJDpiivFyyMr4Vdac0od5FeNtggCSe3pS3uw/0sGqsQ72Gsm3vPcQYKL0igpLv66sTeD7n1NO655yjNmXPCKPA+aAwUtWEDEGrtEnoGwAFzJhtk1IgcDXmxGG6SYWvstvOTFyxQchozsm/ORiJDasFXwyr6S/MIEjUelHEFCi9IMH+T58GOM7AfysWL99ayZZfVYFW8pCoH8vQTth8DugTbQzN1h7Zya00dQ9BbZFyrAQz0FkgPtoRx1VWJ+diTB4LjBqbQGeNRWXXN8tqPI1DkgoR9hrXLttl289mzN9DatY+1xb/YTwEH3Grdpqm9HlgksPQ4VgtfbYuMVasC84nl4HqiOCPV4MC4AUUQSMAHV+zlrWPMjuec8ywdcsjg0/bXWJ/WL4EvXftNmEGTXt8ueGP+T9yJcTJDhwRwOPoKX+wFl5MTlc1eJXCLvgCJkU5e2/pCt9zhOAFFJirU8CIv7b3tEWjHFcyZs77uuefxllk5Ht2RJ2IQJfjy9BPusQOQ8FVQk7RpwREBawUvDX46+bWm1gFvS6wm5CaJx4wWHs1xAQrOqTg/8LOPimpj2GdkV6k5CjU12DShrtYtrPWUyzeWINy2uya37qrv2GFXHvMoN/GpYKOHkDFzzqiIzhDGtNVmXICCB8Eu+TU1/5DNbrsP2y7DHEVQfA6TOMNTZWsQhM6GY0BIsFkb48mL77CPHTjEmdB3x2OSIbDpMZVGGgEOjC1QECQVkgbNfrO5Tj7DzoSNyG1yM3b5LBivRe41CAkm5NjhVkb3RHTCEqwfUbfQ5cMR2Pe4AEWmsE+Vup22VGHHF3SZiq6M/2wm0sMhfndJ3If53323tO++Xd6p13fIsYMYFSQ8m2xpI/1/lePHYCY3Q+8yLkDB8vQV9kGEvicwZKNIqgg5vnTxbPAGRdNPJas6yWpCx2Q8I5GeqJ49CEIX4quY5Vo7XGnKCf9mqGNX/2IQ/B3GPcYJKPrS8MMsgCL0zG07YNkPbBXAaXOBULQiUUB2dGOb9zC+JIAFx7RPk+CrYzISjFs5y2ftcIfiKpwlxXiMjtcrtPtxAoqMw00VacCOLnQfyGGU92MMVJJiA59+euhyhbUjtJs3OoFlbFhEfKQWqnd1TSHHDtva4Y7H9nfxeGl2PfzYfw4HxgkoMolpquoYbJHYtoDg/ot0MsgwbCweFMe54w7pO99p/nwCCKYOpp19G4Ak1P5zn0uS13ZNeUFgixb1Yi5MSjrfWJwcFTQZp2e0a/YOrf9xW4TM8aOK5QLzIN6CkCtVDLq6OBuKDUNSXPJQVCVTJBcgKKqHacyOVfhUdSymfV6SGtvaRGwHuog8ikBRl/vdXjduQJHxp9hmG61bvTrsrWPHf8BWNwv0IDaTWU6OHDffLPGmRX9C1W2XkBIAAcgUyOV/PrfovMfE6GMGMTeXv2ZMtjRRVMeU9hEout3wdXsfN6BgnhmpggxHrqnNxxA39oC3MR6BJnqx6lGmLtONn4F507I5yPa03XbN/RyQlO69N8mUxbxMsdxBAIUvN6YtTeA7gTRR5MsRgaLuU9XtdeMIFBmfClhUptjMC3l2nbBCQafJspix5KWrN45RuFsjqucRQW4UyYWK6mfwfddAkafEtKUJu65GPHo0eYIGf+04AgVc6itEzD/IanXhhdKLXpTEMvAhSpKkLnkmO8Nu19Fn1apufRtM+HUeUHTxGHQJFHn8tf0iQqQJ5u1xuvKFnHfBothnAQfGFSi8mY8QaSlCW7V03qAVm+YINAigIOMXKfW6lJR8DlZIOAcc0EseEyJN8Jx6qodFoBgBCBtXoIB1gAWBQ5kwY95KVVyj3TiDLjeVbRnwAAVZoTlaQfy0o2X5exNJpJgn/sH8nfsYLV6c6G74YPoN0eNUfSbzjhz2huf4hPUlJM4kAkXVFRhM+3EGCrOZUG6ygfoIxx02fMjD6boOU3TGTg3f5lLYlgEPUBTlYDDDACAo5ZubQXqbbSQyVNtVy8lWvazl/E55ehE3vwTrEFr/NAJFm09be32NO1DACRyxyKk4XTTGsAeQQLogAKmInMpR6lJHYVsGPKHVZWJ2boYvMz82JaDgOo+hQG3ToQxJAl2L66rNOGwFpl3KL+SxjUARwqXBt5kEoDDHEG8CVr7EioAZ1AcYvoradRygQpbOtbxU3BS5Gb64N9G0SBGhsS8h481rk3fcoL0LfkVemL7+PTzJS4vXZArx2oocmBSgMNMuTMCKhIGi00QtepK6KjTPRUU+TzV33Zs9tTeLJIpVlv5i+vYABP3Yx4w6Ywu9pggkUAqjwORIAoUqMO175yh4Q45koVOI7WpwYNKAAhZwhsd8mjmKhPAHBWDbZ3nu68tIveeevU2Vji1vQ6DUXOuOf9Bu50UgwdjsdHZVFJjuvDwA+qGYQTvk6e2uzSQCheEW53kkDF/y1VyOljlu1VkK3wbziNhFIdXeVIBVwuzrjNu+Ji/1vmnjzqfqkcO+l0d3c2y6lk2nEa+vyYFJBgobMACNoBTvbW8+X/yDieg0Ino60KJjRyZylmu60qXYzxLKSkDCl4jGtHOtRnWOHPY9PSAagaLmBm/rspkAFDaveDOz6fhAR9tfYlbEeagtysv0RKYp9CMWhSRoycSYdg0U+HyQJLcoCI15EAFrQK+qlcPH6wgUbT2B7fUz04DC5lzGitDWmZ8NBkg4EsPUvdlYTko6qlgBXGX1J7DqLLAn0KVbNuCA8tVn/jRjOPnkxMphCCUxmbVDfFeKHmGPG3fUUbS352v1NJOBIrPx2nC04qiB9t+3wVy35nTF8MZkLGWU8aHoSvFaprRkfoCdXQawLZCocSwr41v8vgUOzFSgyJz5iYmwM0NV5S2biw2ENJFHFRWYbjcZy0fdzFyAGUFzBMzZxYAYO/qIIj5gvgQkXGnJ+Kk0LT/AMcZJbBMqcVVdsti+AgdmKlAsSd2gp1nV5NhR9gbmJi29KTNRs1XjUnxu14BFEcAZJpE1fOnS8qeLo0cRYMyaJe26a5KM58knk/4oJ8BnzZpM/9HhqpzlnbeYqUCRcV5qcuwoywXBKjaUJsyD4JWE0IeEumfnFQ4uetKYH/qIohR2HT2pBMDhF1Omv+no9rFbw4GZChQZC8LateGbzX18QoDCk7mprskvI1V89KNhqfjzUtUVbQf0EDhA2fqItP1tqRNUZV+VwO2HJQiFcwSJQIZ12WwmAoXXy7FJINiAgYLxY8Tti5i98cakmBDJenwUcjxyr3NNn9b37nGAtz4fJB43PJ7xlnnJAjoGEDAcm0+Xz37suwIHZiJQwJ6MREEqe7wy69CAgYIhZmJaiGFh/KTP4xhiACNEQembsy9YLm0XTZV1HpIxv2amAgUJbzJvOURslINVKc+xyu6nxaOH6TYzBzvDNRYNlIUhSkp7nIAelgfHIYwmWB8w0YaYcquyMLYfcQ7MVKDwxk6wVoRpAxhYQUIo9NxvB0yl/dbVUZhhZZIMY204//xEqqhD6CEwfWLmdYijASABOEWagRyYqUDBUhcmgSFZ7xveIP3FX0i77SZttlnic2BqbTz+eGLyDHlju6n20uesjUrdmSMIZknbWzL0mc5xBuPyb6S8ikrFUGZOYLuZDBQsJ1p1rAiZVHruWr/sZdJOOyX1N4hnqEKeKt1cvm2qlKzSla9t5ghSVNsz72b4R+An4VBTqafp3OL1I8KBmQ4ULANaeRywkDCCQ9Jf8IIEMHiDI+rngQeFiNmEjicj/gEmMK3po0A/gEUf2FXJU+mJP2FM0dGp6cpM0PURKPoXE90FgIGkUSpl+J4DU7yHKl2es7655NQUnNp6lLxp8kLAAr0EOS4dIItu022tzIT0E4EifyFRFgIagEeZH0CVx6GrTUiO7cXuQFCiHnqoP6KTowZmUE+UazxyVFnRGdA2AkXYIiPeAxh8aksbaU0Oru/KepDx2mR6WENIl096On5HiuC4kSPxhOTGCONabDUxHIhAUW8pkTYADeONWJY9C50Em5i3ftfWAy9YBE4TMyjz6nqMgcOJzUaFAxEo2lsJlKKmypfdK+7WLebNChpwJjo24Kp43Ahg0kxtEoFiclce0EKCKZJ20JfgaYk/xqDBbHI5P4Ezi0AxgYvqTAnAQC9ilyBER8IHkIjHjMl/BhrPMAJFYxbGDiIHJp8DESgmf43jDCMHGnMgAkVjFsYOIgcmnwMRKCZ/jeMMIwcacyACRWMWxg4iByafAxEoJn+N4wwjBxpzIAJFYxbGDiIHJp8DESgmf43jDCMHGnMgAkVjFsYOIgcmnwMRKCZ/jeMMIwcacyACRWMWxg4iByafAxEoJn+N4wwjBxpzIAJFYxbGDiIHJp8DESgmf43jDCMHGnMgAkVjFsYOIgcmnwMRKCZ/jeMMIwcacyACRWMWxg4iByafAxEoJn+N4wwjBxpzIAJFYxbGDiIHJp8DESgmf43jDCMHGnMgAkVjFsYOIgcmnwMRKCZ/jeMMIwcacyACRWMWxg4iByafAxEoJn+N4wwjBxpz4P8Br3eQ1wfxASsAAAAASUVORK5CYII=;" parent="1" vertex="1">
          <mxGeometry x="893.38" y="243.75" width="43.23" height="32.5" as="geometry" />
        </mxCell>
        <mxCell id="pbOQcnThbagH4nvjm6GH-16" value="" style="shape=image;verticalLabelPosition=bottom;labelBackgroundColor=#ffffff;verticalAlign=top;aspect=fixed;imageAspect=0;image=data:image/png,iVBORw0KGgoAAAANSUhEUgAAAeAAAAHgCAYAAAB91L6VAAAgAElEQVR4Xuydd3xVRdrHH5KQBAiEDqGD9CpFpEpfSlC6rARQ2qKAvgZBcEEQhBVEwZUm0lYEFOlKAFeKSEcC0nuAAKGHXtLg/cxhvVIu4XnOnNt/56/3/ezvmZnznbn5OudezqS5f//+fcIFAiAAAiAAAiDgVAJpIGCn8kZnIAACIAACIGAQgICxEEAABEAABEDABQQgYBdAR5cgAAIgAAIgAAFjDYAACIAACICACwhAwC6Aji5BAARAAARAAALGGgABEAABEAABFxCAgF0AHV2CAAiAAAiAAASMNQACIAACIAACLiAAAbsAOroEARAAARAAAQgYawAEQAAEQAAEXEAAAnYBdHQJAiAAAiAAAhAw1gAIgAAIgAAIuIAABOwC6OgSBEAABEAABCBgrAEQAAEQAAEQcAEBCNgF0NElCIAACIAACGgL+I+9h2nD1l1skmkDAqjn661s+WnfLqW7iYns+mqVy1KV50sZ+b0HjtGvm3awa1WwT7d2tvzM736iW7fvsutVv6p/dR04coJW//Y7u1YF33y9NQUE+Bs13/6wnK7duMWur1i2ONV8sYKRPxJzin5eu4Vdq4I9OrWkoMC0ohp74eOxcRT1y0ZRO11ee5kypA82an5YuoouXLrCri9VrBA1eOkFI3/qzHlauvI3dq1usFiR/NS4XjWjmbhzl2hR1FpRkx1aN6asWTKJahwRXr5qI8WcjGM3XSBvLnqlyUvsfGpBtU7VeuVeeXJnp9bh9bhxh+XU3wX190FyhTeqSYUL5JGU2M0mJCbR1G+XiNpR61StV3Vt3LqLdu49zK4PzZiBOr3azMgnJ6fQV98sYteqoPp8qs+purZE76Xtfxxg16u/C+rvw5/XhOnz2bUqWLdGJSpb6jmjRvWr+udewYGB1L1TC1t8yjeLKSk5mVtOtV6sQM+XLc7O2wtqC1gBGzJqCnsQwUGBFLd3uS1fuHJLunb9Jrt+UGQXeq9XhJGfPnsp9R82nl2rgvFHVtnypWu2p3MXLrPr+77VgQb37Wrk5yxYSW9/8Bm7VgXP7ImidMFBRk2lBp3oROxZdn3vru3o4w96GvmFy9ZSj8iR7FoVjNm+mDKHZhTV2AurP+Yd3xoqamffhnkUliubUdOgdW/auecQu75Dm8Y0YVR/I79m/XZq23Ugu1Y32Dq8Lk37YrDRzKZtu6l5RF9RkxuiplLp4oVFNY4IR7w5hFas3sRuul6tyrRw5mh2PrVg93dH0KKoX9ltVX+hHEXNHcfOOyp49vxlKlOrvaj52ZOHUbOGNUU19sJXr92gIlX+2qRwGpw6bhC1af7gP1w+/GQKTZzBF1mhAmG0Y/W3Ru2duwmUt1w4p0tbZvwn/SiibRPj/x8xdgaNnTyXXZ87Zzbav3GeLZ+1WEN2rQqOGfo2dev4QKKfT5pDI8fNZNeHZgqh49F//YdOnrLN6G4CfzM4fGDPRzZ07I4fCkLAELBo3UDAfFwQMBEEzF8vfyYhYD4zCBg7YPZqwQ4YO2D2YrEwiB2wHCZ2wHxm2AHzWT2exA4YO2DR6sEOmI8LO2DsgPmr5a8kdsB8atgBYwfMXi3YAWMHzF4sFgaxA5bDxA6Yzww7YD4r7IDxIyzzq4WIsAPm48MOGDtg/mrBDlgRwI+whCsGv4LmA8MOGDtg/mqxLokdsJwldsB8ZtgB81lhB4wdsPnVgh2wiB12wNgBixbM/8L4DphPDd8B4ztg9mrBDhg7YPZisTCIHbAcJnbAfGbYAfNZYQeMHbD51YIdsIgddsDYAYsWDHbA+A5YumDwHTCfGHbA2AHzV4t1SeyA5SyxA+Yzww6Yz8ryHbB6f+awMVPZIwgKCnzk9V+larana9dusOvff7szvdvz70b+P98vo3+OmMSuVcGHX4NZsV5HOn8xnl3/f//4Ow14p7ORn7fkF4ocLHtlXkz0ElKv4lRX9abd6OQp/qsoe77emob2727ULlmxjnr1l70q8MCmH0i9ek33WrlmM3V952NRMzvWfEvqlXPqavr3d2mX4D21r7ZsRF+MiDRqXfkqSvWO2davvy+67zWLJ1PJYgVFNY4Id3l7uOjd4XVqVqLvpoywZChv9R9NS1esY7dVrUpZWvSfT9l5RwXVK2or1e8kan7Glx9Sk/rVRTX2wurVvKVqvCpqZ9KYAdSyaR2jZtiYaTRF8D7ngvnDaPOK6UatehVjkcotRX2PGxFJ7Vs2MmpGfzmL/v319+z6XDmy0s61s2159TpIyfWvwb3ojb83N0q+mPI9fTp+Frs8NDQjHXjoNZjqtcgJgldRDu3f45FzDdgdPxTUfhGHmU5RAwJmCLhSwGbGixoQAAEQSI0ABIz14TEEIGCPmSoMFARAgEEAAmZAQsQ9CEDA7jEPGAUIgIA1BLQFrM7zHfkF/wio4OCgR567W3MbvtXKTz+vp3f++bnopv9YO9uS74D/++tW6vneJ6K+t6ycQeq7Ht0LAtYlKK8/fCyWGr/6jqhw3rR/UdWKpUU17hZWvw2p1uTB0aPca8rnH9Df6r7IjT81p74Dfr5eR1E7X/7rPXq5cW1RDcKPElC/R7p7N4GNZdC7XR45T5hd+FBQW8C6v4I2M2hfr/Hk84B15g4C1qFnrnb/4eNUK7yHqHjZnLFUo2p5UY27hT35V9DuxtJTxuOT5wF7yuS40zghYOfMRuvwujTti8HO6cxNe4GA+RMze/IwatawJr/gKUndN2FpD8BHG4CAfXTipbcNAUuJmctDwEQQMH/tQMB8Vu6YhIDdcVbccEwQsHMmBQKGgCUrDQKW0HK/LATsfnPiliOCgJ0zLRAwBCxZaRCwhJb7ZSFg95sTtxwRBOycaYGAIWDJSoOAJbTcLwsBu9+cuOWIIGDnTAsEDAFLVhoELKHlflkI2P3mxC1HBAE7Z1ogYAhYstIgYAkt98tCwO43J245IgjYOdMCAUPAkpUGAUtouV8WAna/OXHLEUHAzpkWCBgClqw0CFhCy/2yELD7zYlbjggCds60QMAQsGSlQcASWu6X9UgBb//jAK3btINN09/f33aeL7sIwUcIHDx6kqL+u0FEpXe3draziEWFj4WPHj8tOt9VlauzjEMypNPp1qg9ERtH6j8+nHWVLFaIwhvpv9nIWeN1RD+XLl+lb+ZFiZpu36oR5QvLKapxt/DNW3dEZ+qq8bdoWoeKFs6nfSvqTN6J0+eL2gn/Wy0qWdT1Z0+LBu1mYXWecEpKCntUdWpUoirPl2Ln7QW13wWt1TuKQQAEQAAEQMBHCUDAPjrxuG0QAAEQAAHXEtAW8N4Dx2hr9F72XfgH+NMbf2/OzqcWPHDkBG3ausuStpzRyBuvNSf1CF73ijl5htau3y5qpuOrTSkoMFBU44jw0hXrSD3WdNbVrmVDyhSSwVndOaSfS/FXaenydaK2WzSrQ9mzZjZqflm3jWJPnWXX58uTixrXr2bkr1y9TouEj/3V49DcObOx+3ta8PrNWzR/ySpRO40bVPf4x98JiYk0+4cVovuuV7sKFSmYV1RjL6wewf7nu2Xa7TirgRovVqBSxQpZ0t1/vl9GKcn8R9AvVi5LZUs9p9W3toBdeRzh9NlLqf+w8VoAnFl8Zk8UpQsO0u7SlT/C0h18g9a9aeeeQ7rNsOujV8+iwgXysPPuGNyx+xA1bNNbNLRVCydSpfIljJqIN4fQitWb2PX1alWmhTNHG3lXHsZwPDaOKjfozB63Ci6YMYrq164iqnG3sCtPQ7pzN4Hylgt3NyRPHc+YoW9Tt44tLBmvR/4ICwLmzz0ETAQB89fLn0kImM8MAuazspeEgBPZAIcP7El9urVj5+0FsQPWwicrhoAhYNmKeZCGgPnUIGA+Kwj4UQLYAQvXDh5B84HFbF9MmUMz8gsclMQOWA4WAuYzg4D5rCBgCFhrtUDAfHwQMJ+VuyUhYP6MQMB8VhAwBKy1WiBgPj4ImM/K3ZIQMH9GIGA+KwgYAtZaLRAwHx8EzGflbkkImD8jEDCfFQQMAWutFgiYjw8C5rNytyQEzJ8RCJjPCgKGgLVWCwTMxwcB81m5WxIC5s8IBMxnBQFDwFqrBQLm44OA+azcLQkB82cEAuazgoAhYK3VAgHz8UHAfFbuloSA+TMCAfNZQcAQsNZqgYD5+CBgPit3S0LA/BmBgPmsIGAvELDedOtV+6qA9ai5thov4nAtf/QOAqkR8OVXUbpiZWi/itIVg/6zTwjYlfTN9Q0Bm+OGKhBwBgEI2BmU/+oDAnYib6veBe3EIVveFQRsOVI0CAKWEYCALUPJakhbwDO/+4nGTJjN6kyFggLT0s61/HxqDfvqDnj5qo3Ub+iXbOYquHnlDArN6PpzcV0p4M69P6Ltfxxgc2vWsCZ9NuwdI6/qVL3kWvrtZ1SsSH5JiUOybw/8jFav/53ddo2q5WnauEHsvDcGL1y6QnVbvCm6tfGf9KMGL70gqrEXvnbjFlVv0lXUjlqnar3qXr4s4Ir1OlJCYhIbYf8+HanLay+z8/aC2gLGcYR8/lbtgHEeMJ/5w+cBh3eIpM2/72EXtw6vS9O+GGzkN23bTc0j+rJrVXBD1FQqXbywqMYRYZ3zgB0xHk9o8+z5y1SmVnvRUGdPHmaJBHEeMB87zgOePp+GjJrCJhYcFEhxe5ez86kFfXUHDAHzlw8ETAQB89fLn0kIWM7MFRUQMATMXnfYAbv2PGDsgHlLtV6tyrRw5mhe2EtTELBnTCwEDAGzVyoEDAGzF4uFQeyA5TAhYDkzV1RAwBAwe91BwBAwe7FYGISA5TAhYDkzV1RAwBAwe91BwBAwe7FYGISA5TAhYDkzV1RAwBAwe91BwBAwe7FYGISA5TAhYDkzV1RAwBAwe91BwBAwe7FYGISA5TAhYDkzV1RAwBAwe91BwBAwe7FYGISA5TAhYDkzV1RAwBAwe91BwBAwe7FYGISA5TAhYDkzV1RAwBAwe91BwBAwe7FYGISA5TAhYDkzV1T4vIC3RO+lVeu2sdmnDQigAe90ZudTC/rqm7D2HYqhxVG/ihi+1yuC0gUHiWocEZ4x9yeKO3fREU3bbbN317aUJXMm43+bNW85xZ45x+67TMki1KpZXSMfe/oczfpB9ga3nq+3phzZMrP7c1Twh6Wr6PCxWHbzzxXKR6+1/hs7743BGzdv07+//l50a+1eaUAlihYU1dgLq/cxfz5pjqidVuF1qUyJIqKap/Wdt1y4djvOasBKAY/+chYlJSezh96wTlWqVrksO28vqP0uaK3eNYt9VcCa2FAOAiAAAnYJ+PJhDK5YEhCwE6lb9QjaiUNGVyAAAj5EAAJ27mRrC/jAkRO0Y9dB9qgDAvypfctG7HxqQV/dAZ88dZY2bN0lYqgejwUGphXV2AufjjtP6zbtFLWjHo+lTxcsqrEXVt/LrREcq6faeKXJS5QxJL1237oNrFm/nc6ev8RuJn/eXPRS9YpG/nL8NVq5ZjO7VgWb1K9O2bKGGjW/bd5Jp86cZ9eH5cpO9WtXYedTC6p1qtYr98qZIys1qlPViKvHwD+u/I1bauTq136BwnJlE9XYC9++c1f8NU+dGhUpX55c2n0nJibR/B9Xi9qp9WIFKpg/TFRjL+zLAp635BdKTk5hM6xUoSSVKlaInbcX1BYwjiPk87dqB+zK05DUWcQd3xrKv2ki2rdhniV/FJXE2nYdKOr74dOQRIUWh9t0GUBrN0SzW23aoAbN+Wq4kd+x+xA1bNObXauCqxZOpErlSxg1rvwRVvd3R9Aiwe8Vqr9QjqLmjjPGfTw2jio3kP1eZMGMUZb8xwN+hCVabi4LW/kdcJ6yzehuQiL7XoYP7El9urVj5yFgLVT6xRCwHkMImM8PAuazspeEgPX4OasaAsY/Q2KvNQiYjcpuEALm84OA+awg4L8I+PIjaOyAhZ8ZX/0OGI+g+QsFj6DxCJq/Wv5KYgdshprza7ADxg6YveqwA2ajwg4Y3wHjO2DBx2XquEHUpnk9QYX9KHbA+A6YvYiwA2ajopjtiylzaEZ+wVOS+BGWOYT4ERaPG36ERXT12g0qUqUVD9j/UhCwCJfdMB5BCxlCwHxgEDCflSOSEDCPKgQMAfNWyoMUHkHjETR7veARNBsVHkHjETQeQQs+LtgBC2A9JYodsJAhdsB8YNgB81k5IokdMI8qdsDYAfNWCnbABgG8iIO/XLAD5rOyl8Q/Q+Lzwz9D4rOyl8SvoPX4Oasaj6DxCJq91iBgNio8gsYjaDyCFnxc8AhaAAuPoGXHuj0NLR5B8xcdHkHzWTkiiUfQPKp4BI1H0LyVgkfQBgH18mrJGYpp0qSh4KBACeOnZlNSUigxiX9+oyWdajRi1Xm8Zu7bqr7v3btHCYlJIgqu7FutNbXmXH2pF+yn3LvHHoa/n5/t8Iz79++L3lGrOnn4vnX6Zg/4KcGkpGRKTuG/4F73voMC05Kfn5/usI169W9iJZcr+w5MG0D+/v6S4T41K71vSzo12YiV963eA60+a9xLnW2vDhfSubQPY9DpHLUgAAIgAAIg4KsEIGBfnXncNwiAAAiAgEsJaAv42x+W07gp37FvIigwkDavmM7OI/gkAXU27D9HThKhWbtkMoVmDBHV2Av/ujGa+g75QtTOzz+MpxzZMhs1nXoNpX2HYtj16jzfj/r3YOcRfJKAmi81b9yrepVyNHH0+9y42+Y+GjNVdJ5wmRJF6NtJw4z7uXj5KjV+9W3RvY0d/i7VrVlZVGMvfO3GTarX8i1RO/8a1Ms4AxqXeQLVm3ajhET+qygje75GnV5tZr5DItIWsCv/GZLWnXtwsScfxtCgdW/auecQm36HNo1pwqj+7DyCTxJw5XnArpyPPgPH0NyFP7OHULFcCVq9aKKR99V/hsSG5YVBvIjDCyfVEbcEATuCqve2CQHz5hYC5nHy1hQE7K0za/F9QcAWA/Xy5iBg3gRDwDxO3pqCgL11Zi2+LwjYYqBe3hwEzJtgCJjHyVtTELC3zqzF9wUBWwzUy5uDgHkTDAHzOHlrCgL21pm1+L4gYIuBenlzEDBvgiFgHidvTUHA3jqzFt8XBGwxUC9vDgLmTTAEzOPkrSkI2Ftn1uL7goAtBurlzUHAvAmGgHmcvDUFAXvrzFp8XxCwxUC9vDkImDfBEDCPk7emIGBvnVmL7wsCthiolzcHAfMmGALmcfLWFATsrTNr8X1BwBYD9fLmIGDeBEPAPE7emvJIAW/cuotWrtnCnhN1fNPQ/t3ZeQSfJLBn/1H6YelqEZp/Rr5BVhwLeODICZq7gP96PzXI/n06UqaMGYzxfvWfRXTm7EX22CuWK06tm9dj5xF8koB6HeOBwyfYaIoWyUevtw9n5901uGjZWtq55zB7eHnDctCbb7Q28tdv3KIxE2aza1WwQ9vGVKpYIVGNvbA6DvBf4/4jaufVFg2oXOmiohqEHyUwbMw043hd7tWkfjWq+WIFbtxuTvtd0Fq9oxgEQAAEQAAEfJQABOyjE4/bBgEQAAEQcC0BbQEfiTlFu/cfZd+Fv78ftWxax5b/6ef1lJiUzK4vU7IIlSxa0MjHnDwjesSkato89Dhz+aqNdOcu//ipksUKkjqyTF0nT52l7bsOssetgi2bvkT+/v5GjTpS8Nbtu+z64kXy2x4xnY67QFt37GPXquDLf6tFgYFpRTX2wnHnLtHm7XtE7TRrWMOSx9/nL8bThq27RH03rleNQjKkE9XYC1+Kv0rrNu0UtdOozguUyYIjIK9cvU5rNvCPE1SDrF+rMmXJnEk0Xnvh6zdu0i/rfhe1U6dGRcqe9cHxkzrXzVt36Oe1/K+3VF+1XqxAuXJk1enWqFWPgZev2iRqRx3jmCd3dlGNvXBiYhL99N8NonZerFSG8uXJadSor6gOx5xi12dIH2w7yjAlJYWWrPiNXauCVSqUpIL5w4waddTowSMn2fXpggOpWcOatrz6fYvkUl9RFSmY1yg5ePQk7TvIP+o0MG0Avdy4tq27JSvWUUrKPXb35UsXpWJF8rPz9oLaAtY9jrBw5ZZ07fpN9k0MiuxC7/WKMPLTZy+l/sPGs2tVMP7IKlu+dM32dO7CZXZ937c60OC+XY38nAUr6e0PPmPXquCZPVE2EVVq0IlOxJ5l1/fu2o4+/qCnkffkH2Gxb9hOcM367dS260BRE9GrZ1HhAnlENfbCm7btpuYRfUXtbIiaSqWLFxbV2Avv2H2IGrbpLWpn1cKJVKl8CVGNvfD+w8epVrjsPOZlc8ZSjarltfs+HhtHlRt0FrWzYMYoql+7iqjGXtiTjyP88JMpNHHGfDaDQgXCaMfqb428+g+PvOVk3/+P/6QfRbRtYtSPGDuDxk6ey+47d85stH/jPFs+a7GG7FoVHDP0berWsYVR8/mkOTRy3Ex2fWimEDoevcSW98gfYUHA7PmGgPmo7CYhYD5ACJjPCgKGgNUagIAZnxnsgLEDZiwTWwQ7YAmtJ7PYAfP5zZ487JHHqfzKR5NXr92gIlVaicqnjhtk+3oNO2AeOuyAiQiPoHmLBY+gibAD5q0VlcIOmM8KO2DsgLEDZn5esAPGDpi5VIwYdsASWtgB/0kA3wHz1w2+A+azejyJH2HhR1ii1aN+Od7xraGimn0b5lFYrmyiGnth7ID5CLED5rPCDhg7YOyAmZ8X7ICxA2YuFeyA8StoyVJ5JIsdMB8ddsB8VtgB458hmV8tRIQdMB8f/hkSn5W9JP4ZEp8ffoSFf4bEWi3BQYEUt3e5LYsfYbGwEX6EhR9h8VbKgxQeQUtoPZnFDpjPDztgPivsgLEDNr9asAMWscMOWITriTB2wHx+2AFjB8xaLdgBBxmc8CYs1nJ5JIQfYfGZYQfMZ2UviR0wnx92wHxW2AFjB2x+tWAHLGKHHbAIF3bA/yOAF3Hw143Pv4oyITGJ7tzhHyqQJk0aUm8g+fNS74G+f/8+m3hwcBCpXbS6EhIT6c6dBHatCmYOzfhX3zdu0f17/JdvBwUF2t7lrF6Yfltw30/2fZPu3+Pft27firlir3slJSXTrdt3RM1Y1bc6q/PmrduivtU5xH5+fqIae2EzfWcMSW87fENnAOoF+Tduyu7blX2HZEhP6txv3evevXvGubySy6q+1d8kyTvq1RgzpE9HadMGSIZrN2um7/Tpgm2Hraj3OSck8A+ZSeOXhkIfOjRE/QeA5NLr249C/3dWuOpT2ne6dEEUFPjAB3cTEunuXb4PdF2ULl0wBWkecKP974AlE4UsCIAACIAACIDAAwIQMFYCCIAACIAACLiAAATsAujo0hwBdQZy38HjRMXzpv+L8oU9OCe11/ujadfeI+z6hnWq0rAB/2DnUwtGDh5H2wRnONeuXpFGfSg7gtCSgXpRI+pouuW/bGTfUanihWjaF4PZeQRBQJcABKxLEPVOI6D7K+jwDpG0+fc97PG2Dq9r2R/kNl0G0NoN0ey+mzaoQXO+Gs7OI/gkgT4Dx9DchT+z0VQsV4JWL5rIziMIAroEIGBdgqh3GgEI2GmovaIjCNgrptGrbwIC9urp9a6bg4C9az4dfTcQsKMJo31dAhCwLkHUO40ABOw01F7REQTsFdPo1TcBAXv19HrXzUHA3jWfjr4bCNjRhNG+LgEIWJcg6p1GAAJ2Gmqv6AgC9opp9OqbgIC9enq96+YgYO+aT0ffDQTsaMJoX5cABKxLEPVOIwABOw21V3QEAXvFNHr1TUDAXj293nVzELB3zaej7wYCdjRhtK9LAALWJYh6pxGAgJ2G2is6goC9Yhq9+iYgYK+eXu+6OQjYu+bT0XcDATuaMNrXJQAB6xJEvdMIHDp6kqbOXirq74N3XqdsWUONmkkzFlBMbBy7vmLZ4hTRtgk7n1rw62+X0OFjsey2ypQoTF1ee5mdR/BJAvOWrKLf/9jPRpM/T076v3/8nZ1HEAR0CUDAugRRDwIgAAIgAAImCEDAJqChBARAAARAAAR0CWgL+HhsHB04fJw9Dj8/P2pSv7ot/99ft1JycjK7vvhzBalo4XxGPvb0Odp78Bi7Vjf4XKF8VKJoQd1mjPpfN0bT7Tt32W0VLpiXShUrZOTjzl2iP/YeYteqYKM6L1LatAGiGm8Lb96+h65cvc6+rbBc2UmdkKOu+CvXaUs0/yQlVVO7WkXKGJKe3Z+jgtG7DtL5i5fZzWfPlpmqVizDzntj8G5CIq1Z/7vo1ipXKEW5cmQ1avYejKHY02fZ9RlDMlDtas+z86kFDxw5QcdPnrGkLU4j5UsXpXx5cnGiDs0cPX6aDh87ye4jICCA/lb3RVt+5ZrNdO/ePXZ9qeKFqXCBPOy8vaC2gCdMn09DRk1hDyI4KJDi9i635QtXbknXrt9k1w+K7ELv9Yow8tNnL6X+w8aza3WDfd/qQIP7dtVtxqiv1KATnYjlf0B7d21HH3/Q06hduGwt9YgcKRpHzPbFlDk0o6jG28I6xxFu2rabmkf0FSHZEDWVShcvLKpxRDjizSG0YvUmdtP1alWmhTNHs/PeGDx7/jKVqdVedGuzJw+jZg1rGjX9PvqSZsz5kV2v/uN64/Jp7HxqwQ8/mUITZ8y3pC1OI+M/6WfZbyU4/T0t8/mkOaTOgOZeoZlC6Hj0Els8T9lmpP7Di3sNH9iT+nRrx43bzUHAAnwQsACWG0YhYN6kQMBEEDBvragUBMxn9XgSAhawg4AFsNwwCgHzJgUChoB5K+VBCgKW0Ho0CwEL2EHAAlhuGIWAeZMCAUPAvJUCAeMRNL4DZn1W8B0wEQTMWioEAUPAvJUCAUPAEDDrswIBQ8CshUIEARMEzF0reASNH2FJ1opWFo+gtfC5vBg7YN4UYAcMAfNWCnbA2AFjB8z6rGAHjB0wa6FgB2xgwq+guasFP8Lik3oyiR9hCehhByyA5YZR7IB5k4IdMATMWynYAWMHjB0w67OCHYqm55cAACAASURBVDB2wKyFgh0wdsDchfK/HP4ZkhDYQ3HsgAXssAMWwHLDKHbAvEnBDhg7YN5KwQ4YO2DsgFmfFeyAsQNmLRTsgLED5i4U7IBd/yrKW7fv0vUbt9hTliYNUe6c2Wz58xfj6d69++x69XL7kAzpjLwnvwv64uWrlJycwr7vDOmDKVPGDEb+zt0EunqN//5sVZM7Z1ZKo+D78HU5/holJvEP/kgXHGh7f3ZiYhJdvsI/yEFhzpEtMwUE+LucuDqA4m5CEnscQYFpKWuWTOy8NwbVS/nPX7wiurUsmTOSete9uq7duEW3b/MPW0kb4E/qEAwrLl99F/TNW3foxs3bbIR+fmlsh2eoonMXLtN9voqMv8fq77LOpf0IWqdz3VpPFrDuvaMeBEAABOwR8FUBe+JqgIAFs2bld8CCbhEFARAAATYBCJiNyuVBCFgwBQ8LeOWaLTRmwreCar1ou1ca0JtvtNZrxMOrt/9xgAYMnyC6i1kTP6K8YTmMmsjB42j3/qPsevVjJKuOn1TjVuPnXjWrlid13JkVlzoudOO23eymqjxfikYP6WPk1ZGZ3d4dwa5VwXEfv0vlyxQzakaMnUFrN0Sz69XZsuNGRBr5M2cvUufeH7FrVVCNW41fXerzqT6n3Eud9T3p0/e58VRz//76e/px5Xp2W4ULhNG0Lwaz86kFXSngGXN/ojkLVrLvI1vWUPph2r9s+Qate7NrVfCdHq9Si6Z1RDXuFIaABbPxsIDVInv7g88E1XrRh88D1mvJc6vXrN9ObbsOFN1A9OpZtkOzdX4FLerUTrhNlwEiETVtUIPmfDVct1ujXuc84P2Hj1Ot8B6icSybM5ZqVC1v1HR/dwQtivqVXV/9hXIUNXeckT8eG0eVG3Rm16rgghmjqH7tKkZNn4FjaO7Cn9n1FcuVoNWLJrLzqQV99Txg9R9cYyfPZTNUvwfav3GeLZ+1WEN2rQqOGfo2devYQlTjTmEIWDAbELAAlgOiELA5qBAwjxsEzOP0eOrhfwcMAcsYQsACXhCwAJYDohCwOagQMI8bBMzjBAGb42SvCgIWsISABbAcEIWAzUGFgHncIGAeJwjYHCcIWJMbBKwJULMcAjYHEALmcYOAeZwgYHOcIGBNbhCwJkDNcgjYHEAImMcNAuZxgoDNcYKANblBwJoANcshYHMAIWAeNwiYxwkCNscJAtbkBgFrAtQsh4DNAYSAedwgYB4nCNgcJwhYkxsErAlQsxwCNgcQAuZxg4B5nCBgc5wgYE1uELAmQM1yCNgcQAiYxw0C5nGCgM1xgoA1uUHAmgA1yyFgcwAhYB43CJjHCQI2x8nrBLx+yx80b8kv1tF4RkuN61WjlxvXNlJ4FaXTsNs6OnD4BE2cMV/U8dD+3SlHtixGzbivvqNjJ06z6ytXKEVdXmvOzqcWnDh9AR04cpzdlnon8j86t2LnUwt+PWux6B3YpYoVpt7d2hpNxp27RP/6YqZoHO/2fI2KFs5n1Mz8bhlF7+K/A/u5Qvko8s3XjNqLl6/QsDHTRH2rV7aWKl7IqJk9fwVtid7Lri+YLzf179OJnU8tOG/JKlq/ZSe7rbBc2WlQZBd2PrXgomVrac2G7Za0xWkkom0Tql6lnBH96ef19PNa/vu3QzOG0MhBb9m6Ua8PlVztWzai2tWel5S4VdajX8ThSpIQsCvpo28QAAEQ8HwCELDJOYSATYJDGQiAAAiAgEHApwW8cesuSkhMYi+FQvnDqEihvEbelQI+fzGe9h2MYY9bBV+qXpECAvyNmq079tGtW3fY9eo4P3VUm7ouxV+l3fv4R/qpmpovlqegwEB2f08Lxl+5Tn/sPSxqR52uky44SFTjiLAatxo/98qRLTOVK12UG3fb3N6DMXThYjx7fJlDM1Kl8iXYeUcFExITaeNW/hGOahzlyxSl7Fkzaw8pOTmFftvMf3yt22G6dEG2R8j37t2jXzfuEDVZqnhhCsuVTVTjiPCJ2DiKORnHbjpt2gCXP772aQGXrtmezl24zJ4wd/kR1sJla6lH5Ej2uFUwZvtiUn/cDCE2604Hjpxg13eNeIU+++gdI7981Ubq+NZQdq0K7tswz5IPqO6PsESDtjjsyuMILb4VUXM6xxGKOrI4fPb8ZSpTq72o1dmTh1GzhjVFNfbCV6/doCJVrPn+nzOYQgXCaMfqB2eb37mbQHnLhXPKbJmHT0MSFVoc/nzSHBo5jv97hdBMIXQ8eonFo5A1BwFDwM9cMRDwMxE9MwABPxOREXj4PGBehWNSEDCfKwTMZ/V4EgKGgJ+5eiDgZyJ6ZgACfiYiCPh/iLAD5q2Vx1PYAZvj5rIqPILmoYeAeZxSS0HAPIbYARNBwLy1AgGb4+Q2VRAwbyogYB4nCPhJAvgOWL52IGA5M1WBHbA5bi6rgoB56CFgHicIGALGj7D0PytmW4CAzZJzUR0EzAMPAfM4QcAQMASs/1kx2wIEbJaci+ogYB54CJjHCQKGgCFg/c+K2RYgYLPkXFQHAfPAQ8A8ThAwBAwB639WzLYAAZsl56I6CJgHHgLmcYKAIWAIWP+zYrYFCNgsORfVQcA88BAwjxMEDAFDwPqfFbMtQMBmybmoDgLmgYeAeZwgYAgYAtb/rJhtAQI2S85FdbFnzlNKSgq798yZQihL5kxG/sbN28bBBM661LmZWbM86PvmrTvGWamSS5116ufnZ5ScPnuBkpKS2eWZQjJQtqyhRv7W7Tt04ZKs7wJ5c5G//4ODIHQu9Z5aybu7VV/58+SyHUKh07durRq3Gj/3Sp8umHLlyMqNu23uwqV4unX7Lnt8wUGBpM7GdfWl/i6ovw+SK2f2LJQhfTpJid2sK/8d8P379+nEqbOie1AHUGQMSS+qcURYcbty7Qa7ab80aahg/jB23hFBn34VpSOAok0QAAEQ0CHgSgHrjBu1cgIQsJwZKkAABEDAYQQgYIehdbuGXS7g9j0G0c1bt9lgOr/ajNq3bMTOI/gkgV7vj6aTp8+x0YQ3rEm9urZl570xqM5ffn/4eNGtTRr9viWPuA4fi6XID8eJ+h73cSQVf66AUfPx59NpS/Redn3FciVoxAdvsvPeGLwcf4069/lIdGuD+3a1nasrKnwsDAHr0DNf2/qN90Xnw3eLeIVah9cz3yERuVzAhSu3pGvXb7JvYlBkF3qvVwQ7j+CTBHTOA/ZVnpu27abmEX1Ft78haiqVLl5YVGMvvGP3IWrYpreonVULJ9oOto94cwitWL2JXV+vVmVaOHM0O++NQV89jtAb55J7T3nKNqO7CYncOA0f2JP6dGvHztsLQsBa+DyzGAKWzxsELGfmyRUQsCfPnrmxQ8AMbtgBMyA9IwIByxlCwHJmnlwBAXvy7JkbOwTM4AYBMyBBwPqQHmsBArYcqVs3CAG79fQ4ZHAQMAMrBMyABAHrQ4KALWfoSQ1CwJ40W9aMFQJmcISAGZAgYH1IELDlDD2pQQjYk2bLmrFCwAyOEDADEgSsDwkCtpyhJzUIAXvSbFkzVgiYwRECZkCCgPUhQcCWM/SkBiFgT5ota8YKATM4QsAMSBCwPiQI2HKGntQgBOxJs2XNWCFgBkcImAEJAtaHBAFbztCTGoSAPWm2rBkrBMzgCAEzIEHA+pAgYMsZelKDELAnzZY1Y/VJAf/fPz83jrjjXq3C61F4o5rcOHJ2CAwd/TWdOXuBzaZerSoU0bYJO++NQfU+5k/HzxLd2rABPSlvWA5Rjb3widizNGLsdFE7g/t2o0IFHhy1NmH6D/THnsPs+tIli1DfNzuw894YVO9j7jf036Jb692tHan3aOte6u+h+rvorCtH9iz0yWDZq06dNTZn9vNW/9GUlJTE7rJdi4bUuF41dt5e0OWvotQaPYpBAARAAARAwEMJQMAeOnEYNgiAAAiAgGcTcLmAt+3cT8lJyWyKBfLnpnxhOY38uQuXKebEGXatCtaoWt6W3/7HAUpM5D9yyJcnJxXIl9uov3DpCh2NOSXqu1qVsuTn5yeqsRe+FH+VDh+NFbVTtVIZCgjwF9XYC8dfuU4Hj5wQtVPl+VIUGJhWVOOIsDpSUHLyVvZsmW1H+umOZ//h43T16g12M1mzhFLJYgWN/M1bd2j3viPsWhUsX6YYhWRIJ6qxF759567o8bVqo2ypIpQpY4h237oNHD1+mi5cjGc3o3gpblZcMSfP0Lnzl61oitVG8aIFKHvWzKxsaqF79+7Rlu38oytVW0WL5Kec2bNo963bwOmzFyj2FP+Y1YC0AVS1Ymlbt+rIznsp99jDKFQgD+XJnZ2dtxd0uYB1jiOcPnsp9R8mO6M1/sgqG4fSNdsbEudefd/qQOrMT3XNWbCS3v7gM26pkTuzJ4rSBQeJauyFFy5bSz0iR4raidm+mDKHZhTV2AsvX7WROr41VNTOvg3zKCxXNlGNI8LhHSJp8+972E23Dq9L074YzM6nFmzTZQCt3RDNbqtpgxo056vhRl73OEJ2p3aC6j8caoX3EDWxbM7YR/5DV1RsYbjPwDE0d+HP7BbV97erF01k51ML9vvoS5ox50dL2uI0MnXcIGrTXO9sWtXPnbsJlLdcOKdLW2b8J/3c4jcin0+aQyPHzWSPPTRTCB2PXmLL++SPsCBg9nqxBSFgOTNVAQHLuUHAcmaqAgI2x02nCgI2QQ8ClkODgOXMIGBzzCBgc9wgYHPcdKogYBP0IGA5NAhYzgwCNscMAjbHDQI2x02nCgI2QQ8ClkODgOXMIGBzzCBgc9wgYHPcdKogYBP0IGA5NAhYzgwCNscMAjbHDQI2x02nCgI2QQ8ClkODgOXMIGBzzCBgc9wgYHPcdKogYBP0IGA5NAhYzgwCNscMAjbHDQI2x02nCgI2QQ8ClkODgOXMIGBzzCBgc9wgYHPcdKogYBP0IGA5NAhYzgwCNscMAjbHDQI2x02nCgI2QQ8ClkODgOXMIGBzzCBgc9wgYHPcdKogYBP0IGA5NAhYzgwCNscMAjbHDQI2x02nCgI2QU+ds5qcksKuzJktC6mX5KvrytXrdFbwLmdVU7p4YVtfR2JOUVIy/yCIHNmyUI7/9a1e6n/m3EX2uFWwVLFClCZNGlGNvfD1Gzfp9FlZ3yWeK0D+/vqHMdy4eZtOxZ0X3UPxIgUsOQhC1Kmd8MlTZ+nWnbvsZkIzhlhynq/qMPbMebp56za774wh6Sl/nlxGXr2f93hsHLtWBQsXyGPJe8cTEpPo2InTor4L5Q+j9OmCRTWOCMedu0RXr/MPwEgfHGw7Q1l3PJ4q4Pv379MB4WEreXPnIPVeZVdfly5fpQuXr7CHEeDv/8hhKwePnKR79/mHMeTOkY2yZsnE7s9e0OWHMWiNHsUgAAIg4IYEPFXAbojSq4cEAXv19OLmQAAEXEEAAnYFdc/rU1vAP678jb6ZF8W+c3Uu7HdTRrDz7hpcs347TZwxXzQ8dd9/novbe8CnoqMQX2nyEr3eXnZMmGhwzPC2nfto9JezmOkHsaljB2k/qhF1iLDbEBj71VzauHUXezylihemER+8aeTVUaHqcyK5PnyvGz1ftrikxCFZTxWwOh/9tZ6yIzh7d21H9WtXMTh+t+i/tOCn1WymWTJnomnjBtny6thOyfWPTq2ocf1qkpKnZtV9S86HV3+P1d9lnUtbwBOmz6cho6awxxAcFEhxe5ez8+4a1D0PuFKDTnQi9iz79tQi//iDnuy8o4KefB6wo5ig3acT6P7uCFoU9SsbUfUXylHU3HFGXn3vXblBZ3atCi6YMcomA1GhxWFPFbDuecAjxs6gsZPnsmnmzpmN9m+cZ8tnLdaQXauCY4a+Td06thDVPC3skecBQ8D8uT+zJ8r2wxgImM8NSc8lAAE7Z+6mjhtEbZrX0+4MAk5kMxw+sCf16daOnbcXxA7YJD7sgPng9m2YR2G5svELkPQaAhCwc6YSAtbnjB2wPkOntQAB81FDwHxW3paEgJ0zoxCwPmcIWJ+h01qAgPmoIWA+K29LQsDOmVEIWJ8zBKzP0GktQMB81BAwn5W3JSFg58woBKzPGQLWZ+i0FiBgPmoImM/K25IQsHNmFALW5wwB6zN0WgsQMB81BMxn5W1JCNg5MwoB63OGgPUZOq0FCJiPGgLms/K2JATsnBmFgPU5Q8D6DJ3WAgTMRw0B81l5WxICds6MQsD6nCFgfYZOawEC5qOGgPmsvC0JATtnRiFgfc4eKWD1asI5C35m331g2gCaOX4IO++uwd8276Qp3ywWDW/mlx/a3gXdd8gXdP5CPLs+vFFN6tCmMTvvqGD0roOiV82pcUwY1Y/UO19x+R6BCdN/oM2/72XfeMliBUm9z1ld5y/GU98Pv2DXquDAdzpTudJFRTWOCM/87idate53RzRtt83e3dpSjRfKa/en3oXc5Z2PRe30fL0VvVS9olHzw9JVtHTFb+z6rJkz0fhR/Wz5iDdlbnjjtebUqE5Vdn+pBbu8PZwSk/jH00a0bUzNGtbU6lv7TVhavaMYBEAABEAABHyUAATsoxOP2wYBEAABEHAtAW0BX7h0hU7HXWDfhZ9fmkeOC9u97yglp6Sw6/Pkzk7qBA0rrr0HjokeOej2WbFccUqTJo1uM3Tl6nU6LjhJSXVYoUxR8vf31+7bkxs4fCyWbt66w74F9XisUIEwI6/qVL3kKlW8kO3wDUmd1dmYk2fo6rWb7GYzZcxARQvnM/Lq5fwHDp9g16pg8ecKUEiGdKIadwsnJSXTngPHRMN6rlBeCs0UIqqxF05JSaFd+45qt8NtQJ1QV7pEYW481VzcuUuiY1bVV5JlSz1nSd+6jfyx9zDdu3ef3Uy+PDkpZ/Ys7Ly9oLaAdU9DKly5JV27zv/jMCiyC73XK0Lrpv8sLl2zvWix6Hb68GlIOm0tXLaWekSOFDURs30xZQ7NKKrxtnB4h0ja/Pse9m21Dq9L0754cDbqpm27qXlEX3atCm6Imkqli1vzh03U8WNh9b3aitWb2E3Uq1WZFs4cbeT3Hz5OtcJ7sGtVcNmcsVSjqv73kaJOLQ6fPX+ZytRqL2p19uRh2t8Jqg6vXrtBRaq0EvWtE1b/kblj9bc6TdhqdY8jtGQQJhvxyB9hQcD82YaA+awckYSAeVQhYCIImLdWHk9BwDJu2AFfuCwjppGGgDXgWVAKAfMgQsAQMG+lPJmCgGXkIGAIWLZiPDgNAfMmDwKGgHkrBQLu062dWVRGHQQMAWstIE8qhoB5swUBQ8C8lQIBQ8BmVwoR4UdYGvA8sBQC5k0aBAwB81YKBAwBm10pELAGOc8shYB58wYBQ8C8lQIBQ8BmVwoErEHOM0shYN68QcAQMG+lQMAQsNmVAgFrkPPMUgiYN28QMATMWykQMARsdqVAwBrkPLMUAubNGwQMAfNWCgQMAZtdKRCwBjnPLIWAefMGAUPAvJUCAUPAZlcKBKxBzjNLIWDevEHAEDBvpUDALhewJx/G4Kn/DAmHMZj784DDGHjccBgDkSsPY/Dkd0HjMAbeZ+zPlPaLOGTduVfaUwXsXhQxGhAAASsJeLKAreTgC21BwB74JixfWJi4RxDwVQIQsO/MvLaAl6/aSHMW/Mwmps5/nDl+CDvvyKCv7oAHfjyRTp05z0bbsM4L1OW1l9n51IJDRk2hYyfOsNuqU6Mi/aPzg6PZ9uw/SqO+nMWuVcGxH79LuXJkFdXYCx88cpI+/ny6qJ1RQ3pT/jy5jJrRX86i3fv5Z7xWrlCS+r7VwahV5/l++MkUUd8ff9CTihTMa9SMnTyXoncdZNeXL12UBrzTmZ1PLThh+g+0+fe97LZKFitIH77XzcifvxhPfT/8gl2rggPf6UzlShc1ar6etZjWbdrJrlfn+Q4f2JOdd1TQlwWsjs6UXG+81pwa1alqlCxZvo7m/7iaXZ4hfTB9Pfaf7LwjgtoC1j2O0BE3xW3TVwVcs1l3OnCEf8h614hX6LOP3uFiTTXXoHVv2rnnELutDm0a04RR/Y38mvXbqW3XgexaFYxePYsKF8gjqrEX1j0PuE2XAbR2QzR7HE0b1KA5Xw038jt2H6KGbXqza1Vw1cKJVKl8CaNG5zxgUad2wt3fHUGLon5lN1P9hXIUNXeckT8eG0eVG8j+Q2DBjFFUv3YVo77PwDE0dyF/c1CxXAlavWgie6yOCvqygLMWayjCOmbo29StYwuj5vNJc2jkuJns+tBMIXQ8egk774ggBOyDj6AhYPlHCQKWM1MVELCcGwTMZwYBT59P6rEi9woOCqS4vcu5cYfmsAPm4cUOmAgC5q2Vx1MQsJwbBMxnBgFDwOzVcmZPFKULDmLnHRXEDlhOFgKWM8MO2BwzCJjPDQKGgNmrBQImwnfAvOWC74DxHTBvpeinChUIox2rv9VvyIIW8B2wECJ+hMUHBgFDwNzVAgFDwNy1opuDgHUJmq/Hj7DwI6xnrh58B4zvgJ+5SJ4SwHfAcnJ4BM1nhkfQeATNXi3YAWMHzF0s2AFjB8xdK7o57IB1CZqvxw4YO+Bnrh7sgLEDfuYiwQ7YLKIn6rAD5qPEDhg7YPZqwQ4YO2DuYsEOGDtg7lrRzWEHrEvQfD12wNgBP3P1YAeMHfAzFwl2wGYRYQf8EAH8Clq4jH5c+Rt9My+KXRUYmJa+mzKCnXdksHvkSFJH+znrUvet7t/VV+TgcRR75hx7GI3rV6d/dGrJzqcWHDB8Ah09fordVv1aL1Dvbm2N/B97D4vfxzxx9PuUO2c2dn9PC+4/fJw+/OQrUTvjRvSlAnkfvAt6+GfTade+w+z6qhXL2N7HfPT4aRowfDy7VgVHD3mbihbOZ9So91Bv27mPXV+hTHEa0u/B+5h1r7FfzaWNW3exmylVvDCN+OBNI3/uwmXqPeBTdq0KqvdIP1+2uFEzcfoCWrPhd3Z90cL5afSQPuy8o4I3b92h1/t85Kjmn2hXfT7U58QdLvXKVsn1j06tqHH9akbJgp/W0HeL+K8eDcmQnr6ZMFTSneVZ7R2w5SNCgyAAAiAAAiDgAwQgYB+YZNwiCIAACICA+xHQFnD8let07uJl9p35pfEjdeSYFZd6fHxW+B1u6eKFreiarl2/SWfOXRS1VapYIUqTJo1Rc+zEaUpITGLXZ8sSajtW7/qNm3T6rKzvEs8VIH9/f3Z/TwveuHmbTsXxjzLU7TBzpoyUJ3d23WaM+pOnztKtO3fZbYVmDKG8YTnY+dSCsWfO081bt9ltZQxJbzvKkF30lKCaLzVv3Es9mvvz0Tm35mm5M2cv0rUbN9nNZEgXTAXzh7HzjgomJ6fQ4ZhYUfPq6Ek1b+pSj8/jBV9vqXfk/3l8pKhTNwtfvHyVLl6+4rRRheXMRlkyZ7KkP3Xk6L3799ht5c6RjbJm0etbW8CufBPW9NlLqf8w2Xdj8UdWsQGnFpyzYCW9/cFnorYe/hV0pQad6ETsWXZ9767tSJ3xqq6Fy9ZSj8iR7FoVjNm+mDKHZhTV2Aur8587vuW8700ePo5Qd/DhHSJp8+972M20Dq9L074YzM6nFtQ5jlB3AJ56HKHufevUnz1/mcrUai9qYvbkYdSsYU2jpt9HX9KMOT+y69V/nG9cPo2dd9fgiLEzjPOnnXU9/M+QdPvMU7YZ3U1IZDejzo7u060dO28vCAGbxAcBmwQnLIOAhcDsxCFgOUMIWM5MVUDAMm4QsIyXLQ0BmwQnLIOAhcAgYH1gRAQBm8MIAcu4QcAyXhAwHkGbWjF4BM3DVv2FchQ1dxwv7MAUBGwOLgQs4wYBy3hBwBCwqRUDAfOwQcA8Tu6agoBlMwMBy3hBwBCwqRUDAfOwQcA8Tu6agoBlMwMBy3hBwBCwqRUDAfOwQcA8Tu6agoBlMwMBy3hBwBCwqRUDAfOwQcA8Tu6agoBlMwMBy3hBwBCwqRUDAfOwQcA8Tu6agoBlMwMBy3hBwBCwqRUDAfOwQcA8Tu6agoBlMwMBy3hBwBCwqRUDAfOwQcA8Tu6agoBlMwMBy3hBwBCwqRUDAfOwQcA8Tu6agoBlM6Mt4Lhzl+hEbBy7Vz9/P6pWuSw7n1pQvfA85sQZUVs1qpYX5Z8WvnDpCh2N4Z9rq9qpVqUs+fn5GU3u2H2Q7t7lv3dUHUhQqEAeo/ZS/FU6fFT2oviqlcpQQID+YQye/C7ofQdjjEM0uFf2bJmp+HMFuPFUc+o84atXb7Dbypol1LJDS9RL5uOvXGP3nTlzRrLq0JLDx2Lp0uWr7L5DM4VQmZJF2HlHBRMTk2j7HwdEzZcsVsj2cv6Yk2fo3Hn+ITXp0wfbzjEWdepmYU8W8JbovXQvhX8Yg/p7rHtQjLaA3Wz+MRwHE/BkATsYDZoHAZ8n4MkCdsXkQcCuoO7BfULAHjx5GDoIOJgABCwDrC3gn9duoflL+Uf8pU2bliaPGWAb5f/983O6dfsOe9StwutReKMHR36t3RBNcxasYNeqoFXHy4k6dbPw0NFf05mzF9ijqlerCkW0bWLkPVnAn46fReqRKPdSj+3/0bmVEVd1ql5yDRvQ05LzhNWxlSPGTpd0rZUtXbII9X2zg9GGOs936Ogpovbef7uz7dH917MW07Yd+9j16pG/qrfimvndMtq49Q92U+qR4uC+XY381Ws3qN/Qf7NrVbB3t3ZUsVwJUY29sPp7qP4uesr1xmsvU60XKxjDdaWAo37ZSIuj1rKxZUifjv79r/fYeUcEtQWsex5w4cotRd/LDYrsQu/1ijBYuPI8YEdMhrParNmsOx04coLdXdeIV+izj94x8p4sYJ3zgDdt203NI/qymanghqiplnyXumP3IWrYpreob51wvVqVaeHM0UYT6rvrWuE9RM0tmzOW/vytRfd3R9CiqF/Z9Vb+CKvPwDE0d+HP7L6VPFcvmmjkdQ9jYHdqJ6jkX6TKg//w84Rr/Cf9bP+B7koBfz5pDo0cSGWffgAAIABJREFUN5ONTP3e4Hj0EnbeEUEI2BFU3bxNCJg3Qa3D69qemEDAPGYqBQHzWdlLQsB8fmOGvk3dOrYwCiBgBrfgoECK27vclsQOmAHN4ggEzAMKAWMHzFspD1KzJw+jZg0ffD2mc0HAfHoQ8PT5NGQU/zsiCJi/uByVhIB5ZCFgCJi3UiDgP38jgkfQkhVDhEfQMl5ekYaAedMIAUPAvJUCAUPAkpXyVxYCNsfNo6sgYN70QcAQMG+lQMAQsGSlQMDmaHlJFQTMm0gIGALmrRQIGAKWrBQI2BwtL6mCgHkTCQFDwLyVAgFDwJKVAgGbo+UlVRAwbyIhYAiYt1IgYAhYslIgYHO0vKQKAuZNJAQMAfNWCgQMAUtWCgRsjpaXVEHAvImEgCFg3kqBgCFgyUqxUMCLotbS9Dk/snsPCkxLi/7zqS3fvscgunnrNru+86vNqH3LRkY+6pcNNGnmQnatUTN3nCjvjeFe74+mk6fPsW8tvGFN6tW1rZHfvH2P8b5XZ10NX6pKkW++Zkl3A4ZPoL0Hj7HbqlO9ou29xOoow/eHj2fXquCk0e9Twfxhohp7YVe+ivLkqbPUa8Bfn1fOzXw65G3bkYLq/dnrNu/klBmZsiWfo9FD+rDzqQXHffUdrfptG7ut4kUK0LgRkUb+cvw16tznI3atCqr3SFevUk5UYy/syS/imDVvOc1b+os2A24Dvbq0ofBGtYz4vCW/0Kwf/nrJ07PaCMmQnuZNHfmsmEP/d+1/huTQ0aFxEAABcqWAgd/5BDxZwM6n5dk9QsCePX8YvQ8QgIB9YJIfukUI2HfmW1vA12/costXrrGJpSEideyXFdf1m7eMR0WSq7BFfUv6tJc9FXeekpNT2M2EZgyhrFkyGfmbt+7QxctX2LUqWDBfbvLz8xPVIOweBDxZwBcuxdOt23fZINWrasNyZWfnvTHoyQK+cvU6Xb1+02nTki1rKGUKyWD0p7hduXaD3bdfmjSWfEXE7tBOUFvAuscR6gzek48jrNSgE6lzXrlX767t6OMPehrxhcvWUo9I2XcXMdsXU+bQjNzukHMjAp4sYFceR+hGUygaiicLGO+CFk21698FLRvuo2kImE8PAuazcrckBOxuM+LY8UDAfL44DUnzNCQ+6ieTEDCfHgTMZ+VuSQjY3WbEseOBgPl8IWAImL9aHkriEbQpbD5ZBAH71rRDwPz5hoAhYP5qgYBNsfL1IgjYt1YABMyfbwgYAuavFgjYFCtfL4KAfWsFQMD8+YaAIWD+aoGATbHy9SII2LdWAATMn28IGALmrxYI2BQrXy+CgH1rBUDA/PmGgCFg/mqBgE2x8vUiCNi3VgAEzJ9vCBgC5q8WCNgUK18vgoB9awVAwPz5hoAhYP5qgYBNsfL1IgjYt1YABMyfbwgYAuavFgjYFCtfL4KAfWsFQMD8+fZ5AZ86c56OxJxiE/PzS0N1a1Zm51MLnj57gQ4fjRW1Vb92FVHeUWF1ru6dOwns5gvky01FC+cz8ucvxpM6n1ZyvVS9IgUE+EtKkHUTAurQke07DzhtNOrQj+fLFrekv70HY+jCxXh2W+p95ZXKl2DnvTEIAfNn9WEBn4iNo5iTcezitGkDqHa159l5RwS1D2NwxKDQJgiAAAj4KgEImD/zDwuYX+U+SQjYfeYCIwEBEAAB41i9IlVaeQyJ8Z/0o4i2TYzxuvI0JI8B9tBAXS7g94eNp9t3+OeFNv9bLWpSv7pxC+u3/EHzlvwi4j5hVH9R3lHhj8ZMpUuXr7Kbr1+rCrVuXo+dTy04ctxMOnv+Erut2tUqUvuWDdl5BN2LwNezFtPu/UfZgypVrDD17taWnXfX4Oz5K2hL9F728NSZ2f37dDLy6kzbwf+azK7VDaozkAdFdnnQNwTMxmnlDvjdweMoOTmZ3XerZnWpwUsvsPP2gi4XcOHKLema4ABntUjf6xVh3IuvnoakNeNEVLNZdzpw5AS7ma4Rr9BnH73DziPoXgQi3hxCK1ZvYg+qXq3KtHDmaHbeXYN9Bo6huQt/Zg+vYrkStHrRRCN/9vxlKlOrPbtWN1iqWCHauHwaBCwEaaWA85RtRncTEtkjGD6wJ/Xp1o6dh4CJKP7IKi1gVhXrnIakOwYIWJegZ9VDwLz5goB5nB5PecsjaAiYMf/YATMgPSMCAesz9KQWIGDebEHAPE4Q8AMC2AHPXkr9h40XrRrsgPEIWrRgvCAMAfMmEQLmcYKAIWCDAL4DNveBwQ7YHDdPrYKAeTMHAfM4QcAQMARs7rNiVEHAGvA8sBQC5k0aBMzjBAFDwBCwuc8KBKzBzVNLIWDezEHAPE4QMAQMAZv7rEDAGtw8tRQC5s0cBMzjBAFDwBCwuc8KBKzBzVNLIWDezEHAPE4QMAQMAZv7rEDAGtw8tRQC5s0cBMzjBAFDwBCwuc8KBKzBzVNLIWDezEHAPE4QsBcJuGXn/nTj5m32zHft8LLtxd9LV6yjL6f+wK5VwT9fNScqckC4U6+hFHeO/z7mdq80oDffaG3JSLq/O4KOx55lt/VKk9r0f//4OzuPoHsRGDJqCm3ctps9qCrPl6LRQ/qw8+4aHDPhW1q5Zgt7eCWKFqRJn75v5F35Kkr191D9XfSUS70/u0n9asZwZ8z9ieYsWOm0ob/T41Vq0bSOJf01/fu7lJiYxG6r5+ut6NUWeu/Id/m7oNl3iyAIgAAIOImAKwXspFtEN25AAAJ2g0nAEEAABNyLAATsXvPhraPRFvCt23fp+o1bbD5p0hDlzpnNlj9/MZ7u3bvPrs8Ykp5CMqRj51MLXrh0hVJS7rHbUv2q/l193bmbQFev3RQNI3fOrJRGwScyjkFMSk5h16dPH0yhGTMYeXVayJWrN9i1KpgrRxby8/Mz1Xe6dEGUOVOIUZuQmEjxV2R958yemfz9/Y36y/HXKDGJf9xYuuBAyhya0ahVj6YuX7kuuu8c2TJTQMCDvnWupKRkuhR/TdRE9qyhlDZtgFFz5ep1upvAf7Qm6shOOFuWTBQYmFa3GUpJSaELl/hHdqoOs2bJSEGBgdp9u1LA9+/fp3MX4kX3kDk0hNIFBxk16u+x+rvMvdQaVWv1z0vdu+QKzZSB0qcLlpQ8NavT981bd0RfZ+oOOFPGDJQhvd59awt4wvT5pL5j4l7BQYEUt3e5La5zHCG3z6flStdsT+cu8Bdb37c60OC+XXW71a5fuGwt9YgcKWonZvtim0x03oS1fNVG6vjWUFHf+zbMo7BcD/6jq0Hr3rRzzyF2fYc2jenPM5zXrN9ObbsOZNeqYPTqWVS4QB6jJrxDJG3+fQ+7vnV4XZr2xWAjv2nbbmoe0Zddq4IboqZS6eKFRTX2wjt2H6KGbXqL2lm1cCJVKl/CqJH+CEvUkZ3wsjljqUbV8rrN0PHYOKrcoLOonQUzRlH92lVENfbCrhSwmfOAp44bRG3+d174h59MoYkz5rMZFCoQRjtWf2vk1X/c5y0Xzq5VwYdPQxIV2glnLSb7TvXh4wg/nzSH1Fnnzrrc4jAGCNhZ0/1XPxAwnzkEDAHzV8tfSQiYTw0C5rN6PIkdMHbAz1w9XSNeoc8+esfIYQf8TFy2AHbAfFb2ktgB8/lhB0yEHTBjveARNAPSMyLYAfMZYgeMHTB/tWAHjEfQ/NWCR9B8VnaT+A6YBxA7YHwHzFspD1L4DlhC60G2VLFCtHH5NOP/xnfAfH74Dhg/wuKvFouS2AHzQWIHjB0wf7VgB4wdMH+1YAfMZ4UdMH4FjV9Ba35euOXYAXNJ/ZXDDvgBC/wKWrh28CtoITAL4tgB8yFiB4wdMH+1YAeMHTB/tWAHzGeFHTB2wNgBa35euOXYAXNJYQf8OCnsgIVrBztgITAL4tgB8yFiB4wdMH+1YAeMHTB/tWAHzGeFHTB2wNgBa35euOXYAXNJYQeMHbB68ajGhR2wBjyTpdgB88FhB4wdMH+1YAeMHTB/tbjFDli9rebA4ePsUauX8jepX92W/++vWyk5mf+C/OLPFaSihfOx+0stuPq3340X/HOv5wrlI3VmqKsvdY7wH3v571NW421U50Xby/nXb/mDbtzkH6BRIF8YlS1ZxLhtdXhG9K4DIgT1a79A6gUs6tq4dRddu8E/SCJfWE4qX6aYUXsp/ipt27FP1HedGpUoQ/oHh3ds3r7HOJiAe4Xlyk7qkHZ1xV+5Tlui+e+RVjW1q1W05PCOa9dv0sZtu7jDNnI1q1ag0P8dYuGp74K+dfsOrdu0Q3TfVSuVoexZ/zpYQFT8UFgdOrJm/e9my8V1GUMyUO1qzxt16vCNX9ZtFbXxfNkSlCd3dqPmwJETdPzkGXa9Okihbs3KRv7evXu0cs1mdq0Kli9dlPLlySWqeVpYvWlPcpUt+RwVyJfbKPHJN2FJYCELAiDgfAKeKmDnk0KPnkwAAvbk2cPYQcBLCUDAXjqxuK1HCEDAWBAg4MYEJs1YQDGxcewRVixbnCLaNmHn3TXoSgHPWbCSdu497DQ0PTq2sORroms3btHHn08XjfuNvze3fVUjKnSjsHr8/cHISaIRtW/RkF6oWNqoWbF6M60WPLrPFJKBhvTrJurvaWEI2BKMaAQEHENA5zxgx4zIOa26UsDd3x1Bi6J+dc6NEpErzwOePXkYNWtY02n36oiOdH+ENWLsDBo7eS57aLlzZqP9G+ex86kFIWBLMKIREHAMAQjYMVwfb/Xhf4YEATuHuVW9QMB8km7xK2j+cJEEAdcSgICdwx8Cdg5nR/QCAfOpQsB8VkiCgNaLODwZHx5By2fv7PnLVKZWe1EhHkET4RG0aMlQmvuaL+KQdYc0CLiOAHbAzmGPHbBzODuiF+yA+VSxA+azQhIEsAN20hqAgJ0E2gHdQMB8qBAwnxWSIAABO2kNQMBOAu2AbiBgPlQImM8KSRCAgJ20BiBgJ4F2QDcQMB8qBMxnhSQIQMBOWgMQsJNAO6AbCJgPFQLms0ISBCBgJ60BCNhJoB3QDQTMhwoB81khCQIQsJPWAATsJNAO6AYC5kOFgPmskAQB6vX+aNq19wibRMM6VWnYgH+w8+4aHPjxRFq/eafThjfx0/fp+bLFjf489U1Yly5fpRad+omYjRrSx3akoKjQjcIJCYlUv1Uv0Yj+GdmFwhs9eAXn17MW0zffR7Hrs2fLTEu//YydTy34n++X0dRZSyxpi9NIn+7t6LXWjTnRp2bw74C18KEYBEAgNQKeKmDMKgg4gwAE7AzK6AMEfJQABOyjE4/bZhHQFnBCYhLduXOX1ZkKpUmThkIzhdjy167fJMnLuIKDgyg4KNCoT0hMpDt3Eth9q2Dm0Ix/9X3jFt2/d49dHxQUSOmCg4x8YmIS3Rbc95N936T79+47rW/FXLF39XXj5m1KSUlhDyMwMC2lTxfMzrtr8OatO5ScnMweXkBAAIVkSMfOu2vQlQJWn0/1OXXWlSF9OkqbNkC7O/X3UP1dlFzqM6I+K1ZcV6/dEDVjZd+ijh8L301IpLt3+T543EU6fZut1RbwhOnzacioKez+lTzj9i635QtXbilabIMiu9B7vSKM+umzl1L/YePZfatg/JFVtnzpmu3p3IXL7Pq+b3WgwX27Gnl1zunbH8i+uzizJ8om8EoNOtGJ2LPsvnt3bUcff9DTyC9ctpZ6RI5k16pgzPbFj/zHh6jYwnCD1r1p555D7BY7tGlME0b1Z+fdNdimywBauyGaPbymDWrQnK+Gs/PuGnSlgPsMHENzF/7sNDRWvQtaCbBIlVaicU8dN4jaNK8nqrEX1v0RlvYANBqQHkeoNiXHo533nbG9W4OAIWCNJS8vhYB5zCBgHqfHUw+fBwwByxlCwHJmOhUQMASss37EtRAwDxkEzOMEAT8ggB0wEXbAjM8MHkE/+A4Zj6AZi4WI8Aiax8ldU3gELZ8ZPIKWM1MVEDCDGwQMAeM74Gd/ULADfjYjewk8gjbH7c8qPILW4yetxiNoPIKWrhmtPB5B8/BBwDxOeASNR9B/rgHsgBmfGeyAsQPGDvjZHxQI+NmMsAP+iwC+A8YjaNYnBgKGgCHgZ39UIOBnM4KAIeCH1wB2wIzPDAQMAUPAz/6gQMDPZgQBQ8AQMF7Ewf5LgRdxEOE7YN5ygYB5nPAdML4DxnfAeBMW668FBAwBsxYKEUHAXFKP5vAraHPc/qzCr6D1+Emr8Sto/Apauma08tgB8/BBwDxO2AFjB+zTO+AjMado9/6j7E+Lv78ftWxax5b/6ef1lJjEf0l9mZJFqGTRgkZ9zMkztHPPYXbfKvjw+1KXr9pId+4msutLFitIZUoUMfInT52l7bsOsmtVsGXTl8jf39+oWblmM926zT/EoniR/FSudFGj9nTcBdq6Y5+o75f/Vsuyl7WLOn4svGb9droieNl7ofxhVLlCSZ0u3aJ2w9Y/6PzFK+yxhOXKRjVeKM/Ou2tw2879dOrMeacNr9aLFShXjqxGf576Kkp1gMRP/90gYvZipTKUL09OUY29sDooZcmK30TtVKlQkgrmDxPVOCJ88OhJ2ncwht10YNoAerlxbXbeEUHtHbAjBoU2QQAEQECXgKcKWPe+Ue85BCBgz5krjBQEQEBAAAIWwELUJQS0Bbxx6y5auWYLe/ABAf40tH93dh7BJwns2X+Ufli6WoTmn5Fv2I5CFBU+Fj5w5ATNXSA74q1/n46UKWMGo6Wv/rOIzpy9yB5CxXLFqbUFx6ypDqfNXkonT51j91221HPUvmVDdj614DfzouhozGl2W6WKFzLeg62u02cv0JT/LGbXqmDPN1pRvrAHjyTVkXwHDp9g1xctko9ebx9u5M9fjKcJ0+aza1WwW8TLVKhAHqNm3pJVtPfAMXZ9wfy5qXvHFux8akEIWI4xOTmFho2ZJipsFV6XKpUvIapxx7C6b3X/3KtJ/WpU88UK3LjdnLaAdc8D1hq9jxa78jxg9b15x7eGisjv2zCP1Hea6nLlj7DCO0TS5t/3sMfeOrwuTftiMDufWlDnPOAduw9Rwza9ReNYtXCi7Y9ixJtDaMXqTez6erUq08KZo438/sPHqVZ4D3atCi6bM5ZqVH3w/bX0MIbqL5SjqLnjRP09LQwByzF68q+g5Xf7aEWess3obgL/N0HDB/akPt3aaXULAWvhc00xBGyOOwTM4wYB8zg9npo9eRg1a1jTXLGbVEHAELCbLEX3HQYEbG5uIGAeNwiYxwkCfkBg/Cf9KKJtE3PQ3KgKO2A3mgx3HgoEbG52IGAeNwiYxwkChoDxCNrcZ8WjqyBgc9MHAfO4QcA8ThAwBAwBm/useHQVBGxu+iBgHjcImMcJAoaAIWBznxWProKAzU0fBMzjBgHzOEHAEDAEbO6z4tFVELC56YOAedwgYB4nCBgChoDNfVY8ugoCNjd9EDCPGwTM4wQBQ8AQsLnPikdXQcDmpg8C5nGDgHmcIGAIGAI291nx6CoI2Nz0QcA8bhAwjxMEDAG7XMDf/rCcxk35jr1igwIDafOK6ew8gk8SUEcZ/nPkJBGatUsmU2jGEFGNvfCvG6Op75AvRO38/MN4ypEts1HTqddQ2neIf2TYK01eoo/6y16F+LTBdY8cSTt284+QbFyvGn0yWPYKyKf13XvAp7R5O/81mHVrVqaxw981mtt/6Dh17DVExHz2pOFUukRho0bNl5o37lW9SjmaOPp9I37sxGlq1+0DbqmRmzZuEFUq/+AIyQ9GTKSf1/LfFa/qVL0V10djptKPK2VH6+n0q+ZLzZsnXwkJiVS9WTfRLajPp/qcevpVvWk3Skjkvwkrsudr1OnVZlq3rf0qSq3eUQwCIAACIAACPkoAAvbRicdtgwAIgAAIuJaAtoDV8U1Jycnsu0iTJg0FBwWy86kFU1JSKDGJ37clnWo0ki44SKP6r1Iz921V37o3oB5x3bt/n91MgL8/pU0bwM6nFkxMTKKUe/fYbbmyb38/PwoMTMseq5X3bWXfSUnJlJzCP+LNlX37pUlDQQ/9bVIHE0iuoMC05OfnZ5RI71u3b8k4H8/q9h2YNoD8/f11huAWteokpPuCv01pAwJIHa+rc2kL2JXHEU6fvZT6Dxuvc/9OrT2zJ8qSM3ld+SMsXWA4jpBHsGmDGjTnq+G88DNSOscR6g7Ak44jrFiuBK1eNNG45bPnL1OZWu1Ft//waUj9PvqSZsz5kV1fqlgh2rj8wTm8V6/doCJVWrFrdYOFCoTRjtXfGs3gNCT+d8A+fxwhBMz/6MVsX0yZQzPyCxyUhIB5YCFgHqfUUtLzgCFgCBjnAQs+dxAwHxYETOSp/wyJP8v2k9gB8whCwBAwBMz7rBgpCJgPCwKGgLmr5eF/B8yteVoOj6B5BPEImsfJkSmcByykCwHzgUHAEDB3tUDA+A6Yu1ZUbvwn/SiibRNJiVtmIWDhtEDAfGAQMATMXS0QMATMXSsQcDsJqiey+BW0Fj5ZMX4FTYQfYfHWDH6ExeOUWgo/wuIxxK+gH3DCDpi3Xmwp7ID5wLADxg6Yu1qwA8YOmLtWsAPGDliyVlyaxQ4YO2DuAsQOmEvq6TnsgHkMsQPGDpi3Uh5LYQfMx4YdMHbA3NWCHTB2wNy1gh0wdsCSteLSLHbA2AFzFyB2wFxS2AHrksIOGDtgU2sIO2A+NuyAsQPmrhbsgLED5q4V7IBdvAM+cOQE7djFP2NVvby6fctGkvl9atZXBXzy1FnasHWXiGG7VxpY9nJ/UcePhVeu2UKX46+ymyhSKC+p82mtuH5Zt40uXIxnN1UwfxjVerECO59acM367XT2/CV2W/nz5qKXqldk51ML/rZ5J506c57dVliu7FS/dhV2PrWgWqdqvXKvnDmyUqM6VbnxVHPq/OWYE2fYbWXLmpma1K9m5G/fuUuLo35l16pgnRoVKV+eXEbN7zv30+Fjsex69ZrY8EY1jbwr3wWtDnr5fvEv7HGrYPUXylGRgnlFNe4YnrfkF1KHC3GvShVKknqBis6l/c+QdDrXrfVVAetyQz0IgID7EnClgN2XineODAJ24rxa9R2wE4eMrkAABJxMAAJ2MnAXdqct4C3Re2nVum3sW1BnKA54pzM7n1rQV3fA+w7FiB+PvdcrwpKjEA8dPUnzf1xtyfxxGqlQphi93Lg2J+rWme8W/ZeOnTjNHmPx5wrQqy0asvOOCl68fJWmfLNI1HznV5tRgXy5RTX2wleuXqeJMxaI2unQujGpry10rxs3b9O/v/5e1Iz6mqdE0YKiGnthXxbwiLEzRPzUjxUrVyhp1GzcuovWboxm1wcHB1G/XhG2/OgvZ4nOtm9YpypVq1yW3Z+9oLaAcR4wn79VO2BXnge8fNVG6vjWUP5NayY7tGlME0b112zF9eVtugygtRv4fxys/BW0zt3vP3ycaoX3EDWxbM5YqlG1vKjGXvh4bBxVbiD7j/UFM0ZZ8v217nnAOjfvywLOWkz2H51jhr5N3Tq2MHB/PmkOjRw3k40+NFMIHY9eYsvjTVhsdA+CvroDhoCFC8UN4hCwfBIgYDkzMxUP/zMkM/VW1kDAQprYAfOBYQfMZ/VnEjtgOTMrK7AD5tOcPXkYNWv44JfMOhd2wHx62AFPn09DRk1hEwsOCqS4vcvZ+dSC2AHzMVr174DxCJrP/OEkdsBybtgBy5mZqcAO+AE1PIIWrh4ImA8MAuazckQSApZThYDlzMxUQMAQsJl1g++ABdQgYAEsB0QhYDlUCFjOzEwFBAwBm1k3ELCAGgQsgOWAKAQshwoBy5mZqYCAIWAz6wYCFlCDgAWwHBCFgOVQIWA5MzMVEDAEbGbdQMACahCwAJYDohCwHCoELGdmpgIChoDNrBsIWEANAhbAckAUApZDhYDlzMxUQMAQsJl1AwELqEHAAlgOiELAcqgQsJyZmQoI2IMFPPO7n2jMhNnseQ8KTEs71/LzqTXsq/8MSf1b3H5Dv2QzV8HNK2dQaMYMohp7Yfw7YHMIu0eOpE3bdrOLG9R+gcaP6sfOOyp4JOYUtegkG8esiR9RledLaQ8p9sx5avLqO6J2po79J9W04AjJC5euUN0Wb4r6Hv9JP2rw0guiGnvhazduUfUmXbXb4Tagjr78+QfZ3xNu29Jc6ZrtRSUfvteVXmvd2KhR7yz/99fz2PWZMobQlpXTbfmK9TpSQmISu75/n47U5bWX2Xl7Qe13QWv1rlnsqwLWxKZVDgFr4UMxCIAACNgIQMBOXAxWvYrSiUN+oisI2JX00TcIgIA3EYCAnTibELActre8C1p+56gAARDwdgLaAsZhDPwlYpWAcRoSn7k3JHfsPkQN2/QW3cqqhROpUvkSohp3C7vyR1iuZGHmMIap4wZRm+b1XDlso291nu/YyXPZ48idMxvt3/jX97Y6pyGxO3WjIATsxMmAgOWwsQMmgoD568aq84D5PVqfhID5TB8+DYlf5T5JCNiJcwEBy2FDwBCwZNVAwBJa1mexA5YxhYBlvLTSELAcHwQMAUtWDQQsoWV9FgKWMYWAZby00hCwHB8EDAFLVg0ELKFlfRYCljGFgGW8tNIQsBwfBAwBS1YNBCyhZX0WApYxhYBlvLTSELAcHwQMAUtWDQQsoWV9FgKWMYWAZby00hCwHB8EDAFLVg0ELKFlfRYCljGFgGW8tNIQsBwfBAwBS1YNBCyhZX0WApYxhYBlvLTSELAcHwQMAUtWDQQsoWV9FgKWMYWAZby00hCwHB8EDAFLVg0ELKFlfRYCljGFgGW8tNIQsBwfBAwBS1YNBCyhZX0WApYx1Rbw3gPHaGv0Xnav/gH+9Mbfm7PzqQUPHDlBm7busqQtZzTyxmvNyd/fX7urmJNnaO367aJ2Or7alIICA0U19sKxp8/RL79u1W6H20DxogWpdrXnuXGvzF2Kv0pLl68T3VuLZnUoe9bMohp3C1+/eYvmL1klGlZWfek4AAAKoklEQVTjBtUpX1hOUY27hRMSE2n2DytEw6pXuwoVKZhXVOOIcPSug/THnkPsptOnD7ad56uK1BGzkqvGixWoVLFCkhK3ymoL2K3uBoMBARAAARAAAQ8hAAF7yERhmCAAAiAAAt5FQFvA2/84QOs27WBTUY9g3+35d3YewScJHDx6kqL+u0GEpne3dhQcpP8I+ujx07R0hexxqGigj4XLlCxCTepX12nCVjtvyS90Ou4Cu62SxQpReKOaRv702Qs0b/Ev7FoVfL19OGXP9uAx8IKf1tDJU2fZ9c8Vykctm9Vh51MLLlm+jo6dOM1uq2D+MGr7cn0jf+nyVfpmXhS7VgXbt2pkewwc9ctGOnjkBLs+X56c1L5lI3Y+teDKNZtp38EYdlvqaLyItk3YeQStJ/D5pDnWN/qUFoOCAqlPt3a2//WLKd9TSkoKu/86NSpRledLsfP2gtoCduV5wFp37sHFOA/Y3OSFd4ikzb/vYRe3Dq9L074YbOQ3bdtNzSP6smtVcEPUVCpdvLBR06bLAFq7IZpd37RBDZrz1XB2PrVgxJtDaMXqTey26tWqTAtnjjby+w8fp1rhPdi1KrhszliqUbW8UdP93RG0KOpXdn31F8pR1Nxx7HxqwT4Dx9DchT+z26pYrgStXjSRnUfQegLS84B1RhCaKYSORy+xNZGnbDO6m5DIbnL4wJ6PCJxd+FAQAjZDzcU1ELC5CYCAedwgYB4npKwnAAELmWIHLARmQRwCNgcRAuZxg4B5nJCyngAELGQKAQuBWRCHgM1BhIB53CBgHiekrCcAAQuZQsBCYBbEIWBzECFgHjcImMcJKesJQMBCphCwEJgFcQjYHEQImMcNAuZxQsp6AhCwkCkELARmQRwCNgcRAuZxg4B5nJCyngAELGT6/+2de1CVRRjG35lQKcsZ09TR8UaJg2LKRVNJzNugWEKo4A0Jb+QdL2gCZihaRt4gRYVQEBXJCDBQRg3BIDNRS5JJRzMcSUwtJAvNZprdEwdKZd4935k+8Xv2r/PH8+7lt/vx8H5nzy4MWBGYFeQwYMsgwoB53GDAPE5QWZ8ADFiRKQxYEZgV5DBgyyDCgHncYMA8TlBZnwAMWJEpDFgRmBXkMGDLIMKAedxgwDxOUFmfAAxYkSkMWBGYFeQwYMsgwoB53GDAPE5QWZ8ADFiRafyODFq5fhs7yta2EZUU7GHrIbyfwL6cozQndI0SmtO5ySSOXtNasg8V0ITpy7RWw4635n3AflPD6PjJ79htj/DoRxtWLZD646fOkt+UUHasEOakRpP98+1kTMCsCMr/8hQ7fkj/XrR1rVp7D6t82vxVdDDvOLtt9z5OlPihaY7PXSglD9857Fgh3BO/ino5dZExc0PXUGbOUXZ8L+eutCduJVtfl3BRRAx9nHmYXVf3rp0oPSmKrYfQ+gT0NGAHNz+qqrrDHlRYcCBN8fdi6x8k1HwUpabWEVzvCNRnA653sNFhEDAYAT0NWA/UMGA9qNfjNmHA9Xjy0HUQeMQJwIAf8QlC9/QlAAPWlz9aB4HHmQAMWHF2tyR+ShFRcewocQdj7SugxHv3iopKdvyi2RPN9wlvT/mMQiM3sWOFsKw426x3GjCByn++yY6fO20MLZ4zUerF3bLzwtWuTbtYlG6+k7fPsMlK98MGBfjQspApsu30/Xk0I8R0XRy3lBSm1vvvgI8UFNG4oKXcIUtdYXY8dWjXWn72eWMRHTtRzI73GtafYqMWs/V1CccGhVNeAf/ebI8BvWlbzNuyytPF58hzTLBSP7JT1lMPR3sZEzh7OeXkHmPH93dzpt1bItn6uoTTQ1Yr3R/d29WR0ra/L6u8VFpGfT1Na55bdm1ZQa+4uUh5cPg6Sk3n3+Hc3dGe9qesl7FXr90g54H+3GalLiF6qfnu6iWRGykxhX+PcucX2lNueqysp+LWb+TQ11ep7U1Ri8l7mPb7o8V1fHYu3kptr4ucZ77DeXV0Em3YmsKOb/ncs3QqN9mshwGz0ZmEWndBd3TxlguOW8LmBdKCGeOl/KPkDAqJiOGGSt3N84fM+i5ufvJB45b508dR+PxJUr5z7wGaveQDbqjUXTmTRU/aNpKfnQf506VS/gXtMyeNphVLgmSsUXdBf370BI2a9JYS86LDSdTxHwPWsgtaqdEHiLXcB3zy2+9p8MiZSl049MlGcn6xs4zRch+wUqMPEGu5D/iH0jJyGWT6h5db9ia8RwP7uUq5lvuAfyq/QV1f9uM2K3XJsRHkOdhNfl74TjQl7Mxkxzt06kAF2fFS/2tFJdm5vs6OFcK4dWE08tUBSjEPEv9RdYfadBuuVE/Muwtp/KihMiZybQKtjd3Fjm/VohmdrbUpFwbMRmcSwoD5wGDAfFbVytq7oGHAfH4wYBgwf7XUKGHAllCzPEbzJiwYMB8+DJjPCgbcl3ZuXi4xIAPmrxtkwHxWyICf/tfXodrIWRYNA8YraKWVo+cmLGTA/KlCBowMmL9akAFbwsoaMTBgGLDSOoIBK+Eyi/EdMI9bn57dKGuXaXMjvgPmMRMqfAfMZ1WtFAcT1d4QrF6D9ggYMAxYaRXBgJVwwYCDIykt6wgbGgwYm7DYi0WjEAZMRNgFzVtF2AVNhFfQvLUiVHgFjVfQ/NWCV9CWsLJGDDJgZMBK6wgZsBIuZMDIgFkLBj9DMmHCz5BYy6VGhF3QfGDYBc1nVa3Ez5CwC1pl1WAXtAqt+7X4GZI2fqrRyICRASutGWTASriQASMDZi0YZMDIgFkL5b8iZMB8bMiA+ayQAeN3wNgFzX9esAuaz6pa+VhswhLn1H7x1Tfs0TewsaGggJpj1sR9wlV377Lje7s4kmsPB6kvLrlARwr55+uKmFmTR5vb2rZ7H93+vYrdtmhXtC9KyflLdDj/a3asEL4Z4EM2Nk/ImB2p2VRReZsd7+RoT24vdZf68xcvK53tK2Km+ntTo4YN2O09TCj+KGYdLNBcD7cCkRkMcu8p5ZevlFPGgXxuqNRN9PWkJs80lp/TsnKp7Op1dnwnu7YkzmS2Rsk8kE+lV8rZVdm1b20+1vDa9V8oNaPmCFVOJb5eg6lF86ZSKt5aXPyxjBMmNe3atKQRQ93Z+rqE4gxqsV65pXWr5uQz3HSk4q3K25SUWnN2O6cOr6Hu1LZNSykVz6d4TrlF8BLcRBF/F8TfB5UyfIib+djTvMKTdKbkAju8WdMmNNbHQ+rv3P2T4naks2OFUKxTsV61lnv3/qLNiWlK1YjnUzynohwrKqYTp0vY8Y2fsqXAsa+Z9SKh+7+KbcOGmu/z1dpXza+gtXYA8SAAAiAAAiBgRAIwYCPOOsYMAiAAAiCgOwEYsO5TgA6AAAiAAAgYkQAM2IizjjGDAAiAAAjoTgAGrPsUoAMgAAIgAAJGJAADNuKsY8wgAAIgAAK6E4AB6z4F6AAIgAAIgIARCcCAjTjrGDMIgAAIgIDuBGDAuk8BOgACIAACIGBEAjBgI846xgwCIAACIKA7ARiw7lOADoAACIAACBiRAAzYiLOOMYMACIAACOhOAAas+xSgAyAAAiAAAkYkAAM24qxjzCAAAiAAAroTgAHrPgXoAAiAAAiAgBEJwICNOOsYMwiAAAiAgO4E/gbxJYSW3lzHDAAAAABJRU5ErkJggg==;fontColor=#666666;" parent="1" vertex="1">
          <mxGeometry x="837.5" y="85" width="155" height="155" as="geometry" />
        </mxCell>
        <mxCell id="pbOQcnThbagH4nvjm6GH-18" value="&lt;p&gt;&lt;font color=&quot;#666666&quot;&gt;&lt;b&gt;&lt;font&gt;&lt;span style=&quot;font-size: 35px&quot;&gt;&lt;font face=&quot;Comic Sans MS&quot;&gt;程序员成长充电站&lt;/font&gt;&lt;/span&gt;&lt;/font&gt;&lt;/b&gt;&lt;b&gt;&lt;font&gt;&lt;font style=&quot;font-size: 35px&quot; face=&quot;Comic Sans MS&quot;&gt;&lt;br&gt;&lt;/font&gt;&lt;/font&gt;&lt;/b&gt;&lt;/font&gt;&lt;/p&gt;&lt;p&gt;&lt;b&gt;&lt;font&gt;&lt;font style=&quot;font-size: 35px&quot; face=&quot;Comic Sans MS&quot; color=&quot;#666666&quot;&gt;互联网技术武道场&lt;br&gt;&lt;/font&gt;&lt;/font&gt;&lt;br&gt;&lt;/b&gt;&lt;/p&gt;" style="text;html=1;strokeColor=none;fillColor=none;align=center;verticalAlign=middle;whiteSpace=wrap;rounded=0;fontColor=#474747;" parent="1" vertex="1">
          <mxGeometry x="180" y="47.86" width="310" height="150" as="geometry" />
        </mxCell>
        <mxCell id="pbOQcnThbagH4nvjm6GH-19" value="&lt;p style=&quot;font-size: 15px&quot;&gt;&lt;font face=&quot;Comic Sans MS&quot; style=&quot;font-size: 15px&quot; color=&quot;#666666&quot;&gt;JavaKeeper&lt;/font&gt;&lt;/p&gt;" style="text;html=1;strokeColor=none;fillColor=none;align=center;verticalAlign=middle;whiteSpace=wrap;rounded=0;fontSize=15;" parent="1" vertex="1">
          <mxGeometry x="392" y="201.46" width="90" height="30" as="geometry" />
        </mxCell>
        <mxCell id="pbOQcnThbagH4nvjm6GH-21" value="" style="shape=image;verticalLabelPosition=bottom;labelBackgroundColor=#ffffff;verticalAlign=top;aspect=fixed;imageAspect=0;image=data:image/png,iVBORw0KGgoAAAANSUhEUgAAAYYAAAE+CAYAAACJGbf9AAAMaGlDQ1BJQ0MgUHJvZmlsZQAASImVVwdUU8kanluSkJDQAhGQEnoTpFcpIbQIAlIFGyEJJJQYE4KKXVlUcO0iihUroujqCsiiIvayKPa+WFBR1sWCoqi8SQFd95Xz/nPmzpdv/vlbZu6dAUC7lyuR5KE6AOSLC6QJkaHMMWnpTFIHQAAOyMATmHJ5MgkrPj4GQBno/y7vb0BtKFedFbb+Of5fRY8vkPEAQMZBnMmX8fIhbgYAX8+TSAsAICp4qykFEgWeA7G+FAYI8SoFzlbhXQqcqcJNSp2kBDbElwHQoHK50mwAtO5BnlnIy4Z2tD5D7Crmi8QAaA+DOIgn5PIhVsQ+LD9/kgJXQGwP9SUQw3iAb+Z3NrP/Zj9z0D6Xmz2IVXkpRSNMJJPkcaf9n6X535KfJx/wYQsbVSiNSlDkD2t4K3dStAJTIe4SZ8bGKWoNca+Ir6o7AChFKI9KVumjJjwZG9YPMCB25XPDoiE2gThCnBcbo+Yzs0QRHIjhakGnigo4SRAbQrxQIAtPVOtslk5KUPtC67KkbJaaP8uVKv0qfD2Q5yaz1PbfCAUctX1Mq0iYlAoxBWLrQlFKLMRaELvIchOj1TojioTs2AEdqTxBEb81xAkCcWSoyj5WmCWNSFDrl+bLBvLFNgtFnFg1PlAgTIpS1Qc7yeMq44e5YJcFYlbygB2BbEzMQC58QVi4KnfsuUCcnKi20yspCE1QzcUpkrx4tT5uKciLVPCWEHvKChPVc/GUArg4VfbxLElBfJIqTrwohzsyXhUPvgzEADYIA0wghy0TTAI5QNTaVd8Ff6lGIgAXSEE2EABnNTMwI1U5IobPRFAE/oRIAGSD80KVowJQCPkvg6zq6QyylKOFyhm54CnE+SAa5MHfcuUs8aC3FPAEMqJ/eOfCxoPx5sGmGP/3/AD7jWFBJkbNyAc8MrUHNInhxDBiFDGC6IAb40F4AB4DnyGwueO+uN9AHt/0CU8JbYRHhOuEdsLtiaJ50h+iHAXaof0IdS0yv68FbgtteuGheCC0Di3jDNwYOOOe0A8LD4aevSDLVsetqArzB9t/y+C7f0OtR3Ylo+Qh5BCy/Y8ztRy1vAatKGr9fX1UsWYO1ps9OPKjf/Z31efDPvpHTWwhdhA7gx3HzmFNWD1gYsewBuwidkSBB1fXE+XqGvCWoIwnF9oR/cMfV+1TUUmZa41rp+tn1ViBYGqBYuOxJ0mmSUXZwgImC34dBEyOmOcyjOnu6u4GgOJbo3p9vWUovyEI4/w3br4PAIHF/f39Td+46O0AHEyD2//aN87uI3xHWwFwdiNPLi1UcbjiQYBvCW2404yAGbAC9jAfd+ANAkAICAcjQRxIAmlgAqyyEK5zKZgCZoC5oASUgWVgNVgHNoGtYBfYCw6AetAEjoPT4AK4DK6Du3D1dICXoBu8B30IgpAQGkJHjBBzxAZxQtwRXyQICUdikAQkDclAshExIkdmIPORMmQFsg7ZglQjvyCHkePIOaQNuY08RDqRN8gnFEOpqD5qitqiw1FflIVGo0noeDQbnYwWocXoErQCrUL3oHXocfQCeh1tR1+iPRjANDEGZoE5Y74YG4vD0rEsTIrNwkqxcqwKq8Ua4f98FWvHurCPOBGn40zcGa7gKDwZ5+GT8Vn4Ynwdvguvw0/iV/GHeDf+lUAjmBCcCP4EDmEMIZswhVBCKCfsIBwinIJ7qYPwnkgkMoh2RB+4F9OIOcTpxMXEDcR9xGZiG/ExsYdEIhmRnEiBpDgSl1RAKiGtJe0hHSNdIXWQejU0Ncw13DUiNNI1xBrzNMo1dmsc1bii8Uyjj6xDtiH7k+PIfPI08lLyNnIj+RK5g9xH0aXYUQIpSZQcylxKBaWWcopyj/JWU1PTUtNPc7SmSHOOZoXmfs2zmg81P1L1qI5UNnUcVU5dQt1Jbabepr6l0Wi2tBBaOq2AtoRWTTtBe0Dr1aJruWhxtPhas7Uqteq0rmi90iZr22iztCdoF2mXax/UvqTdpUPWsdVh63B1ZulU6hzWuanTo0vXddON083XXay7W/ec7nM9kp6tXrgeX69Yb6veCb3HdIxuRWfTefT59G30U/QOfaK+nT5HP0e/TH+vfqt+t4GegadBisFUg0qDIwbtDIxhy+Aw8hhLGQcYNxifhpgOYQ0RDFk0pHbIlSEfDIcahhgKDEsN9xleN/xkxDQKN8o1Wm5Ub3TfGDd2NB5tPMV4o/Ep466h+kMDhvKGlg49MPSOCWriaJJgMt1kq8lFkx5TM9NIU4npWtMTpl1mDLMQsxyzVWZHzTrN6eZB5iLzVebHzF8wDZgsZh6zgnmS2W1hYhFlIbfYYtFq0WdpZ5lsOc9yn+V9K4qVr1WW1SqrFqtua3PrUdYzrGus79iQbXxthDZrbM7YfLC1s021XWBbb/vcztCOY1dkV2N3z55mH2w/2b7K/poD0cHXIddhg8NlR9TRy1HoWOl4yQl18nYSOW1wahtGGOY3TDysathNZ6ozy7nQucb5oQvDJcZlnku9y6vh1sPThy8ffmb4V1cv1zzXba533fTcRrrNc2t0e+Pu6M5zr3S/5kHziPCY7dHg8drTyVPgudHzlhfda5TXAq8Wry/ePt5S71rvTh9rnwyf9T43ffV9430X+571I/iF+s32a/L76O/tX+B/wP+vAOeA3IDdAc9H2I0QjNg24nGgZSA3cEtgexAzKCNoc1B7sEUwN7gq+FGIVQg/ZEfIM5YDK4e1h/Uq1DVUGnoo9APbnz2T3RyGhUWGlYa1huuFJ4evC38QYRmRHVET0R3pFTk9sjmKEBUdtTzqJseUw+NUc7pH+oycOfJkNDU6MXpd9KMYxxhpTOModNTIUStH3Yu1iRXH1seBOE7cyrj78Xbxk+N/G00cHT+6cvTTBLeEGQlnEumJExN3J75PCk1amnQ32T5ZntySop0yLqU65UNqWOqK1PYxw8fMHHMhzThNlNaQTkpPSd+R3jM2fOzqsR3jvMaVjLsx3m781PHnJhhPyJtwZKL2RO7EgxmEjNSM3RmfuXHcKm5PJidzfWY3j81bw3vJD+Gv4ncKAgUrBM+yArNWZD3PDsxemd0pDBaWC7tEbNE60eucqJxNOR9y43J35vbnpebty9fIz8g/LNYT54pPTjKbNHVSm8RJUiJpn+w/efXkbmm0dIcMkY2XNRTow0P9Rbm9/Cf5w8KgwsrC3ikpUw5O1Z0qnnpxmuO0RdOeFUUUbZ+OT+dNb5lhMWPujIczWTO3zEJmZc5qmW01u3h2x5zIObvmUubmzv19nuu8FfPezU+d31hsWjyn+PFPkT/VlGiVSEtuLghYsGkhvlC0sHWRx6K1i76W8kvPl7mWlZd9XsxbfP5nt58rfu5fkrWkdan30o3LiMvEy24sD16+a4XuiqIVj1eOWlm3irmqdNW71RNXnyv3LN+0hrJGvqa9IqaiYa312mVrP68TrrteGVq5b73J+kXrP2zgb7iyMWRj7SbTTWWbPm0Wbb61JXJLXZVtVflW4tbCrU+3pWw7s913e/UO4x1lO77sFO9s35Ww62S1T3X1bpPdS2vQGnlN555xey7vDdvbUOtcu2UfY1/ZfrBfvv/FLxm/3DgQfaDloO/B2l9tfl1/iH6otA6pm1bXXS+sb29Ia2g7PPJwS2NA46HfXH7b2WTRVHnE4MjSo5SjxUf7jxUd62mWNHcdzz7+uGViy90TY05cOzn6ZOup6FNnT0ecPnGGdebY2cCzTef8zx0+73u+/oL3hbqLXhcP/e71+6FW79a6Sz6XGi77XW5sG9F29ErwleNXw66evsa5duF67PW2G8k3bt0cd7P9Fv/W89t5t1/fKbzTd3fOPcK90vs698sfmDyo+sPhj33t3u1HHoY9vPgo8dHdx7zHL5/InnzuKH5Ke1r+zPxZ9XP3502dEZ2XX4x90fFS8rKvq+RP3T/Xv7J/9etfIX9d7B7T3fFa+rr/zeK3Rm93vvN819IT3/Pgff77vg+lvUa9uz76fjzzKfXTs74pn0mfK744fGn8Gv31Xn9+f7+EK+UqjwIYbGhWFgBvdgJAg2cHOry3Ucaq7oJKQVT3VyUC/wmr7otK8QagFnaKYzy7GYD9sNnOUV5VgOIInxQCUA+PwaYWWZaHu8oWFd6ECL39/W9NASA1AvBF2t/ft6G//8s2GOxtAJonq+6gCiHCO8PmQAW6bsifA34Q1f30uxx/7IEiAk/wY/8vSvyPItSd9cQAAACKZVhJZk1NACoAAAAIAAQBGgAFAAAAAQAAAD4BGwAFAAAAAQAAAEYBKAADAAAAAQACAACHaQAEAAAAAQAAAE4AAAAAAAAAkAAAAAEAAACQAAAAAQADkoYABwAAABIAAAB4oAIABAAAAAEAAAGGoAMABAAAAAEAAAE+AAAAAEFTQ0lJAAAAU2NyZWVuc2hvdPlJgGAAAAAJcEhZcwAAFiUAABYlAUlSJPAAAAHWaVRYdFhNTDpjb20uYWRvYmUueG1wAAAAAAA8eDp4bXBtZXRhIHhtbG5zOng9ImFkb2JlOm5zOm1ldGEvIiB4OnhtcHRrPSJYTVAgQ29yZSA2LjAuMCI+CiAgIDxyZGY6UkRGIHhtbG5zOnJkZj0iaHR0cDovL3d3dy53My5vcmcvMTk5OS8wMi8yMi1yZGYtc3ludGF4LW5zIyI+CiAgICAgIDxyZGY6RGVzY3JpcHRpb24gcmRmOmFib3V0PSIiCiAgICAgICAgICAgIHhtbG5zOmV4aWY9Imh0dHA6Ly9ucy5hZG9iZS5jb20vZXhpZi8xLjAvIj4KICAgICAgICAgPGV4aWY6UGl4ZWxZRGltZW5zaW9uPjMxODwvZXhpZjpQaXhlbFlEaW1lbnNpb24+CiAgICAgICAgIDxleGlmOlBpeGVsWERpbWVuc2lvbj4zOTA8L2V4aWY6UGl4ZWxYRGltZW5zaW9uPgogICAgICAgICA8ZXhpZjpVc2VyQ29tbWVudD5TY3JlZW5zaG90PC9leGlmOlVzZXJDb21tZW50PgogICAgICA8L3JkZjpEZXNjcmlwdGlvbj4KICAgPC9yZGY6UkRGPgo8L3g6eG1wbWV0YT4K8jjHFAAAABxpRE9UAAAAAgAAAAAAAACfAAAAKAAAAJ8AAACfAAAxXLKo8RYAADEoSURBVHgB7F0JvE7F+3/uvVz7mi0kS7JGSUnRZolKCf2K7FkrlDZFUqGEFllDEglJ9RcRKtnKHlokW/YlRdbrLv/nmXPmPee89945c977Xt7z3uf5dO6cM88zz8z5vnqemTMzz8SkIAETI8AIMAKMACNgIhDDjoH/LTACjAAjwAjYEWDHYEeD7xkBRoARYASAHQP/I2AEGAFGgBFwIMCOwQEHPzACjAAjwAiwY+B/A4wAI8AIMAIOBNgxOODgB0aAEWAEGAF2DPxvgBFgBBgBRsCBADsGBxz8wAgwAowAI8COgf8NMAKMACPACDgQYMfggIMfGAFGgBFgBNgx8L8BRoARYAQYAQcC7BgccPADI8AIMAKMADsG/jfACDACjAAj4ECAHYMDDn5gBBgBRoARYMfA/wYYAUaAEWAEHAiwY3DAwQ+MACPACDAC7Bj43wAjwAgwAoyAAwF2DA44+IERYAQYAUaAHQP/G2AEGAFGgBFwIMCOwQEHPzACjAAjwAiwY+B/A4wAI8AIMAIOBNgxOODgB78icPr0aTh27Bj8jdexv/8W6b8nTkDC+fNwPiFBpAkXLhjPZt4FzE+Ll0DyJi9bXBzEx8dDjhw5IB6vHHjvJS1WrBiULl0aSpUqJVK/4svtzloIsGPIWr+3r972Ahryv9HIBxv8v48fNxyAzQmcO3fOF+9WCp1EadNJlClTBipVrgxXX301FCpUyBft50ZmDQTYMWSN3zmi3/IE9ux37twJu3btgl2Y7jTTgwcPRnS7w9m4okWLwtWVKgknUQnTmjVrQokSJcJZBetiBLQRYMegDRULZhSBw4cPpzL+5AyO4wiAKTUCV1xxBdSpUweuvfZaqFa9OpQtWza1EOcwApmAADuGTACVVQLQKGDTpk2wbu1akdIo4AzOAzCFjkCFChWgXr160KhxY6hWrVroirgkI+CCADsGF4CYrYcAzQVs3bIFfv75Z1izZg388ssvegVZKiQEpINo1KgR5MqVKyQdXIgRSA8BdgzpIcP5SgTosxA5gs10oTOg0QHTxUegZMmS0LZtW2jdps3Fr5xrjFoE2DFE7U8b/hc7cuQI/PDDD7AcL0qZIgeBxvh5qedjj/E8ROT8JL5uCTsGX/98F6fx8+fPDziDs2fPXpxKuRbPCNCeCXIOzZs391yWCzACdgTYMdjR4HsHAl999RXMnj0btmze7Mj3wwNtQsuXNy/klVe+fOJe5uXB/FDoPO6XoD0TdJ213Z9DhynzZUp82mB3sal3nz7QqVOni10t1xdFCLBjiKIfM1yvsnTpUpg1axasxUnkSKIiRYoA9YqL4iVSXPtPKV0FChSwnAAafdqtHAl0Hh3D3r17Yd++fVb611+wF5/3YX5mUf/+/aHVgw9mlnrWG+UIsGOI8h/Y6+s93bcvfPvtt16LhUWeJlLLly8PtCyzxOWXB4w+bf4i4x8TExOWeiJJyfbt22Hbtm1A6fY//oBteB3HFV7hoCFDh8Ldd98dDlWsI4shwI4hi/3gqtdt1qxZpvZiZd12B1AenQA5AnIIvOzSQIhGF6tWrRLXakwpblMoVLx4cTHyK1CwYCjFuUwWRoAdQxb+8e2vfucdd8A///xjzwrLPQWQo/AONfCiTVnsALzBSr/J6tWrYeWKFbBi5Uo4iRsHvdDTzzwjlrN6KcOyjAA7Bv43AM89+ywsXrw4w0jQd/0aNWoIB1AdQzhUv+YajveTYVQtBbSbfMGCBTDlgw/g6NGjFkNxRwH6ZuECAiZGwAsC7Bi8oBWFsrTy6KUBA0J+M/r+f9vtt8PteF2DjiB//vwh6+KCegjQpyZyDnPnztUqMHXqVDFi0xJmIUYAEWDHkMX/GTzWs6f4VOEFBjqb4LbbbhMOgdI8efJ4Kc6yYUJg0cKF0K9fP1dt/DnJFSIWCEKAHUMQIFnpkZZL0oSzLtFKoQ4dOojRAYeE1kUtc+XaYCiM3379VVlJ9x49oAdeTIyALgLsGHSRikI5WpZKy1N1qEnTpvDM00/DZbiXIFqI9hf8+eefsHHjRsiJo6DHHn/cd6922623wsmTJ5XtZseghIeZaSDAjiENULJK1vjx42ECXirKjxvHhg4ZArdguGe/Ek3UkgOga4eZBkd/bfPII/AsTsL7icaMHg2TJk1ybTJ/SnKFiAWCEGDHEARIVnqkFS79X3zR9ZWpx9mqVSugnceRTLRqRxr+HXgSnHQElO9GFF/o5UGD3MQihk9BDPv07q3VnhEjRkCDhg21ZFmIESAE2DFk4X8Hv+K36Uc0wzXT6qMWLVtecgdBm71oBEDnQO/evTtg/MkJ6C7hTOsnb4iGczgaUD/QH7g7+gWcdKbjUHVo2vTpQMuHmRgBXQTYMegiFaVy1+GxkV6IHAQdNUkb10rj0ZPlypUTV8EM7q7977//hLEn406H/hzD9Cgaf0qPmc/kDEguM6juzTfD2LFjM0N1WHXSuRfkFA4dOqStd8mSJVE1N6T94iwYMgLsGEKGLjoKPoifiKi3nVHKmTMnFCpUCArShU6isJnmxqWsFEhORCWl1Lyn9DQe9UnG/uixoxiFNLSwDxlttyxPu7M/xPX+kUwrceczffrT+TQm3yNbtmywdt06+cgpI6CFADsGLZiiV2gARuGk8xayOl1VsSJ8+umnEQvDEtyZThFTvcZNolHdvHnzIva9uGGRiQA7hsj8XS5aqz7CXvLbb7990eqL1Iouxz0aC77+OiKbN2HCBBg/blxIbatduzZM1Fi5FJJyLhS1CLBjiNqfVu/F1uFnhq5duugJR7EULctdtmxZRL0hbUAkp52RMOj34gbG1157LaLeixsT+QiwY4j83yjTW+h1AjrTG3QJKqBv8SsxxHWkHPBDzoCcQkYP8+mCTv/xJ564BIhylX5GgB2Dn3+9MLW9yV13weHDh8Okzb9qlqIxLly48CV9Adqf8Nlnn8EPYRq9DHjpJWiJy4yZGAEvCLBj8IJWlMrSRikySNFG9gOBKMKoG9EkLU3WXgoKt0OQ7zBmzBi4+ZZb5COnjIAWAuwYtGCKbiGd0Bh0ytqOHTsiDggK5if2UuAJcOXKloWy5r6Kyy67LNDWrVu3Qru2bQPP6d3MxHOuK1WqlB477Pl0CA+dg7H4m2+A5noyg+bg6IN+OyZGwAsC7Bi8oBWlsjoT0LGxsfDpnDmw+eef4efNm2ELXpnpKAoULABFixaDohiGgzbVFcGLUvGM5z9TeA56zp49u+uvQjukH8CQF240Gc84qFWrlptYhvmENzkDcgqZcWqevYF06huHRbcjwvc6CLBj0EEpC8joTEAHx9who0YH2VN6/Phx+IcuvKdLtUM5T968YhNcIdwIR+cR04Y4ui+E3/e9GHzdn+Xff/+FO/AgITca9d57UL9+fTcxz3zakEab0zZu2AC0czkcGwp1GpEvXz74YflyHVGWYQQcCLBjcMCRdR9uwZAQZ86cUQJAYam7du2qlIlUpo7je/2NN6BJkyYZfgVyjBS9lS46q3nLli0Z1mlXQCuoHsXVRm6RcSvisZ6z+VhPO3R8r4kAOwZNoCJNjDam7cJPJDXxjGWaMC1dqhTQQTqhEu1lcPvO3RTPZBj6+uuhVnFJy92CE7BnMASHil4aOBBatGihEknF279/Pxw8eNBwBDiXQc7gwIEDqeTClXEzOnBagjobd2kvdNmQR6MfGgUxMQJeEWDH4BWxCJFfvXo10LGcwXTllVdCKXQSRfE7fDG8ihcvLlLKo8B36a3T15mArly5Mnwyc2Zwlb54vqtxYzhy5IiyrX3xIKJ27do5ZCig3549e8RFZy0fRKNPjuAgBrE77CGQnUNpCA80T9C1Wzdxgh4V1zm57cH//Q9e1AirHkJzuEiUI8COwac/MAWfa49GjIyUFyLHIJ3G5biipxQ6C3IadLntgKaznj/DA+hJ1m/0wAMPwO5du5TNpnMn/vrrL+EEDuBIgOYmIoFoHwIZefuKKZ0RUK9evaDzo49GwitwG3yGADsGn/1g9ub26dMnbBuh7HpV97SLliY18+fPL64CGEqCJo/pyouTypeKKForHXFJk97yOoX3p/DzEUVx/f6778TE76VqXyj1kkOgq0rVqqmK68yZDBk6FO6+++5UZTmDEXBDgB2DG0IRzNc92vFivQKF3ianIZ0FTZLSclK65H022709PyU5GS5cuACJiYmOi/IupJF37tw54QhOnzolDP/Zs2cv1mtmaj0UurxRo0ZAJ8ql5RBk5TqOYfLkyVDr+utlEU4ZAW0E2DFoQxV5gt/gWvjnn3su8hrGLfKMAEVBbYTzIOQUyDmoiD4jNtI4qvMrDKfux89+qndn3sVBgB3DxcE5U2qhb+ZtcUcvfSph8h8CNGdADuH2O+4Qqe4brF+/HrpozB2sWbtWawOgbr0sl3UQYMfg89+6c6dOsHHjRp+/RdZoPs3L3HDjjVAHL0rLYgiPUIiC7A12CaVNK9IW4YiSiREIBQF2DKGgFkFlXscJRt7EFEE/iNmU2Lg4qFatmuOimE7hoLfeegumffSRUtU1uL/lIxcZpQJmZmkE2DH4/OfX6T36/BV90Xw6GlQ6gurVq0OVKlUyrd06q9Ea43zFsDffzLQ2sOLoRoAdg89/Xwpm1759e5+/hT+aT6uu6AjQkriPg9IyZcoEnAHt8bhYRAEBKTCgitrhv4m+ffuqRJjHCKSLADuGdKHxB4OWbVJIabfAbO07dICaNWuKA3mO4KE8dDDPYdwJLO9pWWhWJ9qHcXnJksLok+EvJe8xpbMd3FYLXSz8al13HaSkpCirew5Xq7Vu00Ypw0xGID0E2DGkh4yP8l984QX42iVuzk033QTjxo9P961o/wA5CwobIS8KBncK9wmIjWKU4vVf0HO6CiOAQec4F8AJX9p8J+9FSvnyQj6F9CZHQJPDfiCdPQwjcR7izjvv9MPrcBsjEAF2DBH4o3ht0pQpU2DUu+8qi9HBNdOmTxcGUCnokSkcBzkM2mVsOg+7MzmHO5KTk5IgCTewJWEq72WaZh46qWSSx0vKiRTLx+MnGzL2aRl4yhNOAPlk+KORCJfrNc6MmDFjhnKDXDRiw+8UPgTYMYQPy0umiUI7P6Fx4Ps777wDt2mcS3DJXoQrdkWAAvo1v/9+V7nFS5aIsy1cBVmAEUgDAXYMaYDit6yjR4+KeQb6FKSino89Bt0wQidTZCDw26+/eu7V09nQdEa3imhU9dNPP6lEmMcIKBFgx6CExz/MXjhiWIEjBxU1xHALw4cPV4kwL5MRoLMavsOAfkuXLhWfxN7GUZwXmjZtGrw1cqSyCIVe/+LLL5UyzGQEVAiwY1Ch4yPeqFGjYAqeWawiWl5J8wx+mWRVvYufeDTn8v3334sIr+QQJFFIbAqN7YWGDB4Mc/DsbRXdWKcOTJgwQSXCPEZAiQA7BiU8/mHSaV4v4OokN5qEETev54ibbjCFhU+ffX5YtkyMDtI622HwkCFwzz33eKqrGx6tuhZjIKnofpyDGPTKKyoR5jECSgTYMSjh8Q9zx44dYp7BLfw0r2/P3N/0559/hmU0Olj2PezaqT4YKBQnrXMSXbfu3aFnGqf7Ze6bs/ZoQoAdQxT9mh1xExsZJhXdj7tmBw0apBJhngcEfsUJ5C1btsBWPO+ZLrdT4uyqv/y//xO7p+15bvc6exhefvllaI4n1jExAqEiwI4hVOQisNwQ/DQxBw+JV1FVDOz28ccfq0SYp0BgM4YgWbduHfxiOgK3c6QVqmAVntudK1culUgqno5jGDtuHNStWzdVWc5gBHQRYMegi5QP5D6dPRuGYrRVFdFJajQBXblyZZUY80wENmzYIBwBpTQyOBOmsy9y58kDK1eu9IQzbSK8tX591zJzMCx3hQoVXOVYgBFIDwF2DOkh48P8TZs2QaeOHV1b/sqrr8J9993nKpcVBGjF0L59+2A/XnvNlJ7lfWZhQBFYyUF7od9++w3atG7tWmQZTnrzyjNXmFhAgQA7BgU4fmOdOXMG2j7yCOzCk91URKe+Pf3MMyoRB4+MJ0XqLFy4sAgkR8Hk6JLhJ/LjOc/5KEyFeTkKX6IHCrUhQnOYYTqot52WA0hrtdDFaHKDBg1ghMt+hOB2LFq4EPr16xec7XgugHGhaGksEyOQEQTYMWQEvQgs+/zzz8M3ixYpW0anh73//vtKmWAmnS1NZ0zrEH0mIcdBjiIfOo3c+B09D+blyp1bpPRsvyf53MijQH4U5TU4TSuPosqS4Rcxmsw4TTJeEwX6C9cnH533DUXm4YcfhuddjHyw3vdxb8I4nD9QER0XOnPWLJUI8xgBVwTYMbhC5C+ByZMmwejRo5WNpgBz03ECunTp0ko5O1NHr12e79NHoGXLlkBXlapV0xdKg9P/xRdhwYIFaXCsLIqFRTGxmBiBjCDAjiEj6EVg2eXLl0Nvjd20XsMyU7gNCrvBFBoC5AgaNGyYodVCj+D5CrQ8VkUPPfQQ9NPY6KjSwTxGgB1DlP0boEB6NM9w7Ngx5Zt179EDeuClS6SPDFNGlmfq1hUNcvR5jA7UoTMR7sT5hHCEAa93yy1w2mVVVJ8nn4SOGgsQogFjfofMQ4AdQ+Zhe8k0P45RVFetWqWsnwwWjRq8kE6gPi/6okk2Li4Orr32WqiJF6W18MwEmlcJJ+nsYXj99dehSdOm4ayWdWVBBNgxROGP/s7bb8PUqVOVb1YK5xc+//xzyJ49u1LOzhyDcxeTcA6DCcQKrWq4WbAaLju9DkcGFH+KnENmko5j+AADKV6ncZBPZraTdfsfAXYM/v8NU73B/PnzYUD//qnygzPG4yqXOhiJU5eW4uEvz3hY5qqrN9Ll6LMQOYHqeFXFCWNyBnQU6MWkQ4cOQdMmTVyrnDdvHpS+4gpXORZgBFQIsGNQoeNT3vbt20VAvfN4rKaKaC8D7WnQJdoH0BqXWdIy0WikmNhYuOqqq+Aq3DVMaQW6x6tUqVKX/HVp5/WjnTu7tuNHPKAnBx7Uw8QIZAQBdgwZQS+Cy7Zv106EcFA1sVmzZvDqa6+pRFLxunbpAidPnoSTuHeA0kjfL2B/AdqQV7RYMSiGV9GiRcUl76/AXnb58uXt4hF1//nnc+HVV15VtqkEjmK+xvDrTIxARhFgx5BRBCO0/GsY9mLu3LnK1lG8pE9mzlTKuDFp9CAcBToJ2mBG95T+RynyEhLOw/lz5+Ecjl4S8KL0PG5OS0hICOTRyIY2rMk84ienpEB2jOtEsZ3oou/3jnucG6FnkrHzyOAXK148leGn/Pj4eLfXiVg+7U2Y+uGHyvbRpPcUFxmlAmYyAiYC7Bii9J/CTDT4w954Q/l29OnkY4zX43WjlVIpMzMFgSdxGSqd86AiWo1Eq5KYGIGMIsCOIaMIRmj5DevXw6N4dKQbcex+N4Qig/8Anq/gdtYD7V+gfQxMjEBGEWDHkFEEI7Q8bYSiDWl79uxRtrA1ytCpbkyRjQDti0hJTlY2knY8085nJkYgowiwY8goghFc/rlnn4XFixcrW0jr7+mISabIRkBnD8NbuH/ljjvuiOwX4db5AgF2DL74mUJr5MSJE2HsmDHKwhT9lI6YpGioTJGJAE3O36Sx34QCI9J+CyZGIKMIsGPIKIIRXJ4mK2nS0o2GjxgBDTHAG1NkIrBz505o2aKFa+MWYVh0Wn7LxAhkFAF2DBlFMILL025Zmmc4fvy4spVdu3aFxx5/XCnDzEuHwA94Iluf3r2VDaCzo1difKyYmBilHDMZAR0E2DHooORjmR7du8NPuBtWRRzDX4VOeHkp5/+DmBz5PCmdjkuKR+KoTkVly5UTsa9UMsxjBHQRYMegi5RP5Ubi8ZHTp01Ttp7i/izgHbNKjDLKTDr6G5xf9yFAXDzkbuxtt/mQIUNgzqefKptQt25dGOtyuptSATMZARsC7BhsYETj7TycWB44cKDrq03AgHo3akxwuipiARsCKXBhz0pI2PgxJB3YBDGAu7mvaws563o78Khbt26wds0am97Ut81xnwPtSWFiBMKBADuGcKAYwTr++OMPcXAPnZusoqeeegrad+igEmGeJgLJp49C4q5v4cKWzyD55H5IwfAe+EdcOes/A/HXtNLUZIg1uesuoAOYVNSzZ0/ohp8NmRiBcCDAjiEcKEa4Dp0jIe+55x4YjJ8smEJDIOnv7ZD41wq4sHs5JP/9JwBuRqNpYNqUJlPSnKvpcMherr6nSnT2MLw8aBA0b97ck14WZgTSQ4AdQ3rIRFH+IDQaX37xhfKNrqpYET51+Y6tVJDFmCkJpyDp0CZIPLABEnd/D8lncOUXjQrwc1FMspGmYCqcgm3EkOd/0yCuSEVPaOk4htG4X+UWPPqTiREIBwLsGMKBYoTrmIEbn4YPH+7aStroVqZMGVe5rCiQcuEsJB3dLJxB0kF0CDhCoDkD+4jAGBmQU0CyjRRkPqV5Oy+CmJz5hYjOH1pq3ACPYXUjcurk3JkYgXAgwI4hHChGuI5169YBnaPgRgNeeglatmzpJpYl+Mn/7YWk439A8vE/IenIL5D09zb6LkQDAmNkYBsFGHMIZr5txICxwwVWNHIQBeNyQv5u34k83T9btmwBOlvDjb5ftgwKFCjgJsZ8RkALAXYMWjD5W4jOR6B5hr179ypfhAKwUSC2rEbJ/+2D5FP70Qn8jg5gO84R/A7JCacDn4Fi0K4HAtiRc0ASn4nQOZBTMEYERr50BqlHDMkQW6gc5G39iSd4F+Iy4hdcfhMKZ/Ltd94cjqdGsHCWQ4AdQxb5yZ9++mn4dulS5dvSofYfTJmilLEzk8/8ApB0DiBbAYiJyw8x2fATSWxOu8glv09JOAEpF/AoUjT0yeeOQcrpQ+gEDlrp2aPCyIsevdnDlyuIhNE3jb/Ms48YDD6WtI8kbCOG4DmGuNJ1IE+zdzxh8v7778O4sWOVZeg8jRkzZihlmMkIeEGAHYMXtHwsO2H8eBiPl4ro0Ptvv/1W+8zgpH+XYg/7GxA96kBPGlfhxObCarJjmgNSYiglZ5EN03h8jsewDfFioxflCYNLjcJeuSD6RENkptgnN3vk9onc85CSmIBOCZfgJuG51ikJaPwxTU7A/9AJoCNISfgPIBHlsF1G+0gvXoHPO9ZqITkHIOo1Q1tbcweyXqnH+JxkHynIEYPUY8w9yHbLenAPQ9X7Idft/UQ1un8G9O8P8+fPV4rfiXMQI996SynDTEbACwLsGLyg5WPZ7/BTQ1/cq+BGIzD0QgPNgHrJZ3GJ5oFJhhEXdhf/kEEXRp0mZikTSX5jl6mQITGbfKr7YD7qMZ2P1Bf4dm/qC9Rt6rJ69GnVY+iXRhyfAk5D1ENNt+kRjss+MrC113gPU54cmXxP8/3le+a4oSvkqN0ZBfWpXdu2sHXrVmUBPlNDCQ8zQ0CAHUMIoPmxyIEDB6BN69Zw4sQJZfM746lvvXr1UsoEmCmJkLBzQGB1jmE8yaKSDZc9ZSsVDGksJV/26M18afxFeWHPrZ63UV5+45d6g/imkwjUT/rN9qTdPipvd2JB+lFfuOYYcjUYCNkr3S1eQ/fPrfXrizO0VfK8OVGFDvNCQYAdQyio+bRMN4yiunbtWmXr69WrB++NHq2UsTMT943Cb/f7RIdb9rBlKnrsKBzo2cuetK0nHvjME+iBUwHhETAho2xM8Mo8Ubepx/iGL/lWOSlrlCd1hj6Zb6SUL50GOTO8As5JUb8QtfMNPZbTwTY72mfVn/u+0ZCt1PXiFXT/6OxhGIrnPDfF856ZGIFwIcCOIVxI+kDPCNzL8DHuaVBR8eLFYeGiRSoRBy/x6JeQfGIVWr+gnjYaR9lTl9/eyfgaxpzEpVE2U2G8yYjis7C7km/poYqtcla+rEc0TBpl4VTs+oRFDxh/S49mPbZ2kROwnJ4sL1OqByn4/bBdedvOgdj8pQy+xl+qoxYuCHCjiZMmQe3atd3EmM8IaCPAjkEbKv8LfvnllzBII9Cal5PAkk/9DImH0NkIuyssJllNcYmeOsGGRlKQmW/wSQTzU5VDSTPf0dMnBVKPNP5mGtzTd9SfSr9sI9WPzgUvo51Wvr3+AF/oSau9QSMWfCE5YpDtks4wX/fluGorTkCh84eWF9/XrJmrKG9MdIWIBTwiwI7BI2B+Fv/999/FfoZkaWDTeZneffpAp06d0uE6s1OSTmJIiCGiJx8w8ngjjaG9Zy5KCmNOtt/sYcueuJkvjDIKCr6w1dbIwCgvRyaU76xH8IXzCdJv6rPaZ+NjvVKPU79sH/KpHRIzclpCH+UbTiH1iAUF5PvJNGchyN9RvbpIKLb9oXM06DwNFcXGxcGKFSuADuphYgTChQA7hnAh6QM91DOmCWhyECpqgt+rX8fv1rp0YffruFz0H7KeeGEpYZztRlNkorE0UzufjK75bJQLKo88B58aZeoJOJ+geh31p9IvMkQ7L+YcQ2zRKpC35WRqvTZ99tlnMPg19dkNJUuWhPkLFmjrZEFGQAcBdgw6KEWRzEAMezFv3jzlG5UvXx4+mztXKWNnJh6eieGl14uswEhA9MTR/soes9njDhhzW77ocQvnQE4Ce+rCdlvf7O09cksf9fTT0286JalHOgfyWsKpOMsZepBHFGhnUP22dpEaclbB9Us9cgRi58eVvQ1yN9F3ttSUd995Bz788EO6TZdqXX89TJ7szeGkq4wZjICJADuGLPZPQeeYSIJk8ZIlUKRIES10kk+uhsTDn5O1tC60nuQEBJk9fNnTN+QM4+ooYy9vGl+Lj5poZEBk6jP0yzox31He7hykjD016pdGHJ8CTiOtkQ+xg/NlfcaIxqwfBVPNMWC74ms8BDlv7oNC+kT7Tmj/iYruvvtuGDJ0qEqEeYyAZwTYMXiGzN8F1uBJYN3xRDA3otPA6FQwHUpJOIQnlY0UtlUYSyxk9exlz9tu1G182ROXTsQ0/qK8sONWz1y0Jb0evZlvGOsg/WZ7DONOFt7Gx3ot54CMYP1o1MMxxxB/c2/IUeNhUbfunxaI/65du5TinTp3ht69eytlmMkIeEWAHYNXxHwuTxvcKKDe/v37lW/S6sEHoT+GY9CjFEjYMdCIm2TrtVufW8gY42X29O09beOzEfIC5UjUeBbl8d7okZsy1CBTj/FZSvKtcs7ypM6uX95TvnRamBdon6UnzfqFqKHD4Bt6LKdjjRgCn82w/lyNh0L28rejcn26vlYt9FOmQ02n2PP9+sHDD3tzOOmo4mxGIIAAO4YAFFnn5qknn4Tvv/9e+cI1ataEqVOnKmXszMT9k/Gwmt9tIwWrpy+/vZPxDRhLNHj2b/CG8TaNtbC7km/pofqskYiVL/WI9kingcY4MFch9AmLHvhcZOnRrEeObGhEY+qT9TpTqgcp6P1y48RzHE5AeyGdzW0jRo6EBg0aeFHLsoyAKwLsGFwhij6BsRitcyJG7VRRzpw5YfWPP6pEHLykfzCg3tGFZNkDlzD2JCV7vTaeYVwNI2svY/S8LeMb4Nn1SOMvRyAiRQGH/vRHEoYciZPzMOWMBmEm6bHqD/Bt+cp6UEGqOQZsXz5cqhqTqxC9hRadPn0a6mmcyDb1o4+gRo0aWjpZiBHQRYAdgy5SUSS3FMNvP4NhuN1oHEZjvemmm9zEBD/57E5I3DvOMM5oHNMaGRiCRo860GOXPfGAcUejjOQ+x0AjBmc9RkFyTGZ50kP6TX2UL4y6+WzkW3owO+DErPaR8zD0CT45DSTxfqZTCegnhnwP24iBNrXl74ab2zzQtm3b4GE8H8ONFi5cCMVLlHATYz4j4AkBdgye4IoO4X379ol5hpMnTypfqGPHjtAHPztpEQXU+xPnJJKTDOPrMJrCIptGk6yscVnf6K28gPGW5c1UlhFtEcbX5hTMHn5ARqlf1kXNkE4D86hiadQd5c0RhZmXun2GnkA+3sgRg3SOkK8U5GszWwtGKUThz5/u21c+pplSmPTly5dDbGxsmnzOZARCRYAdQ6jI+bxcF4yiun69sfcgvVepe/PNQJ+ddCnxr/cg6exus4dOPXE0mvaes3hOnS/khOE1jbWw3ZbRlnqoHZa+1HoMPuUbxtzrHAOVl5+9UtVDTsRsFzkB4dRQ3JKzt9fmtPD94zBwXp5m7wn1un+m4Seit1zOWKhQoQLMwU1wTIxAuBFgxxBuRH2ib9iwYTDzE/Uxk7SPgfYz6FLSsXl4cM8ysppYxDCOoqzZw5eriYyevWFcjXthaY1ytp65mKOwPaMVNppiGzFQPVJfsK60RySWvGHcZTsxPzBiMOYYpD6jHfRKzvzUfNSB7ZEjBqkvW8WmkOvOAUbbNf/SzvPZs2YppW/GOYgxY8YoZZjJCISCADuGUFCLgjJffP45vPLKK65vMhflypUr5ypHAsmntkDi/qlCNnVP2m7UycaaPWzZE7cbZdQg+MKGWyMDoRjLEQXKY7kY89lgUCEbn/RLvrDb9MfGF+Wlc0BGsH50TBmdY6DDeXLU7iLq1f3THWMkrcFYSSpq2bIlDMCd7EyMQLgRYMcQbkR9ou+3X3+FNrifwY364nfudu3bu4kZ/KQzOM8wEK0uWWY0tmRUkUPf2vGv2SM3eAG+eLTySMxR3tQj80RFpj7jG75Rj72clHUfMUinISq1jRiM9hjlpX7ZxuD2UXPRWcl2440cMcg5hhy39YP4ys1E03X/NGnSBA4fOqQU79GjB3THi4kRCDcC7BjCjahP9NHGKVr1sn37dmWLGzduDMPefFMpY2cm7MR4QBeOCWcge+p25yCNpdXjlyMHMryGkZXf8mU5qYfqscpJpyONuzGSkJ+rLKeAfKFXWO6A8bf0yPKWvjTrkSMb0wlYTk+WlynVgyRHRJjmvvcdyFb6RiNf86/OHoaBuDv9Ac3d6ZrVshgjIBBgx5CF/yEMGDAA5n/1lRKBK8uWhS+++EIpY2cmHpoFyf+uIQuP/1lGUsjQc+AynECgp23LR+uPTOLb5EmB+ZknYPwdIxHk2+Xx3iifOt+QM/Tj/wCGnFGhqNdef4BPr2IfGdjqctSDeuSIQc4x5HloBsQWvBIV6JOOY6CT9ujEPSZGINwIsGMIN6I+0qez8oVehza60YY3HUo68RMkHZqNNtTqgdt7/NJYBnrssicujDzWQMZXJFZP31le8kk/GnVbPUZBciakxuzBk35TH+ULpyD1i9TSg48B52OVR76pT/AD7aN8w6kE9IvyVAmSrB/T/F2+A8iWw8jX+HvkyBG4C0dqbjQTJ6crVarkJsZ8RsAzAuwYPEMWPQV+QoNP36nd6E08ErRRo0ZuYoKfknAELuwcJgww9aQNoyksMhpLMzV724KPWUaPW9zgA6px8GXP3+RTLaaegFMgY20r5ywfrN+q52LsY4jNUQDydvR2XsKGDRvgUQyO50ZLca9D4cKF3cSYzwh4RoAdg2fIoqfAv//+C60xANshl0nOB1o8AAMHvqz94gnbB0JK4qlAT93eow4Yc1uPWvCFMyAjLkcKsqcvnYscKaTOT63f7MkLHyD1Cc9hOhWsJ7h+OWLBfCKLb9Zva5cYkQScnmyPTEneGsnEFL4K8rb6UOjU/fMVnpfxkstqo8twKfESD0uJdetmOUaAEGDHkMX/HfTBkM0//PCDEoXq1avDtOnTlTJ25oV9H0DKqa3iM4/IlyMFmQacgOy9p5UG9/RRE40MiGwjBswkQZHIkYJM0x6RWPLGiMYw4kKBdA5UD4rZ9RjPzvzUfFHIMccQd2V9PKDnDdFs3T/jMRTJBLxU5PU3UeliHiMQjAA7hmBEstjzGJzAnDRpkvKts8fHA53joEtJx7/Dg3vmpTliCN8cg72Hjjbc7Okbxtp4NkYiUs5m1PFFnCMC6RyQETxioJEB+ZKAfsM5iZEP8gznYuNL54LyVH/2qi0hZ72ndKETcjqLAho0bAgjRozwpJeFGQFdBNgx6CIVpXL0OeLZZ55xfbuPpk2Da665xlWOBFIwLMaF3aNsRtPoScuevr2nHVhKKnr9ZIFJAaWm0TVTmScaYBsxyPAX9nJS1n3EIJ2GvX0u9adqHzXV7nTQkdjal7Pu43h6m/t+EfFe5p/27drBli1b7Fmp7lvjHpTnnnsuVT5nMALhQIAdQzhQ9LGOvXv3inkGCvOsoi5du8Ljjz+uErF4aCjPb3sOe9rJjp45Wf3MnmOQzsdyCmj8hZ9xGn9rxGA5B+dcRVA+vouhx3AC9pGCLGekVA+SOWLI2eAVyF7B23kJt916K7gFOOzdpw906tTJqIv/MgJhRoAdQ5gB9aO6zmhgNm7cqGx6nTp1YPyECUoZO/PCntGQfHqHkRX4DCMstDkiCOppO0YMlvGVvX+hSOqx9cjJ2cjPUwFZ24gjrZGEIUf102ciY2Qi9IhyWJM5AnDwhV+xjQzMOkgXyQXqwRs5YqB25W4+AeKKV7dD43qvs4dh8JAhcM8997jqYgFGIBQE2DGEglqUlXkDA7bNcgnYRssiaXmkLiUe+QqS//7WNmJAo0okjDrZXrNHLnviZr4wyigm+MKPoKE1n6m4NQdA+c4RiOCbRtqhHxn0bBlvW/1Yr9QjypvOxyqPfGqHdErkNIQ+yjecgrN95EGQzPfL88jnEJunqJGn8TchIQHq3Oi+S3oCHrR0o4acRpUswgikQoAdQypIsl7G3Llz4bVXX3V98W8WL4aiRfWMXPKpX+HCXxNNo07GEi9h/MnKGpfRI6dHKy9gvKXRNVNZRjTS1BP4LGX28AMySv2yLqrX+lxktY+aam+fHBFY5Zx8Q0+g3XgjRwwx+ctAXtz17IV279qlFebCS3BDL/WzLCNACLBj4H8H8Msvv0DbRx5xReKlgQOhRYsWrnJCIPk8JGx7wej5Y4bscQeMudmjtvfMybj6dh9DSgzEXVYR4opVh2wlakBciZoQk7OgHlY2qRUrVkCvJ56w5aS+zZYtmzizO0/evKmZnMMIhAEBdgxhANHvKhITE8UE9J9//ql8Fa9LJBN2DIOU84eskYJjxEBOQPbC00qD+dg08zOOHHmQk8FMEhSJ7MnLNO0RiSUv+Fg+oEfoM+sRqg1Zo53O/JhsuSD2sso4f3CN4QyKVQOI0w97gdrSJPqkR5/2VFT6iitgHm6CY2IEMgsBdgyZhazP9L74wgvw9ddfK1t9BRqk//NgkBIPzoak46uC5gjI4pKNz+gcg/UZyPGN33QSDv1mfeRDhNOw14/OQGeOIQaP54wrWAFii1aDbEWrQmzhiqgl/DRy5EiYjkuDVVS7dm2Y6LL3RFWeeYyAGwLsGNwQyiL8qVOnwjtvv+36ths3bXKVkQJJJ9ZC0v4ZQT1yoxdOBjrtHj2WNkcSBj/oGz8pN0cKxmcpybfKOcuTOqtOyQt8tqJipr6YnEUgNndxnCwuATH5S0Ns/ishNm9JiEWncLGIznmm855VRKuRaFUSEyOQWQiwY8gsZH2md/Xq1fBYz56urR6DZ0DfjGdB61BKwjFI2D7YMQFtGHMyxrLHL0cOZLzJiOOzTLESuzzVaZWjnr792b7qyXI6EBsPMfH5MLppPpHGUJojP14FICZXUZwHIGeAaa4ipP6SUys8lW3HDnOZbzqt6dixI/R58sl0uJzNCGQcAXYMGccwKjQcP35czDNQyGcVPdy6NTz//PMqEQcv6ejXGFDvPPbyE9CoJ4gUksxn+2oiKhXo2YsH0dO3NqeZ/JhsEBOL3/Lj4nHpBBp9+q6PV0y2PBh/Ao0+XfFo+CnNeRkp8hXdgJ+JaM5HRc8++yy00VgsoNLBPEZAhQA7BhU6WYz3BO5sXrlypfKtq1StCjNmeFuCqVTITAcCOpvbhmOMpIYYK4mJEcgsBNgxZBayPtT73nvvwQeTJytbHhcXB+vWr1fKMDM0BCgM+h233+5a+EOcD6pZs6arHAswAqEiwI4hVOSisNw333wDz2sEZvsMN8SVL18+ChG4tK+ku59k/oIFULJkyUvbWK49qhFgxxDVP6+3l9uzZ4+YZzh79qyy4JNPPQUdOnRQyjDTOwKLFi2Cfi7zN/ny5ROhSbJnz+69Ai7BCGgiwI5BE6isItahfXvYvHmz8nVvuOEGeH/iRKUMM70jMOWDD2DUqFHKghWvvhpmz56tlGEmI5BRBNgxZBTBKCs/dOhQ+NTF8BQoWFCEZIiyV7/kr0PxqihulYpuqXcLjB49RiXCPEYgwwiwY8gwhNGlYM6cOTBk8GDXl1q5ahXkzp3bVY4F9BHo0aMH/PTjj8oCD2CsqoEYs4qJEchMBNgxZCa6PtRNJ4fRCWJu9MawYXDXXXe5iTHfAwJNmzSBQ4cwtpSCunXvDj01NiIqVDCLEXBFgB2DK0RZS4DOA3j4oYdg165dyhe/5957YbDGyEKphJkOBHT2MPQfMABatWrlKMcPjEC4EWDHEG5Eo0Bfv379YNHChco3KVWqFHw1f75SJisyybH+/ttvUCOEfQY6juFdnJy+FY/+ZGIEMhMBdgyZia5PdU+ZMgVGvfuua+u9BNRzVeZTgWPHjoljUXfu3Ak7MGy5SDHWkVds9u/fD/dqHNU545NPoEqVKj5Fi5vtFwTYMfjll7qI7aSwGBQew42y4g5cMvx0PvbWrVsNJ4DO4PTp0w6oQjkvYc2aNdC9WzeHnrQeFi9ZAkWKREbAv7Tax3nRgQA7huj4HcP6FtQLbt36YTh29JhS76OPPgpP9OqllPE7cxOGGSdHQOm233+Hw4cPu75S3bp1Yey4ca5ydoHPcZnqqy7HqxYrVgwW4e50JkYgsxH4fwAAAP//BdSKIgAAHR9JREFU7Z0HlBVF1scvUSV6jrgIIrIg6CKgwwgO6BIluQIDCIwESRIkSs7BAZEgCqLEIeesREmSWXQVENMqi4CysO7utwvowoDIfvc+GZYZZ7qr+lW/193zv+fMee9137pV9St4/9fdVbey/JeNYCCQhkDXrl3pjwcPpjma+uODDz5Iy1esSH3QZ58uXrxIfz1zhs789a90hl9D7298lvdOrFnz5jR48GCtom+99RbNSUqyLFO2bFlauGiRpQ9OgoAJAlkgDCYwBi/GlClTaP68eZYdy5IlCx0+csTSxwsnQ1/4GXzxizCYth49e1L79u21wg4aNIi2vveeZZkaNWrQpNdft/TBSRAwQQDCYIJiAGPIl5R8WdnZe1u3UsGCBe3cUp3v1LEjZc+ePfSXI0eOm+9TjoVebxzPli1b6Px/r1+n5CtX6OrVq3QlOTn0Xl6v8LErN47Je/GR4+KXfON8qsoj8GHkyJEU36iRVk3Pt25Nn376qWWZhIQEGqgwJpZBcBIEFAhAGBQgZUaXk998QwnPJdDVK1ctuz902DB69tlnLX3SnmzXti0dPXo07eHAfJ48eTJVrVZNqz9Vq1alixcuWJbp0aMHte/QwdIHJ0HABAEIgwmKAY2h8iu2Cn+hyW0nHZs/fz5N4S/PoNqChQupXLlyWt2LefRRW//ExESq36CBrR8cQCBcAhCGcAkGuPwrY8bQ6tWrLXuYN29e2rtvn6VP2pOHDx+mDpr34NPG8PLn9Rs20H333afcxEuXLtETlSvb+k+fMYPi4uJs/eAAAuESgDCESzDA5VetXEljx4617eERzdtC58+fp+qat1psG+EBB3k2UqpUKZoxcyaJYKra8a+/pmbNmtm6r1m7looXL27rBwcQCJcAhCFcggEuf+zYMWrz/PO2PZzKUy2ffPJJW79bHeLj4+n0qVO3HvLd+7sKFKAHWQhEDErx1F2Zvuvki3vXrl3Up3dvy/7nvO022rFjh5bgWAbESRCwIABhsICT2U/JLJ/m/Ev29OnTlijk1+7gIUMsfdKeHDN6NK1ZsybtYU9/LlGiBD388MP0cJkyv7zyexO2ePFimvTaa5ahihYtSu+uX2/pg5MgYIoAhMEUyYDGGThgAG3bts2yd4UKFaLNW7ZY+qQ9uWTJEnpt4sS0h6P+uQBfBdx7772//BUpcvO9CMIdd9zhSvvGjRtHK5Yvt4wdGxtLSXPmWPrgJAiYIgBhMEUyoHHm8pfR1KlTbXun+5zhIK+q7sarqyNlsh4iX758ob+8/Ho3C0AR/uIvnCIC/Cqfc+bMGakm3aynJ09D3WfzAL9uvXr06quv3iyDNyDgJgEIg5t0AxB7//791KN7d9uerOLZSw888ICtX4rDuXPnaMTw4SkfM3yVL3RZBJeyEC7lfejzjUVwKcfy5M5N8qWfIgChV34ILMdy8zmvWmNeDHfy5EnL5j3fpg31tnkOYRkAJ0FAgwCEQQNWZnT9xz/+QQmc++df//qXZfd79upF7dq1s/TByfQJVKxQgX766af0T9442rdfP2rVqpWlD06CgCkCEAZTJAMc58UuXejQoUOWPYwpX57mzp1r6YOT6RNQWdw2bvx4qlOnTvoBcBQEDBOAMBgGGsRwk994gxYsWGDbNd3nDLYBM4GDXJHVrlXLtqdzWHTLs/jCQCASBCAMkaDs8zq28IyjIQpppPcfOODpe/leHAbJGSW5o+xsw8aNoYfjdn44DwImCEAYTFAMeIwTJ06EnjNcu3bNsqcya0Zmz8DUCWzkL/zhnIjQyvLlzx+aMnwbL3KDgUAkCEAYIkE5AHW0atmSPv/8c8ue1GNRGIsplZaM0p6cxekzpk+fnvZwqs8PlCxJq1atSnUMH0DATQIQBjfpBij2aM7suZZz9VhZnjx5aB9Pb4WpE5Apuxs46Z6VVeYEe29Pm2blgnMgYJQAhMEozvCDzeAMmh9/9FH4gQxH+Pvf/07ffvutbdTHHnvM1gcO/yPw1Vdf0Q8//PC/A+m8k9XYxYoVS+eMNw7F8ph34ZlrsOAQgDB4bCxFGGbyHwwE/EKgM4sChMEvo6XWTgiDGqeIeUEYIoYaFRkiAGEwBNJDYSAMHhoMaQqEwWMDgubYEoAw2CLynQOEwWNDBmHw2ICgObYEIAy2iHznAGHw2JBBGDw2IGiOLQEIgy0i3zlAGDw2ZAs59cQbnIICBgJ+ISDCULduXZLNhLJmzeqXZqOdFgQgDBZwonFKdZ/laLQNdYKAFYHf/OY3oY2NZI8LEYn7778/tNOd7HMB8xcBCIPHxmsjL3YarrBPgceajeaAQLoEZOOjatWrU40aNag6v0ZjI6R0G4aDlgQgDJZ4In9yJ2/43o9z78NAIGgE5MohRSRiYmKC1r1A9QfC4LHhPMgZSrt166bUKqwyVsIEJ4cEPnJxBX4tTjUuGw+Ve+QRh61DMTcJQBjcpOsg9uHDh6lD+/ZKJSdPnkxVq1VT8oUTCOgQ2L17N/V+6SWdIo58RRxatW5NBQsWdFQehdwhAGFwh6vjqF9++SW1eO45pfJDhgyhps2aKfnCCQR0CCxbupQmTJigU8Sxr4iCiAO2LnWM0HhBCINxpOEFPHXqFDWKj1cK0qFDB+reo4eSL5xAQIfApEmTaPGiRTpFwvatWbMmvTJ2LGHfibBRhh0AwhA2QrMBvv/+e6qruLdv/QYNKJHTYcNAwDSBgQMGhDYHMh3XLl4lTjE+lsXhzjvvtHPFeRcJQBhchOsk9MWLF6lqlSpKRSs+/jjN5I1eYCBgmkB7fs51hJ93RcNieG9r2Q0Qzx2iQf+XOiEM0WOfbs0//fQTVaxQId1zaQ8W++1vad26dWkP4zMIhE2gQf369N1334Udx2mA35UuTePGjQstlHMaA+WcE4AwOGfnWsnqPNPo/PnztvFz5cpFBw4etPWDAwjoEqhcqRJdvnzZtpisdh7Ke1bLhkNff/01ffXnPxsTlFKlStGsWbMoP24r2Y6DaQcIg2miBuK1b9eOjhw5ohTp0Acf4GGdEik4qRJITk6mSnFxSu6xsbGUNGdOKt8L/KNm3759N/9UBCZVgFs+PNu0KQ0dOvSWI3gbCQIQhkhQ1qzj5ZdfpncUbxGt5xQa9913n2YNcAeBjAnozIxryDPoRo0alWGwCxcu0NatW2nRwoV05syZDP2sTowePZqe4VtbsMgRgDBEjrVyTToZVmcnJRFWQCujhaMCAVnx3PGFFxQ8iXrwdOn2PG3azv7973/TIp7+umTxYrp69aqde6rz8hB6Jt9SkqR8sMgQgDBEhrNWLXv37qVePXsqlRk4aBAlJCQo+cIJBFQIyBf467yOQcUmTJxIkt5C1WQBp0yx/jO/6pjUIXXBIkMAwhAZzlq1fPvtt9SQ1yioWJMmTWgYsrGqoIKPIoFhfE9/06ZNSt7Lli+nhx56SMk3xelvf/sbDecH1rq5mHBLKYWg+68QBvcZO6ohNrY8Xf/5um3ZcuXK0QK+fwsDAVMEmjRuTN98841tuOzZs9OePXsoV+7ctr5pHS5dukSS0mUP52RSNUndPen111Xd4RcGAQhDGPDcLPosXwmcOHHCtgr5T3mAM7LCQMAEgStXrlAcL5xUsRIlStDqNWtUXNP1+fHHH6lTp0705RdfpHs+vYOybkfW78DcJQBhcJev4+h9+/al93fuVCq/afNmKly4sJIvnEDAisAnn3xCbdu0sXK5ea4G5zaSnErh2IH9+6l79+7KIVQfdisHhGO6BCAM6WKJ/sG33nqL5vCMIxWb8uabVEUxjYZKPPhkXgIrVqygcZyOQsXacdqMnoqTJKziTXv7bZo9e7aVy81zZcqUoUU8swnmLgEIg7t8HUfftHEjDeMHdCqGX1EqlOCjQkDWJLz7zjsqrvQyzy5qoDhJwi6g6q1TiSP5wSRPGMw9AhAG99iGFVnSCzRX3Guhbr16oaRjYVWIwiDABBKaNw+lt1CBMX/BAnrE0A5sM2bMoJn8p2Jt27alXhHYREilLUH1gTB4eGRVcyY9ULIkrVq1ysM9QdP8QOD69esUy5lNVW03z0jKnz+/qruln8yCktlQKia7FsruhTD3CEAY3GMbduRBAweG0gmoBDpy9KiKG3xAIEMCMjuoRYsWGZ6/9UQRTsOygdOxmLQB/fvT9u3bbUPeX6wYvaN4u8s2GBzSJQBhSBeLNw6u4amAYzhPjIq9wb+gqvEvKRgIOCWQxJMd3uZJDyrmRnK7xfxQedJrr6lUT388dIhuv/12JV846ROAMOgzi1gJncvrhg0b0ihOvgcDAacEWrdqRZ999plS8dd4mqpsxWnS5GpBrhpUzMmKa5W48PmFAITB4/8S/vD003T27FnbVubje72yChUGAk4I/POf/6RaTz2lXHQ/L6rM7WDFs1UFOreyZBOfOnXrWoXDuTAIQBjCgBeJojopuCUDZcWKFSPRLNQRMAKrV6+mV8aMUeqVbL05d+5cJV8dJ51tbTt36UJd+A/mDgEIgztcjUWVfRlEHFSs9fPPU58+fVRc4QMCqQj06d2bdu3alepYRh86chqLrl27ZnTa8XFJx/244g8bma4q01Zh7hCAMLjD1VhUnecMsmGPbNwDAwEdAteuXSOZGi25i1RsDl8tlNeY1qoSU3xkz4Ya1asruSPdvBImx04QBsfoIldQZ1Xo3HnzKCYmJnKNQ02+J7Bzxw7q16+fUj9kj+et27Yp+eo6yQ5v9Z95RqnYSF6hHc+7x8HcIQBhcIer0ag6zxle4J23umkkJTPaUATzJQHJjSQ5klSsHq+yH6uYS0kl3q0+solPi+eeu/VQhu/x8DlDNEZOQBiMYHQ3yNb33qNBvFObipUuXZqWLF2q4gofEAgRUN1/QZxlUyjZHMoN09lSVFY+ywpomDsEIAzucDUaVXLkx/M6Bdn5SsUW8taMZcuWVXGFTyYncOzYMWrDkxZUbR2vOC5WrJiqu5bfRN66c+mSJUplpnNepbi4OCVfOOkTgDDoM4tKifHjx9PyZcuU6pa0Bv0HDFDyhVPmJiArjWXFsYqV5d0CF7q4W2CjRo3o1MmTKk2hLXwVfc899yj5wkmfAIRBn1lUSnz4wQfUuXNnpbrvvPNOWsXz0gsUKKDkD6fMSUBmATVt2pT+jxe3qVhffkDdildHu2E6zxfC3TnOjfYHLSaEwUcjKlcCqtsgvsTz0tso7sTlIwRoqkECy/hZ1IQJE5Qiuv1jQxbMTeUNp1SsZcuW1E8xdYZKPPj8mgCE4ddMPHtkFq9snj5tmlL7SpUqRStWrlTyhVPmJNC6dWv67NNPlTqfwLOFBnK2X7esW7dudFBx73LZ3fCJJ590qymIywQgDD76Z3CcN+9pprh5j3RLphXK9EIYCKQlsHv3buqtsdnNAn62UI6fMbhhe/fupV6KW4Tm59uk77//PmXNmtWNpiDmDQIQBp/9U9D5ZfUk/6qaqphG2WcY0NwwCejs9SH7icu+4m5Zr169aK9iAsinONHfRMXU3G61NzPEhTD4bJRlp7axr7yi3OqkOXMoNjZW2R+OwSegs22s0HDzylPnakHaMmTIEGqqcdUsZWD6BCAM+syiWkLSI8uahv/85z9K7WjM2yUOHzFCyRdOmYPAFF4cNn/+fKXOygwgmeGWJUsWJX9dJ52rhbvuuouW8pRtScsBc5cAhMFdvq5ET0xMpHVr1yrFvu2220L/sSXBHgwEfvjhh9AU1e8VF0tKehVJs+KGrear31c0rn7bd+hAPXr0cKMpiJmGAIQhDRA/fNRdrYrc9X4Y1ci0cRXPVBs7dqxSZXfccQet5C/vIkWKKPnrOH3yySfUVmM6tWwKtHz5cpK9pmHuE4AwuM/YlRrkXuuWzZuVYufJk4dkVknx4sWV/OEUTALnz5+ndu3aKa8ujueVyCNHjjQO49KlS6H02pLqRdVkYZ0ssINFhgCEITKcjdfyAa+E7qK4Eloqx7MG40Pgu4Bv8syieRo7r82cOZMqPv648X7qpJGXynPkyEGyx7M874BFhgCEITKcXamlN69u3q2465Y0YAb/R3/chf/ornQOQY0SkNuPcrVw/eefleLWrl2bxiuuilYKeMNJJk6cPn1ap0hoFpJcIcMiRwDCEDnWxmvSXaSEdQ3Gh8A3Afv27Uvv79yp3F7TGXolpbbMQLqkOJsupaGFCxemyVOmUMmSJVMO4TUCBCAMEYDsZhWyIfoHhw4pV5E4ejTVr19f2R+O/iewceNGGj5smHJHJMeW5NoyZbIJkGwG5MSQXtsJtfDLQBjCZxjVCFu2bKEhgwcrt0FyKMmvQZnGCgs+AVnv0rZtW/rL8eNKnc2VK1do33BZMxCuyV7SSUlJNJP3TnBio8eMoWcUt/p0Eh9lMiYAYciYjW/OyC+8Yzz9T9W681zwDjwnHBZ8AtM46eJsTr6oaoP4R0bz5s1V3TP0kxXNIgqf8rMNJ9aVk+p17NjRSVGUMUAAwmAAYrRDrFu3jhJfflm5GZJCWa4asOhNGZkvHWWPA7lauKo4LVT+PazfsCGsvsrK/KTZs5X3kE6vsgoVKtAsjgGLHgEIQ/TYG625b58+oayTqkElS+tgzPRQxeVLP9knXPYLV7U3p06l3//+96ruqfxkJfUuztgqW3N+9913qc7pfjhy9KhuEfgbJgBhMAw0WuGO8z3kTnzpLYuYVA0PolVJ+c9vJa9wflVxhbP0LqZ8eZLNcnQsOTmZ9rAYiCDIq3wOx+6++27atn17OCFQ1hABCIMhkF4Io/tlILnt5R506dKlvdB8tMEQgcOHD9OLL76ofAtJqpUFZA899JBtC+SHx8cff0wf/elPIUFQzblkF/h3/G9wKe8oB/MGAQiDN8bBWCt08uxLpeU5Jff06dMoZ07MUjI2CFEMdOHCBeratSt98fnnyq2oVasWTZg4MUN/WYMgfx/feM3Q0eGJKlWr0hReqwDzDgEIg3fGwkhLTp06RR05G6Y8BFS1ZjwLZbDGlFfVuPCLPIERnGJ9w/r1WhU/9thj9PP166FbQcnJlyn5cjJdvsyvfGso3NtDdg1p0qQJDRs+3M4N5yNMAMIQYeCRqG4tp+Qezam5dQxTWHVoedNXnhFMdXGnNZO9zpYtG73Az8RkgSbMewQgDN4bEyMtGjp0KG3etEkrVr/+/ally5ZaZeDsDQLv8eyjwTwLyQ/2xBNPUMdOneiRRx7xQ3MzZRshDAEd9jNnzoRmKZ07d06rh7JHtORUgvmHgO7+HNHqWf78+UOCgB8f0RoB9XohDOqsfOe5ia8YhvGVg65t37GDChQooFsM/lEgIM+Saj31VBRq1quybr16oZXM2BNEj1u0vCEM0SIfoXrf5isASU2ga1hkpEssOv4xjz4anYoVa5X9HJ5++mlqyOm2Yf4hAGHwz1g5bmk/3vlqJ18F6BrEQZdYZP29KgpFixalGjVqUI2aNals2bKRhYLajBCAMBjB6P0gurtmpfQI4pBCwluvXhOFHDlzUk0WgpAgsCjIrCOYfwlAGPw7dlotl/w18fENeQev61rlxBnioI3M1QJeEYV7772XZA2EzC6SW0byGRYMAhCGYIyjUi8kn81LL72k5JvWaTPv+1CoUKG0h/E5ggTOnj1Lf+D79dGynHxVEFepElXiv0f52YZKCo1otRX1hkcAwhAeP9+VnjtnDk3lLJpO7G3Oq1S5cmUnRVEmTALreTXzSF7V7MTkV72dZcuenfLkyUN58+b95fXW9/nyhY6pxLGrB+f9QQDC4I9xMtrKoZxue/PmzY5iYhGcI2xhFZoyeTLNnz/fUYxneBvX0bydKwwEdAhAGHRoBci3e/fudGD/fkc9kvw2vXn/h9y5czsqj0LqBEaNGkXvvvOOeoFbPBvGx5OUh4GALgEIgy6xAPmPGjmS3n33XUc9kmmIPXr2JNltC2aewJEjR2g637r7E6e3dmJPccbUiRYZU53ERJnMQwDCkHnGOt2eyvMGee7gxLLylMSeLA6y5zTMHIF5nAxP9sm4du2ao6BxcXE0fcYMR2VRCASEAIQB/w5o2bJlNGH8eMckateuHbp6KFKkiOMYKEgkezTLVcK+ffsc46hSpQpN8UmGVcedREHXCUAYXEfsjwrWrFlDY8J4SFnwnnuobdu2lJCQ4I8Oe6iVly5dConz/Hnz6Mcff3TcskaNG5PsxwADgXAJQBjCJRig8rLBS7hfLHIbow0LhLzC7AmIIC/jLS1PnDhh72zh8SLv2taJU1nDQMAEAQiDCYoBirF161aS7UHDNblykCsIuZKA/ZrAzp07+SphKW+X+fGvT2oeSeQrvfo8LRUGAqYIQBjSkNy7dy/Jr7i9e/akOYOPIAACXiNQtVo1atq0KcnmPzBzBCAMGbCEQGQABodBwAMEJHOrCAJuWbozGBAGG64QCBtAOA0CESRQp04depYFAek53IUOYVDke+DAAVq5ciVuMSnyghsImCQgm/2IIMTExJgMi1gZEIAwZAAmo8MffvghLVmyBAKRESAcBwGDBBo0aBASBGz4YxCqQigIgwKk9FwOHz5MCxYsgECkBwfHQCBMAiIIMrPtd6VLhxkJxZ0QgDA4oXZLmWPHjtEcTimBWUy3QMFbEHBIQAShVevWVLJkSYcRUMwEAQiDCYocQ9IZzJ41i3bt2mUoIsKAQOYhIIIgCyOLFy+eeTrt4Z5CGAwPzvHjx0MCsX37dsOREQ4EgkdABKHDCy9Q0aJFg9c5H/cIwuDS4J06dSokEE43xHGpWQgLAp4gIILQqXNn7BPtidH4dSMgDL9mYvTImTNnaOPGjUZjIhgI+JmAiELhwoX93IXAtx3CEPghRgdBAARAQI8AhEGPF7xBAARAIPAEIAyBH2J0EARAAAT0CEAY9HjBGwRAAAQCTwDCEPghRgdBAARAQI8AhEGPF7xBAARAIPAEIAyBH2J0EARAAAT0CEAY9HjBGwRAAAQCTwDCEPghVutgR05LAPM/gdlJSf7vBHoQdQIQhqgPgTcasG3bNho4YIA3GoNWOCLw6rhxVLduXUdlUQgEbiUAYbiVRiZ/L3vo/oWTAML8R6BEiRK0es0a/zUcLfYkAQiDJ4clOo2S7Uu7d+sWncpRa1gEprz5JlWpUiWsGCgMAikEIAwpJPAaItCOc+IfPXoUNHxEoGy5crRw4UIftRhN9ToBCIPXRyjC7ZMtSzu0bx/hWlFdOARmzZ5NFSpUCCcEyoJAKgIQhlQ48EEIdOPbSQf5thLM+wTi4uJo+owZ3m8oWugrAhAGXw1XZBr7xRdfUMsWLSJTGWoJi8CixYupTJkyYcVAYRBISwDCkJYIPocI9O/fn3Zge1JP/2uoUbMmTZo0ydNtROP8SQDC4M9xc73VJ0+epMaNGrleDypwTmDN2rVUvHhx5wFQEgQyIABhyAAMDhONGDGCzp09CxQeJFCIt8ZMTEz0YMvQpCAQgDAEYRTRBxAAARAwSADCYBAmQoEACIBAEAhAGIIwiugDCIAACBgkAGEwCBOhQAAEQCAIBCAMQRhF9AEEQAAEDBKAMBiEiVAgAAIgEAQCEIYgjCL6AAIgAAIGCUAYDMJEKBAAARAIAgEIQxBGEX0AARAAAYMEIAwGYSIUCIAACASBAIQhCKOIPoAACICAQQIQBoMwEQoEQAAEgkAAwhCEUUQfQAAEQMAgAQiDQZgIBQIgAAJBIABhCMIoog8gAAIgYJAAhMEgTIQCARAAgSAQgDAEYRTRBxAAARAwSADCYBAmQoEACIBAEAhAGIIwiugDCIAACBgkAGEwCBOhQAAEQCAIBCAMQRhF9AEEQAAEDBKAMBiEiVAgAAIgEAQCEIYgjCL6AAIgAAIGCUAYDMJEKBAAARAIAgEIQxBGEX0AARAAAYMEIAwGYSIUCIAACASBAIQhCKOIPoAACICAQQIQBoMwEQoEQAAEgkDg/wGeTJquojRleQAAAABJRU5ErkJggg==;" parent="1" vertex="1">
          <mxGeometry x="340" y="198.54" width="40.37" height="32.92" as="geometry" />
        </mxCell>
      </root>
    </mxGraphModel>
  </diagram>
</mxfile>
